SofiaSans-Black.ufo
<glyph name="exclam" format="2">
  <advance width="304"/>
  <unicode hex="0021"/>
  <outline>
    <contour>
      <point x="76" y="242" type="curve" smooth="yes"/>
      <point x="229" y="242" type="line" smooth="yes"/>
      <point x="238" y="242"/>
      <point x="244" y="248"/>
      <point x="244" y="257" type="curve" smooth="yes"/>
      <point x="258" y="640" type="line" smooth="yes"/>
      <point x="258" y="649"/>
      <point x="252" y="655"/>
      <point x="243" y="655" type="curve" smooth="yes"/>
      <point x="62" y="655" type="line" smooth="yes"/>
      <point x="53" y="655"/>
      <point x="47" y="649"/>
      <point x="47" y="640" type="curve" smooth="yes"/>
      <point x="61" y="257" type="line" smooth="yes"/>
      <point x="61" y="248"/>
      <point x="67" y="242"/>
    </contour>
    <contour>
      <point x="152" y="-12" type="curve" smooth="yes"/>
      <point x="220" y="-12"/>
      <point x="258" y="16"/>
      <point x="258" y="77" type="curve" smooth="yes"/>
      <point x="258" y="104" type="line" smooth="yes"/>
      <point x="258" y="167"/>
      <point x="220" y="194"/>
      <point x="152" y="194" type="curve" smooth="yes"/>
      <point x="86" y="194"/>
      <point x="46" y="167"/>
      <point x="46" y="104" type="curve" smooth="yes"/>
      <point x="46" y="77" type="line" smooth="yes"/>
      <point x="46" y="16"/>
      <point x="86" y="-12"/>
    </contour>
  </outline>
</glyph>
<glyph name="quotedbl" format="2">
  <advance width="473"/>
  <unicode hex="0022"/>
  <outline>
    <contour>
      <point x="279" y="339" type="curve" smooth="yes"/>
      <point x="423" y="339" type="line" smooth="yes"/>
      <point x="432" y="339"/>
      <point x="438" y="345"/>
      <point x="438" y="354" type="curve" smooth="yes"/>
      <point x="438" y="668" type="line" smooth="yes"/>
      <point x="438" y="677"/>
      <point x="432" y="683"/>
      <point x="423" y="683" type="curve" smooth="yes"/>
      <point x="279" y="683" type="line" smooth="yes"/>
      <point x="270" y="683"/>
      <point x="264" y="677"/>
      <point x="264" y="668" type="curve" smooth="yes"/>
      <point x="264" y="354" type="line" smooth="yes"/>
      <point x="264" y="345"/>
      <point x="270" y="339"/>
    </contour>
    <contour>
      <point x="50" y="339" type="curve" smooth="yes"/>
      <point x="194" y="339" type="line" smooth="yes"/>
      <point x="203" y="339"/>
      <point x="209" y="345"/>
      <point x="209" y="354" type="curve" smooth="yes"/>
      <point x="209" y="668" type="line" smooth="yes"/>
      <point x="209" y="677"/>
      <point x="203" y="683"/>
      <point x="194" y="683" type="curve" smooth="yes"/>
      <point x="50" y="683" type="line" smooth="yes"/>
      <point x="41" y="683"/>
      <point x="35" y="677"/>
      <point x="35" y="668" type="curve" smooth="yes"/>
      <point x="35" y="354" type="line" smooth="yes"/>
      <point x="35" y="345"/>
      <point x="41" y="339"/>
    </contour>
  </outline>
</glyph>
<glyph name="numbersign" format="2">
  <advance width="638"/>
  <unicode hex="0023"/>
  <outline>
    <contour>
      <point x="122" y="0" type="curve" smooth="yes"/>
      <point x="232" y="0" type="line" smooth="yes"/>
      <point x="241" y="0"/>
      <point x="247" y="6"/>
      <point x="247" y="15" type="curve" smooth="yes"/>
      <point x="247" y="103" type="line"/>
      <point x="391" y="103" type="line"/>
      <point x="391" y="15" type="line" smooth="yes"/>
      <point x="391" y="6"/>
      <point x="397" y="0"/>
      <point x="406" y="0" type="curve" smooth="yes"/>
      <point x="516" y="0" type="line" smooth="yes"/>
      <point x="525" y="0"/>
      <point x="531" y="6"/>
      <point x="531" y="15" type="curve" smooth="yes"/>
      <point x="531" y="103" type="line"/>
      <point x="598" y="103" type="line" smooth="yes"/>
      <point x="607" y="103"/>
      <point x="613" y="109"/>
      <point x="613" y="118" type="curve" smooth="yes"/>
      <point x="613" y="222" type="line" smooth="yes"/>
      <point x="613" y="231"/>
      <point x="607" y="237"/>
      <point x="598" y="237" type="curve" smooth="yes"/>
      <point x="531" y="237" type="line"/>
      <point x="531" y="376" type="line"/>
      <point x="598" y="376" type="line" smooth="yes"/>
      <point x="607" y="376"/>
      <point x="613" y="382"/>
      <point x="613" y="391" type="curve" smooth="yes"/>
      <point x="613" y="495" type="line" smooth="yes"/>
      <point x="613" y="504"/>
      <point x="607" y="510"/>
      <point x="598" y="510" type="curve" smooth="yes"/>
      <point x="531" y="510" type="line"/>
      <point x="531" y="598" type="line" smooth="yes"/>
      <point x="531" y="607"/>
      <point x="525" y="613"/>
      <point x="516" y="613" type="curve" smooth="yes"/>
      <point x="406" y="613" type="line" smooth="yes"/>
      <point x="397" y="613"/>
      <point x="391" y="607"/>
      <point x="391" y="598" type="curve" smooth="yes"/>
      <point x="391" y="510" type="line"/>
      <point x="247" y="510" type="line"/>
      <point x="247" y="598" type="line" smooth="yes"/>
      <point x="247" y="607"/>
      <point x="241" y="613"/>
      <point x="232" y="613" type="curve" smooth="yes"/>
      <point x="122" y="613" type="line" smooth="yes"/>
      <point x="113" y="613"/>
      <point x="107" y="607"/>
      <point x="107" y="598" type="curve" smooth="yes"/>
      <point x="107" y="510" type="line"/>
      <point x="40" y="510" type="line" smooth="yes"/>
      <point x="31" y="510"/>
      <point x="25" y="504"/>
      <point x="25" y="495" type="curve" smooth="yes"/>
      <point x="25" y="391" type="line" smooth="yes"/>
      <point x="25" y="382"/>
      <point x="31" y="376"/>
      <point x="40" y="376" type="curve" smooth="yes"/>
      <point x="107" y="376" type="line"/>
      <point x="107" y="237" type="line"/>
      <point x="40" y="237" type="line" smooth="yes"/>
      <point x="31" y="237"/>
      <point x="25" y="231"/>
      <point x="25" y="222" type="curve" smooth="yes"/>
      <point x="25" y="118" type="line" smooth="yes"/>
      <point x="25" y="109"/>
      <point x="31" y="103"/>
      <point x="40" y="103" type="curve" smooth="yes"/>
      <point x="107" y="103" type="line"/>
      <point x="107" y="15" type="line" smooth="yes"/>
      <point x="107" y="6"/>
      <point x="113" y="0"/>
    </contour>
    <contour>
      <point x="247" y="237" type="line"/>
      <point x="247" y="376" type="line"/>
      <point x="391" y="376" type="line"/>
      <point x="391" y="237" type="line"/>
    </contour>
  </outline>
</glyph>
<glyph name="dollar" format="2">
  <advance width="630"/>
  <unicode hex="0024"/>
  <outline>
    <contour>
      <point x="294" y="-12" type="curve" smooth="yes"/>
      <point x="465" y="-12"/>
      <point x="543" y="46"/>
      <point x="544" y="175" type="curve" smooth="yes"/>
      <point x="545" y="262"/>
      <point x="512" y="314"/>
      <point x="432" y="352" type="curve" smooth="yes"/>
      <point x="286" y="422" type="line" smooth="yes"/>
      <point x="252" y="438"/>
      <point x="243" y="450"/>
      <point x="243" y="474" type="curve" smooth="yes"/>
      <point x="243" y="503"/>
      <point x="263" y="518"/>
      <point x="300" y="518" type="curve" smooth="yes"/>
      <point x="344" y="518"/>
      <point x="366" y="498"/>
      <point x="363" y="460" type="curve" smooth="yes"/>
      <point x="362" y="449"/>
      <point x="367" y="444"/>
      <point x="376" y="444" type="curve" smooth="yes"/>
      <point x="521" y="444" type="line" smooth="yes"/>
      <point x="530" y="444"/>
      <point x="535" y="449"/>
      <point x="536" y="461" type="curve" smooth="yes"/>
      <point x="548" y="601"/>
      <point x="472" y="667"/>
      <point x="297" y="667" type="curve" smooth="yes"/>
      <point x="141" y="667"/>
      <point x="62" y="605"/>
      <point x="61" y="482" type="curve" smooth="yes"/>
      <point x="60" y="397"/>
      <point x="92" y="346"/>
      <point x="170" y="308" type="curve" smooth="yes"/>
      <point x="319" y="235" type="line" smooth="yes"/>
      <point x="351" y="219"/>
      <point x="362" y="206"/>
      <point x="362" y="181" type="curve" smooth="yes"/>
      <point x="362" y="150"/>
      <point x="343" y="137"/>
      <point x="298" y="137" type="curve" smooth="yes"/>
      <point x="248" y="137"/>
      <point x="226" y="155"/>
      <point x="230" y="195" type="curve" smooth="yes"/>
      <point x="231" y="205"/>
      <point x="226" y="211"/>
      <point x="216" y="211" type="curve" smooth="yes"/>
      <point x="72" y="211" type="line" smooth="yes"/>
      <point x="64" y="211"/>
      <point x="58" y="205"/>
      <point x="57" y="196" type="curve" smooth="yes"/>
      <point x="41" y="55"/>
      <point x="119" y="-12"/>
    </contour>
    <contour>
      <point x="233" y="-87" type="curve" smooth="yes"/>
      <point x="369" y="-87" type="line" smooth="yes"/>
      <point x="375" y="-87"/>
      <point x="379" y="-83"/>
      <point x="379" y="-77" type="curve" smooth="yes"/>
      <point x="379" y="11" type="line"/>
      <point x="223" y="6" type="line"/>
      <point x="223" y="-77" type="line" smooth="yes"/>
      <point x="223" y="-83"/>
      <point x="227" y="-87"/>
    </contour>
    <contour>
      <point x="223" y="649" type="line"/>
      <point x="379" y="644" type="line"/>
      <point x="379" y="732" type="line" smooth="yes"/>
      <point x="379" y="738"/>
      <point x="375" y="742"/>
      <point x="369" y="742" type="curve" smooth="yes"/>
      <point x="233" y="742" type="line" smooth="yes"/>
      <point x="227" y="742"/>
      <point x="223" y="738"/>
      <point x="223" y="732" type="curve" smooth="yes"/>
    </contour>
  </outline>
</glyph>
<glyph name="percent" format="2">
  <advance width="952"/>
  <unicode hex="0025"/>
  <outline>
    <contour>
      <point x="223" y="0" type="curve" smooth="yes"/>
      <point x="351" y="0" type="line" smooth="yes"/>
      <point x="359" y="0"/>
      <point x="365" y="3"/>
      <point x="369" y="10" type="curve" smooth="yes"/>
      <point x="549" y="322" type="line"/>
      <point x="740" y="637" type="line" smooth="yes"/>
      <point x="746" y="648"/>
      <point x="742" y="655"/>
      <point x="730" y="655" type="curve" smooth="yes"/>
      <point x="601" y="655" type="line" smooth="yes"/>
      <point x="593" y="655"/>
      <point x="587" y="652"/>
      <point x="583" y="645" type="curve" smooth="yes"/>
      <point x="416" y="354" type="line"/>
      <point x="213" y="18" type="line" smooth="yes"/>
      <point x="207" y="7"/>
      <point x="211" y="0"/>
    </contour>
    <contour>
      <point x="216" y="295" type="curve" smooth="yes"/>
      <point x="335" y="295"/>
      <point x="395" y="360"/>
      <point x="395" y="465" type="curve" smooth="yes"/>
      <point x="395" y="497" type="line" smooth="yes"/>
      <point x="395" y="602"/>
      <point x="336" y="667"/>
      <point x="216" y="667" type="curve" smooth="yes"/>
      <point x="97" y="667"/>
      <point x="36" y="602"/>
      <point x="36" y="497" type="curve" smooth="yes"/>
      <point x="36" y="465" type="line" smooth="yes"/>
      <point x="36" y="360"/>
      <point x="96" y="295"/>
    </contour>
    <contour>
      <point x="216" y="426" type="curve" smooth="yes"/>
      <point x="183" y="426"/>
      <point x="169" y="444"/>
      <point x="169" y="474" type="curve" smooth="yes"/>
      <point x="169" y="488" type="line" smooth="yes"/>
      <point x="169" y="518"/>
      <point x="183" y="536"/>
      <point x="216" y="536" type="curve" smooth="yes"/>
      <point x="248" y="536"/>
      <point x="262" y="518"/>
      <point x="262" y="488" type="curve" smooth="yes"/>
      <point x="262" y="474" type="line" smooth="yes"/>
      <point x="262" y="444"/>
      <point x="248" y="426"/>
    </contour>
    <contour>
      <point x="736" y="-12" type="curve" smooth="yes"/>
      <point x="855" y="-12"/>
      <point x="916" y="53"/>
      <point x="916" y="158" type="curve" smooth="yes"/>
      <point x="916" y="190" type="line" smooth="yes"/>
      <point x="916" y="295"/>
      <point x="856" y="360"/>
      <point x="736" y="360" type="curve" smooth="yes"/>
      <point x="617" y="360"/>
      <point x="557" y="295"/>
      <point x="557" y="190" type="curve" smooth="yes"/>
      <point x="557" y="158" type="line" smooth="yes"/>
      <point x="557" y="53"/>
      <point x="616" y="-12"/>
    </contour>
    <contour>
      <point x="736" y="119" type="curve" smooth="yes"/>
      <point x="704" y="119"/>
      <point x="690" y="137"/>
      <point x="690" y="167" type="curve" smooth="yes"/>
      <point x="690" y="181" type="line" smooth="yes"/>
      <point x="690" y="211"/>
      <point x="704" y="229"/>
      <point x="736" y="229" type="curve" smooth="yes"/>
      <point x="769" y="229"/>
      <point x="783" y="211"/>
      <point x="783" y="181" type="curve" smooth="yes"/>
      <point x="783" y="167" type="line" smooth="yes"/>
      <point x="783" y="137"/>
      <point x="769" y="119"/>
    </contour>
  </outline>
</glyph>
<glyph name="ampersand" format="2">
  <advance width="688"/>
  <unicode hex="0026"/>
  <outline>
    <contour>
      <point x="507" y="0" type="curve" smooth="yes"/>
      <point x="668" y="0" type="line" smooth="yes"/>
      <point x="681" y="0"/>
      <point x="685" y="10"/>
      <point x="675" y="20" type="curve" smooth="yes"/>
      <point x="279" y="393" type="line" smooth="yes"/>
      <point x="236" y="433"/>
      <point x="218" y="472"/>
      <point x="218" y="498" type="curve" smooth="yes"/>
      <point x="218" y="527"/>
      <point x="233" y="543"/>
      <point x="258" y="543" type="curve" smooth="yes"/>
      <point x="284" y="543"/>
      <point x="296" y="525"/>
      <point x="296" y="499" type="curve" smooth="yes"/>
      <point x="296" y="461"/>
      <point x="265" y="431"/>
      <point x="219" y="404" type="curve"/>
      <point x="317" y="315" type="line"/>
      <point x="402" y="375"/>
      <point x="450" y="450"/>
      <point x="450" y="527" type="curve" smooth="yes"/>
      <point x="450" y="615"/>
      <point x="385" y="667"/>
      <point x="260" y="667" type="curve" smooth="yes"/>
      <point x="127" y="667"/>
      <point x="64" y="610"/>
      <point x="64" y="508" type="curve" smooth="yes"/>
      <point x="64" y="436"/>
      <point x="91" y="378"/>
      <point x="163" y="310" type="curve" smooth="yes"/>
      <point x="488" y="7" type="line" smooth="yes"/>
      <point x="494" y="1"/>
      <point x="500" y="0"/>
    </contour>
    <contour>
      <point x="275" y="-12" type="curve" smooth="yes"/>
      <point x="486" y="-12"/>
      <point x="604" y="123"/>
      <point x="604" y="375" type="curve" smooth="yes"/>
      <point x="604" y="384"/>
      <point x="598" y="390"/>
      <point x="589" y="390" type="curve" smooth="yes"/>
      <point x="466" y="390" type="line" smooth="yes"/>
      <point x="457" y="390"/>
      <point x="451" y="384"/>
      <point x="451" y="375" type="curve" smooth="yes"/>
      <point x="451" y="203"/>
      <point x="392" y="117"/>
      <point x="281" y="117" type="curve" smooth="yes"/>
      <point x="220" y="117"/>
      <point x="196" y="133"/>
      <point x="196" y="175" type="curve" smooth="yes"/>
      <point x="196" y="207"/>
      <point x="218" y="240"/>
      <point x="271" y="279" type="curve"/>
      <point x="227" y="410" type="line"/>
      <point x="83" y="319"/>
      <point x="39" y="264"/>
      <point x="39" y="160" type="curve" smooth="yes"/>
      <point x="39" y="49"/>
      <point x="109" y="-12"/>
    </contour>
  </outline>
</glyph>
<glyph name="quotesingle" format="2">
  <advance width="244"/>
  <unicode hex="0027"/>
  <outline>
    <contour>
      <point x="50" y="339" type="curve" smooth="yes"/>
      <point x="194" y="339" type="line" smooth="yes"/>
      <point x="203" y="339"/>
      <point x="209" y="345"/>
      <point x="209" y="354" type="curve" smooth="yes"/>
      <point x="209" y="668" type="line" smooth="yes"/>
      <point x="209" y="677"/>
      <point x="203" y="683"/>
      <point x="194" y="683" type="curve" smooth="yes"/>
      <point x="50" y="683" type="line" smooth="yes"/>
      <point x="41" y="683"/>
      <point x="35" y="677"/>
      <point x="35" y="668" type="curve" smooth="yes"/>
      <point x="35" y="354" type="line" smooth="yes"/>
      <point x="35" y="345"/>
      <point x="41" y="339"/>
    </contour>
  </outline>
</glyph>
<glyph name="parenleft" format="2">
  <advance width="293"/>
  <unicode hex="0028"/>
  <outline>
    <contour>
      <point x="167" y="-198" type="curve" smooth="yes"/>
      <point x="174" y="-204"/>
      <point x="190" y="-207"/>
      <point x="197" y="-200" type="curve"/>
      <point x="282" y="-121" type="line"/>
      <point x="290" y="-113"/>
      <point x="288" y="-104"/>
      <point x="279" y="-96" type="curve" smooth="yes"/>
      <point x="233" y="-55"/>
      <point x="203" y="-10"/>
      <point x="203" y="77" type="curve" smooth="yes"/>
      <point x="203" y="477" type="line" smooth="yes"/>
      <point x="203" y="564"/>
      <point x="234" y="608"/>
      <point x="279" y="650" type="curve" smooth="yes"/>
      <point x="288" y="658"/>
      <point x="290" y="667"/>
      <point x="282" y="675" type="curve"/>
      <point x="197" y="754" type="line"/>
      <point x="190" y="761"/>
      <point x="174" y="758"/>
      <point x="167" y="752" type="curve" smooth="yes"/>
      <point x="95" y="690"/>
      <point x="44" y="639"/>
      <point x="44" y="497" type="curve" smooth="yes"/>
      <point x="44" y="57" type="line" smooth="yes"/>
      <point x="44" y="-85"/>
      <point x="95" y="-136"/>
    </contour>
  </outline>
</glyph>
<glyph name="parenright" format="2">
  <advance width="293"/>
  <unicode hex="0029"/>
  <outline>
    <contour>
      <point x="96" y="-200" type="line"/>
      <point x="103" y="-207"/>
      <point x="119" y="-204"/>
      <point x="126" y="-198" type="curve" smooth="yes"/>
      <point x="198" y="-136"/>
      <point x="249" y="-85"/>
      <point x="249" y="57" type="curve" smooth="yes"/>
      <point x="249" y="497" type="line" smooth="yes"/>
      <point x="249" y="639"/>
      <point x="198" y="690"/>
      <point x="126" y="752" type="curve" smooth="yes"/>
      <point x="119" y="758"/>
      <point x="103" y="761"/>
      <point x="96" y="754" type="curve"/>
      <point x="11" y="675" type="line"/>
      <point x="3" y="667"/>
      <point x="5" y="658"/>
      <point x="14" y="650" type="curve" smooth="yes"/>
      <point x="60" y="609"/>
      <point x="90" y="564"/>
      <point x="90" y="477" type="curve" smooth="yes"/>
      <point x="90" y="77" type="line" smooth="yes"/>
      <point x="90" y="-10"/>
      <point x="60" y="-55"/>
      <point x="14" y="-96" type="curve" smooth="yes"/>
      <point x="5" y="-104"/>
      <point x="3" y="-113"/>
      <point x="11" y="-121" type="curve"/>
    </contour>
  </outline>
</glyph>
<glyph name="asterisk" format="2">
  <advance width="406"/>
  <unicode hex="002A"/>
  <guideline x="203" y="817" angle="90"/>
  <guideline x="170" y="551" angle="0"/>
  <outline>
    <contour>
      <point x="150" y="384" type="line" smooth="yes"/>
      <point x="160" y="376"/>
      <point x="171" y="381"/>
      <point x="176" y="391" type="curve" smooth="yes"/>
      <point x="203" y="457" type="line"/>
      <point x="229" y="395" type="line" smooth="yes"/>
      <point x="234" y="384"/>
      <point x="244" y="381"/>
      <point x="254" y="388" type="curve" smooth="yes"/>
      <point x="342" y="450" type="line" smooth="yes"/>
      <point x="352" y="457"/>
      <point x="351" y="470"/>
      <point x="342" y="477" type="curve" smooth="yes"/>
      <point x="287" y="521" type="line"/>
      <point x="364" y="530" type="line" smooth="yes"/>
      <point x="375" y="531"/>
      <point x="381" y="542"/>
      <point x="378" y="551" type="curve" smooth="yes"/>
      <point x="344" y="651" type="line" smooth="yes"/>
      <point x="340" y="662"/>
      <point x="328" y="667"/>
      <point x="318" y="660" type="curve" smooth="yes"/>
      <point x="256" y="615" type="line"/>
      <point x="264" y="708" type="line" smooth="yes"/>
      <point x="265" y="716"/>
      <point x="260" y="721"/>
      <point x="253" y="721" type="curve" smooth="yes"/>
      <point x="153" y="721" type="line" smooth="yes"/>
      <point x="146" y="721"/>
      <point x="141" y="716"/>
      <point x="142" y="708" type="curve" smooth="yes"/>
      <point x="150" y="616" type="line"/>
      <point x="88" y="661" type="line" smooth="yes"/>
      <point x="78" y="668"/>
      <point x="65" y="664"/>
      <point x="62" y="652" type="curve" smooth="yes"/>
      <point x="28" y="551" type="line" smooth="yes"/>
      <point x="25" y="541"/>
      <point x="32" y="531"/>
      <point x="43" y="529" type="curve" smooth="yes"/>
      <point x="118" y="522" type="line"/>
      <point x="63" y="478" type="line" smooth="yes"/>
      <point x="54" y="471"/>
      <point x="55" y="459"/>
      <point x="63" y="452" type="curve" smooth="yes"/>
    </contour>
  </outline>
</glyph>
<glyph name="plus" format="2">
  <advance width="600"/>
  <unicode hex="002B"/>
  <outline>
    <contour>
      <point x="244" y="92" type="curve" smooth="yes"/>
      <point x="356" y="92" type="line" smooth="yes"/>
      <point x="366" y="92"/>
      <point x="371" y="97"/>
      <point x="371" y="107" type="curve" smooth="yes"/>
      <point x="371" y="229" type="line"/>
      <point x="503" y="229" type="line" smooth="yes"/>
      <point x="513" y="229"/>
      <point x="518" y="234"/>
      <point x="518" y="244" type="curve" smooth="yes"/>
      <point x="518" y="356" type="line" smooth="yes"/>
      <point x="518" y="366"/>
      <point x="513" y="371"/>
      <point x="503" y="371" type="curve" smooth="yes"/>
      <point x="371" y="371" type="line"/>
      <point x="371" y="493" type="line" smooth="yes"/>
      <point x="371" y="503"/>
      <point x="366" y="508"/>
      <point x="356" y="508" type="curve" smooth="yes"/>
      <point x="244" y="508" type="line" smooth="yes"/>
      <point x="234" y="508"/>
      <point x="229" y="503"/>
      <point x="229" y="493" type="curve" smooth="yes"/>
      <point x="229" y="371" type="line"/>
      <point x="97" y="371" type="line" smooth="yes"/>
      <point x="87" y="371"/>
      <point x="82" y="366"/>
      <point x="82" y="356" type="curve" smooth="yes"/>
      <point x="82" y="244" type="line" smooth="yes"/>
      <point x="82" y="234"/>
      <point x="87" y="229"/>
      <point x="97" y="229" type="curve" smooth="yes"/>
      <point x="229" y="229" type="line"/>
      <point x="229" y="107" type="line" smooth="yes"/>
      <point x="229" y="97"/>
      <point x="234" y="92"/>
    </contour>
  </outline>
</glyph>
<glyph name="comma" format="2">
  <advance width="323"/>
  <unicode hex="002C"/>
  <outline>
    <contour>
      <point x="33" y="-161" type="curve" smooth="yes"/>
      <point x="165" y="-161" type="line" smooth="yes"/>
      <point x="174" y="-161"/>
      <point x="181" y="-156"/>
      <point x="183" y="-148" type="curve" smooth="yes"/>
      <point x="284" y="182" type="line" smooth="yes"/>
      <point x="288" y="194"/>
      <point x="282" y="201"/>
      <point x="271" y="201" type="curve" smooth="yes"/>
      <point x="90" y="201" type="line" smooth="yes"/>
      <point x="81" y="201"/>
      <point x="75" y="196"/>
      <point x="74" y="187" type="curve" smooth="yes"/>
      <point x="20" y="-145" type="line" smooth="yes"/>
      <point x="18" y="-156"/>
      <point x="23" y="-161"/>
    </contour>
  </outline>
</glyph>
<glyph name="hyphen" format="2">
  <advance width="477"/>
  <unicode hex="002D"/>
  <outline>
    <contour>
      <point x="55" y="198" type="curve" smooth="yes"/>
      <point x="422" y="198" type="line" smooth="yes"/>
      <point x="431" y="198"/>
      <point x="437" y="204"/>
      <point x="437" y="213" type="curve" smooth="yes"/>
      <point x="437" y="321" type="line" smooth="yes"/>
      <point x="437" y="330"/>
      <point x="431" y="336"/>
      <point x="422" y="336" type="curve" smooth="yes"/>
      <point x="55" y="336" type="line" smooth="yes"/>
      <point x="46" y="336"/>
      <point x="40" y="330"/>
      <point x="40" y="321" type="curve" smooth="yes"/>
      <point x="40" y="213" type="line" smooth="yes"/>
      <point x="40" y="204"/>
      <point x="46" y="198"/>
    </contour>
  </outline>
</glyph>
<glyph name="period" format="2">
  <advance width="324"/>
  <unicode hex="002E"/>
  <outline>
    <contour>
      <point x="162" y="-12" type="curve" smooth="yes"/>
      <point x="237" y="-12"/>
      <point x="278" y="26"/>
      <point x="278" y="87" type="curve" smooth="yes"/>
      <point x="278" y="117" type="line" smooth="yes"/>
      <point x="278" y="181"/>
      <point x="237" y="216"/>
      <point x="162" y="216" type="curve" smooth="yes"/>
      <point x="90" y="216"/>
      <point x="46" y="181"/>
      <point x="46" y="117" type="curve" smooth="yes"/>
      <point x="46" y="87" type="line" smooth="yes"/>
      <point x="46" y="26"/>
      <point x="90" y="-12"/>
    </contour>
  </outline>
</glyph>
<glyph name="slash" format="2">
  <advance width="433"/>
  <unicode hex="002F"/>
  <outline>
    <contour>
      <point x="19" y="0" type="curve" smooth="yes"/>
      <point x="149" y="0" type="line" smooth="yes"/>
      <point x="157" y="0"/>
      <point x="164" y="4"/>
      <point x="167" y="12" type="curve" smooth="yes"/>
      <point x="426" y="638" type="line" smooth="yes"/>
      <point x="430" y="649"/>
      <point x="425" y="655"/>
      <point x="414" y="655" type="curve" smooth="yes"/>
      <point x="284" y="655" type="line" smooth="yes"/>
      <point x="276" y="655"/>
      <point x="269" y="651"/>
      <point x="266" y="643" type="curve" smooth="yes"/>
      <point x="7" y="17" type="line" smooth="yes"/>
      <point x="3" y="6"/>
      <point x="8" y="0"/>
    </contour>
  </outline>
</glyph>
<glyph name="zero" format="2">
  <advance width="620"/>
  <unicode hex="0030"/>
  <outline>
    <contour>
      <point x="310" y="-12" type="curve" smooth="yes"/>
      <point x="488" y="-12"/>
      <point x="580" y="78"/>
      <point x="580" y="246" type="curve" smooth="yes"/>
      <point x="580" y="409" type="line" smooth="yes"/>
      <point x="580" y="577"/>
      <point x="488" y="667"/>
      <point x="310" y="667" type="curve" smooth="yes"/>
      <point x="132" y="667"/>
      <point x="40" y="577"/>
      <point x="40" y="409" type="curve" smooth="yes"/>
      <point x="40" y="246" type="line" smooth="yes"/>
      <point x="40" y="78"/>
      <point x="132" y="-12"/>
    </contour>
    <contour>
      <point x="310" y="144" type="curve" smooth="yes"/>
      <point x="251" y="144"/>
      <point x="222" y="179"/>
      <point x="222" y="252" type="curve" smooth="yes"/>
      <point x="222" y="403" type="line" smooth="yes"/>
      <point x="222" y="476"/>
      <point x="251" y="511"/>
      <point x="310" y="511" type="curve" smooth="yes"/>
      <point x="369" y="511"/>
      <point x="398" y="476"/>
      <point x="398" y="403" type="curve" smooth="yes"/>
      <point x="398" y="252" type="line" smooth="yes"/>
      <point x="398" y="179"/>
      <point x="369" y="144"/>
    </contour>
  </outline>
</glyph>
<glyph name="one" format="2">
  <advance width="529"/>
  <unicode hex="0031"/>
  <outline>
    <contour>
      <point x="45" y="0" type="curve" smooth="yes"/>
      <point x="504" y="0" type="line" smooth="yes"/>
      <point x="513" y="0"/>
      <point x="519" y="6"/>
      <point x="519" y="15" type="curve" smooth="yes"/>
      <point x="519" y="138" type="line" smooth="yes"/>
      <point x="519" y="147"/>
      <point x="513" y="153"/>
      <point x="504" y="153" type="curve" smooth="yes"/>
      <point x="370" y="153" type="line"/>
      <point x="370" y="646" type="line" smooth="yes"/>
      <point x="370" y="655"/>
      <point x="364" y="661"/>
      <point x="355" y="661" type="curve" smooth="yes"/>
      <point x="314" y="661" type="line" smooth="yes"/>
      <point x="308" y="661"/>
      <point x="300" y="659"/>
      <point x="294" y="657" type="curve" smooth="yes"/>
      <point x="50" y="582" type="line" smooth="yes"/>
      <point x="42" y="579"/>
      <point x="37" y="573"/>
      <point x="37" y="563" type="curve" smooth="yes"/>
      <point x="37" y="445" type="line" smooth="yes"/>
      <point x="37" y="434"/>
      <point x="44" y="430"/>
      <point x="54" y="433" type="curve" smooth="yes"/>
      <point x="189" y="475" type="line"/>
      <point x="189" y="153" type="line"/>
      <point x="45" y="153" type="line" smooth="yes"/>
      <point x="36" y="153"/>
      <point x="30" y="147"/>
      <point x="30" y="138" type="curve" smooth="yes"/>
      <point x="30" y="15" type="line" smooth="yes"/>
      <point x="30" y="6"/>
      <point x="36" y="0"/>
    </contour>
  </outline>
</glyph>
<glyph name="two" format="2">
  <advance width="572"/>
  <unicode hex="0032"/>
  <guideline x="535" y="259" angle="90"/>
  <guideline x="35" y="194" angle="90"/>
  <outline>
    <contour>
      <point x="50" y="0" type="curve" smooth="yes"/>
      <point x="517" y="0" type="line" smooth="yes"/>
      <point x="526" y="0"/>
      <point x="532" y="6"/>
      <point x="532" y="15" type="curve" smooth="yes"/>
      <point x="532" y="138" type="line" smooth="yes"/>
      <point x="532" y="147"/>
      <point x="526" y="153"/>
      <point x="517" y="153" type="curve" smooth="yes"/>
      <point x="239" y="153" type="line"/>
      <point x="239" y="246"/>
      <point x="535" y="272"/>
      <point x="535" y="479" type="curve" smooth="yes"/>
      <point x="535" y="609"/>
      <point x="453" y="667"/>
      <point x="296" y="667" type="curve" smooth="yes"/>
      <point x="146" y="667"/>
      <point x="42" y="603"/>
      <point x="52" y="466" type="curve" smooth="yes"/>
      <point x="53" y="457"/>
      <point x="58" y="451"/>
      <point x="67" y="451" type="curve" smooth="yes"/>
      <point x="206" y="451" type="line" smooth="yes"/>
      <point x="215" y="451"/>
      <point x="221" y="457"/>
      <point x="221" y="466" type="curve" smooth="yes"/>
      <point x="220" y="499"/>
      <point x="241" y="516"/>
      <point x="288" y="516" type="curve" smooth="yes"/>
      <point x="336" y="516"/>
      <point x="353" y="503"/>
      <point x="353" y="475" type="curve" smooth="yes"/>
      <point x="353" y="462" type="line" smooth="yes"/>
      <point x="353" y="367"/>
      <point x="35" y="327"/>
      <point x="35" y="113" type="curve" smooth="yes"/>
      <point x="35" y="15" type="line" smooth="yes"/>
      <point x="35" y="6"/>
      <point x="41" y="0"/>
    </contour>
  </outline>
</glyph>
<glyph name="three" format="2">
  <advance width="589"/>
  <unicode hex="0033"/>
  <guideline x="551" y="457" angle="90"/>
  <outline>
    <contour>
      <point x="286" y="-12" type="curve" smooth="yes"/>
      <point x="458" y="-12"/>
      <point x="549" y="57"/>
      <point x="549" y="189" type="curve" smooth="yes"/>
      <point x="549" y="265"/>
      <point x="510" y="321"/>
      <point x="442" y="337" type="curve"/>
      <point x="442" y="340" type="line"/>
      <point x="504" y="364"/>
      <point x="536" y="417"/>
      <point x="536" y="493" type="curve" smooth="yes"/>
      <point x="536" y="603"/>
      <point x="463" y="667"/>
      <point x="295" y="667" type="curve" smooth="yes"/>
      <point x="127" y="667"/>
      <point x="41" y="597"/>
      <point x="41" y="470" type="curve" smooth="yes"/>
      <point x="41" y="461"/>
      <point x="47" y="455"/>
      <point x="56" y="455" type="curve" smooth="yes"/>
      <point x="195" y="455" type="line" smooth="yes"/>
      <point x="204" y="455"/>
      <point x="210" y="461"/>
      <point x="210" y="470" type="curve" smooth="yes"/>
      <point x="210" y="501"/>
      <point x="232" y="518"/>
      <point x="284" y="518" type="curve" smooth="yes"/>
      <point x="333" y="518"/>
      <point x="354" y="501"/>
      <point x="354" y="467" type="curve" smooth="yes"/>
      <point x="354" y="452" type="line" smooth="yes"/>
      <point x="354" y="416"/>
      <point x="334" y="401"/>
      <point x="274" y="401" type="curve" smooth="yes"/>
      <point x="227" y="401" type="line" smooth="yes"/>
      <point x="218" y="401"/>
      <point x="212" y="395"/>
      <point x="212" y="386" type="curve" smooth="yes"/>
      <point x="212" y="275" type="line" smooth="yes"/>
      <point x="212" y="266"/>
      <point x="218" y="260"/>
      <point x="227" y="260" type="curve" smooth="yes"/>
      <point x="297" y="260" type="line" smooth="yes"/>
      <point x="344" y="260"/>
      <point x="367" y="244"/>
      <point x="367" y="207" type="curve" smooth="yes"/>
      <point x="367" y="196" type="line" smooth="yes"/>
      <point x="367" y="159"/>
      <point x="343" y="141"/>
      <point x="296" y="141" type="curve" smooth="yes"/>
      <point x="239" y="141"/>
      <point x="209" y="147"/>
      <point x="209" y="195" type="curve" smooth="yes"/>
      <point x="209" y="204"/>
      <point x="203" y="208"/>
      <point x="194" y="208" type="curve" smooth="yes"/>
      <point x="54" y="208" type="line" smooth="yes"/>
      <point x="45" y="208"/>
      <point x="40" y="202"/>
      <point x="39" y="193" type="curve" smooth="yes"/>
      <point x="26" y="74"/>
      <point x="97" y="-12"/>
    </contour>
  </outline>
</glyph>
<glyph name="four" format="2">
  <advance width="623"/>
  <unicode hex="0034"/>
  <outline>
    <contour>
      <point x="364" y="0" type="curve" smooth="yes"/>
      <point x="521" y="0" type="line" smooth="yes"/>
      <point x="530" y="0"/>
      <point x="536" y="6"/>
      <point x="536" y="15" type="curve" smooth="yes"/>
      <point x="536" y="100" type="line"/>
      <point x="588" y="100" type="line" smooth="yes"/>
      <point x="597" y="100"/>
      <point x="603" y="106"/>
      <point x="603" y="115" type="curve" smooth="yes"/>
      <point x="603" y="238" type="line" smooth="yes"/>
      <point x="603" y="247"/>
      <point x="597" y="253"/>
      <point x="588" y="253" type="curve" smooth="yes"/>
      <point x="536" y="253" type="line"/>
      <point x="536" y="423" type="line" smooth="yes"/>
      <point x="536" y="432"/>
      <point x="530" y="438"/>
      <point x="521" y="438" type="curve" smooth="yes"/>
      <point x="391" y="438" type="line" smooth="yes"/>
      <point x="382" y="438"/>
      <point x="377" y="432"/>
      <point x="376" y="423" type="curve" smooth="yes"/>
      <point x="354" y="253" type="line"/>
      <point x="254" y="253" type="line"/>
      <point x="432" y="637" type="line" smooth="yes"/>
      <point x="437" y="648"/>
      <point x="432" y="655"/>
      <point x="421" y="655" type="curve" smooth="yes"/>
      <point x="258" y="655" type="line" smooth="yes"/>
      <point x="250" y="655"/>
      <point x="244" y="652"/>
      <point x="240" y="644" type="curve" smooth="yes"/>
      <point x="11" y="171" type="line" smooth="yes"/>
      <point x="7" y="163"/>
      <point x="6" y="157"/>
      <point x="6" y="149" type="curve" smooth="yes"/>
      <point x="6" y="115" type="line" smooth="yes"/>
      <point x="6" y="106"/>
      <point x="12" y="100"/>
      <point x="21" y="100" type="curve" smooth="yes"/>
      <point x="349" y="100" type="line"/>
      <point x="349" y="15" type="line" smooth="yes"/>
      <point x="349" y="6"/>
      <point x="355" y="0"/>
    </contour>
  </outline>
</glyph>
<glyph name="five" format="2">
  <advance width="580"/>
  <unicode hex="0035"/>
  <outline>
    <contour>
      <point x="273" y="-12" type="curve" smooth="yes"/>
      <point x="456" y="-12"/>
      <point x="545" y="54"/>
      <point x="545" y="218" type="curve" smooth="yes"/>
      <point x="545" y="365"/>
      <point x="479" y="429"/>
      <point x="344" y="429" type="curve" smooth="yes"/>
      <point x="298" y="429"/>
      <point x="263" y="422"/>
      <point x="219" y="412" type="curve"/>
      <point x="227" y="502" type="line"/>
      <point x="482" y="502" type="line" smooth="yes"/>
      <point x="491" y="502"/>
      <point x="497" y="508"/>
      <point x="497" y="517" type="curve" smooth="yes"/>
      <point x="497" y="640" type="line" smooth="yes"/>
      <point x="497" y="649"/>
      <point x="491" y="655"/>
      <point x="482" y="655" type="curve" smooth="yes"/>
      <point x="92" y="655" type="line" smooth="yes"/>
      <point x="83" y="655"/>
      <point x="78" y="649"/>
      <point x="77" y="640" type="curve" smooth="yes"/>
      <point x="45" y="276" type="line" smooth="yes"/>
      <point x="43" y="258"/>
      <point x="50" y="254"/>
      <point x="72" y="259" type="curve" smooth="yes"/>
      <point x="130" y="272"/>
      <point x="206" y="287"/>
      <point x="273" y="287" type="curve" smooth="yes"/>
      <point x="338" y="287"/>
      <point x="363" y="260"/>
      <point x="363" y="221" type="curve" smooth="yes"/>
      <point x="363" y="209" type="line" smooth="yes"/>
      <point x="363" y="163"/>
      <point x="340" y="142"/>
      <point x="276" y="142" type="curve" smooth="yes"/>
      <point x="219" y="142"/>
      <point x="198" y="167"/>
      <point x="198" y="189" type="curve" smooth="yes"/>
      <point x="198" y="198"/>
      <point x="192" y="204"/>
      <point x="183" y="204" type="curve" smooth="yes"/>
      <point x="42" y="204" type="line" smooth="yes"/>
      <point x="33" y="204"/>
      <point x="28" y="198"/>
      <point x="27" y="189" type="curve" smooth="yes"/>
      <point x="12" y="78"/>
      <point x="95" y="-12"/>
    </contour>
  </outline>
</glyph>
<glyph name="six" format="2">
  <advance width="618"/>
  <unicode hex="0036"/>
  <outline>
    <contour>
      <point x="311" y="-12" type="curve" smooth="yes"/>
      <point x="493" y="-12"/>
      <point x="582" y="68"/>
      <point x="582" y="229" type="curve" smooth="yes"/>
      <point x="582" y="357"/>
      <point x="522" y="425"/>
      <point x="390" y="425" type="curve" smooth="yes"/>
      <point x="319" y="425"/>
      <point x="254" y="397"/>
      <point x="205" y="361" type="curve"/>
      <point x="204" y="240" type="line"/>
      <point x="242" y="269"/>
      <point x="282" y="286"/>
      <point x="323" y="286" type="curve" smooth="yes"/>
      <point x="372" y="286"/>
      <point x="400" y="272"/>
      <point x="400" y="225" type="curve" smooth="yes"/>
      <point x="400" y="211" type="line" smooth="yes"/>
      <point x="400" y="160"/>
      <point x="369" y="134"/>
      <point x="309" y="134" type="curve" smooth="yes"/>
      <point x="242" y="134"/>
      <point x="224" y="172"/>
      <point x="224" y="223" type="curve" smooth="yes"/>
      <point x="224" y="424" type="line" smooth="yes"/>
      <point x="224" y="500"/>
      <point x="254" y="521"/>
      <point x="313" y="521" type="curve" smooth="yes"/>
      <point x="362" y="521"/>
      <point x="389" y="512"/>
      <point x="389" y="488" type="curve" smooth="yes"/>
      <point x="389" y="479"/>
      <point x="395" y="473"/>
      <point x="404" y="473" type="curve" smooth="yes"/>
      <point x="543" y="473" type="line" smooth="yes"/>
      <point x="552" y="473"/>
      <point x="558" y="479"/>
      <point x="558" y="488" type="curve" smooth="yes"/>
      <point x="558" y="621"/>
      <point x="455" y="667"/>
      <point x="311" y="667" type="curve" smooth="yes"/>
      <point x="133" y="667"/>
      <point x="42" y="577"/>
      <point x="42" y="409" type="curve" smooth="yes"/>
      <point x="42" y="243" type="line" smooth="yes"/>
      <point x="42" y="64"/>
      <point x="123" y="-12"/>
    </contour>
  </outline>
</glyph>
<glyph name="seven" format="2">
  <advance width="584"/>
  <unicode hex="0037"/>
  <outline>
    <contour>
      <point x="136" y="0" type="curve" smooth="yes"/>
      <point x="305" y="0" type="line" smooth="yes"/>
      <point x="313" y="0"/>
      <point x="319" y="4"/>
      <point x="322" y="11" type="curve" smooth="yes"/>
      <point x="585" y="613" type="line" smooth="yes"/>
      <point x="588" y="620"/>
      <point x="589" y="626"/>
      <point x="589" y="633" type="curve" smooth="yes"/>
      <point x="589" y="640" type="line" smooth="yes"/>
      <point x="589" y="649"/>
      <point x="583" y="655"/>
      <point x="574" y="655" type="curve" smooth="yes"/>
      <point x="45" y="655" type="line" smooth="yes"/>
      <point x="36" y="655"/>
      <point x="30" y="649"/>
      <point x="30" y="640" type="curve" smooth="yes"/>
      <point x="30" y="455" type="line" smooth="yes"/>
      <point x="30" y="446"/>
      <point x="36" y="440"/>
      <point x="45" y="440" type="curve" smooth="yes"/>
      <point x="192" y="440" type="line" smooth="yes"/>
      <point x="201" y="440"/>
      <point x="207" y="446"/>
      <point x="207" y="455" type="curve" smooth="yes"/>
      <point x="207" y="506" type="line"/>
      <point x="342" y="506" type="line"/>
      <point x="125" y="20" type="line" smooth="yes"/>
      <point x="121" y="10"/>
      <point x="125" y="0"/>
    </contour>
  </outline>
</glyph>
<glyph name="eight" format="2">
  <advance width="616"/>
  <unicode hex="0038"/>
  <outline>
    <contour>
      <point x="308" y="-12" type="curve" smooth="yes"/>
      <point x="491" y="-12"/>
      <point x="586" y="53"/>
      <point x="586" y="180" type="curve" smooth="yes"/>
      <point x="586" y="262"/>
      <point x="545" y="320"/>
      <point x="467" y="349" type="curve"/>
      <point x="522" y="370"/>
      <point x="554" y="429"/>
      <point x="554" y="498" type="curve" smooth="yes"/>
      <point x="554" y="607"/>
      <point x="471" y="667"/>
      <point x="308" y="667" type="curve" smooth="yes"/>
      <point x="145" y="667"/>
      <point x="62" y="607"/>
      <point x="62" y="498" type="curve" smooth="yes"/>
      <point x="62" y="429"/>
      <point x="94" y="370"/>
      <point x="149" y="349" type="curve"/>
      <point x="71" y="320"/>
      <point x="30" y="262"/>
      <point x="30" y="180" type="curve" smooth="yes"/>
      <point x="30" y="53"/>
      <point x="125" y="-12"/>
    </contour>
    <contour>
      <point x="308" y="133" type="curve" smooth="yes"/>
      <point x="245" y="133"/>
      <point x="212" y="156"/>
      <point x="212" y="200" type="curve" smooth="yes"/>
      <point x="212" y="212" type="line" smooth="yes"/>
      <point x="212" y="256"/>
      <point x="245" y="279"/>
      <point x="308" y="279" type="curve" smooth="yes"/>
      <point x="371" y="279"/>
      <point x="404" y="256"/>
      <point x="404" y="212" type="curve" smooth="yes"/>
      <point x="404" y="200" type="line" smooth="yes"/>
      <point x="404" y="156"/>
      <point x="371" y="133"/>
    </contour>
    <contour>
      <point x="308" y="404" type="curve" smooth="yes"/>
      <point x="263" y="404"/>
      <point x="237" y="424"/>
      <point x="237" y="460" type="curve" smooth="yes"/>
      <point x="237" y="475" type="line" smooth="yes"/>
      <point x="237" y="511"/>
      <point x="263" y="531"/>
      <point x="308" y="531" type="curve" smooth="yes"/>
      <point x="353" y="531"/>
      <point x="379" y="511"/>
      <point x="379" y="475" type="curve" smooth="yes"/>
      <point x="379" y="460" type="line" smooth="yes"/>
      <point x="379" y="424"/>
      <point x="353" y="404"/>
    </contour>
  </outline>
</glyph>
<glyph name="nine" format="2">
  <advance width="624"/>
  <unicode hex="0039"/>
  <outline>
    <contour>
      <point x="313" y="-12" type="curve" smooth="yes"/>
      <point x="491" y="-12"/>
      <point x="582" y="78"/>
      <point x="582" y="246" type="curve" smooth="yes"/>
      <point x="582" y="407" type="line" smooth="yes"/>
      <point x="582" y="591"/>
      <point x="502" y="667"/>
      <point x="313" y="667" type="curve" smooth="yes"/>
      <point x="130" y="667"/>
      <point x="42" y="596"/>
      <point x="42" y="435" type="curve" smooth="yes"/>
      <point x="42" y="307"/>
      <point x="98" y="230"/>
      <point x="233" y="230" type="curve" smooth="yes"/>
      <point x="304" y="230"/>
      <point x="370" y="261"/>
      <point x="419" y="297" type="curve"/>
      <point x="420" y="415" type="line"/>
      <point x="382" y="386"/>
      <point x="345" y="369"/>
      <point x="304" y="369" type="curve" smooth="yes"/>
      <point x="259" y="369"/>
      <point x="224" y="392"/>
      <point x="224" y="432" type="curve" smooth="yes"/>
      <point x="224" y="450" type="line" smooth="yes"/>
      <point x="224" y="497"/>
      <point x="248" y="524"/>
      <point x="309" y="524" type="curve" smooth="yes"/>
      <point x="378" y="524"/>
      <point x="400" y="489"/>
      <point x="400" y="435" type="curve" smooth="yes"/>
      <point x="400" y="231" type="line" smooth="yes"/>
      <point x="400" y="159"/>
      <point x="368" y="134"/>
      <point x="310" y="134" type="curve" smooth="yes"/>
      <point x="254" y="134"/>
      <point x="228" y="147"/>
      <point x="228" y="171" type="curve" smooth="yes"/>
      <point x="228" y="180"/>
      <point x="222" y="186"/>
      <point x="213" y="186" type="curve" smooth="yes"/>
      <point x="74" y="186" type="line" smooth="yes"/>
      <point x="65" y="186"/>
      <point x="59" y="180"/>
      <point x="59" y="171" type="curve" smooth="yes"/>
      <point x="59" y="47"/>
      <point x="153" y="-12"/>
    </contour>
  </outline>
</glyph>
<glyph name="colon" format="2">
  <advance width="312"/>
  <unicode hex="003A"/>
  <outline>
    <contour>
      <point x="156" y="280" type="curve" smooth="yes"/>
      <point x="227" y="280"/>
      <point x="266" y="317"/>
      <point x="266" y="374" type="curve" smooth="yes"/>
      <point x="266" y="404" type="line" smooth="yes"/>
      <point x="266" y="463"/>
      <point x="227" y="498"/>
      <point x="156" y="498" type="curve" smooth="yes"/>
      <point x="87" y="498"/>
      <point x="46" y="463"/>
      <point x="46" y="404" type="curve" smooth="yes"/>
      <point x="46" y="374" type="line" smooth="yes"/>
      <point x="46" y="317"/>
      <point x="87" y="280"/>
    </contour>
    <contour>
      <point x="156" y="-12" type="curve" smooth="yes"/>
      <point x="227" y="-12"/>
      <point x="266" y="25"/>
      <point x="266" y="82" type="curve" smooth="yes"/>
      <point x="266" y="112" type="line" smooth="yes"/>
      <point x="266" y="171"/>
      <point x="227" y="206"/>
      <point x="156" y="206" type="curve" smooth="yes"/>
      <point x="87" y="206"/>
      <point x="46" y="171"/>
      <point x="46" y="112" type="curve" smooth="yes"/>
      <point x="46" y="82" type="line" smooth="yes"/>
      <point x="46" y="25"/>
      <point x="87" y="-12"/>
    </contour>
  </outline>
</glyph>
<glyph name="semicolon" format="2">
  <advance width="332"/>
  <unicode hex="003B"/>
  <outline>
    <contour>
      <point x="33" y="-161" type="curve" smooth="yes"/>
      <point x="166" y="-161" type="line" smooth="yes"/>
      <point x="174" y="-161"/>
      <point x="181" y="-156"/>
      <point x="183" y="-148" type="curve" smooth="yes"/>
      <point x="285" y="184" type="line" smooth="yes"/>
      <point x="288" y="195"/>
      <point x="282" y="201"/>
      <point x="272" y="201" type="curve" smooth="yes"/>
      <point x="90" y="201" type="line" smooth="yes"/>
      <point x="81" y="201"/>
      <point x="75" y="196"/>
      <point x="74" y="187" type="curve" smooth="yes"/>
      <point x="20" y="-145" type="line" smooth="yes"/>
      <point x="18" y="-156"/>
      <point x="23" y="-161"/>
    </contour>
    <contour>
      <point x="172" y="280" type="curve" smooth="yes"/>
      <point x="243" y="280"/>
      <point x="282" y="317"/>
      <point x="282" y="374" type="curve" smooth="yes"/>
      <point x="282" y="404" type="line" smooth="yes"/>
      <point x="282" y="463"/>
      <point x="243" y="498"/>
      <point x="172" y="498" type="curve" smooth="yes"/>
      <point x="103" y="498"/>
      <point x="62" y="463"/>
      <point x="62" y="404" type="curve" smooth="yes"/>
      <point x="62" y="374" type="line" smooth="yes"/>
      <point x="62" y="317"/>
      <point x="103" y="280"/>
    </contour>
  </outline>
</glyph>
<glyph name="less" format="2">
  <advance width="600"/>
  <unicode hex="003C"/>
  <outline>
    <contour>
      <point x="499" y="64" type="line" smooth="yes"/>
      <point x="510" y="59"/>
      <point x="516" y="65"/>
      <point x="516" y="76" type="curve" smooth="yes"/>
      <point x="516" y="209" type="line" smooth="yes"/>
      <point x="516" y="217"/>
      <point x="512" y="223"/>
      <point x="504" y="226" type="curve" smooth="yes"/>
      <point x="283" y="298" type="line"/>
      <point x="504" y="369" type="line" smooth="yes"/>
      <point x="512" y="372"/>
      <point x="516" y="378"/>
      <point x="516" y="386" type="curve" smooth="yes"/>
      <point x="516" y="519" type="line" smooth="yes"/>
      <point x="516" y="530"/>
      <point x="510" y="536"/>
      <point x="499" y="531" type="curve" smooth="yes"/>
      <point x="96" y="361" type="line" smooth="yes"/>
      <point x="88" y="358"/>
      <point x="84" y="351"/>
      <point x="84" y="343" type="curve" smooth="yes"/>
      <point x="84" y="253" type="line" smooth="yes"/>
      <point x="84" y="245"/>
      <point x="88" y="238"/>
      <point x="96" y="235" type="curve" smooth="yes"/>
    </contour>
  </outline>
</glyph>
<glyph name="equal" format="2">
  <advance width="600"/>
  <unicode hex="003D"/>
  <outline>
    <contour>
      <point x="92" y="324" type="curve" smooth="yes"/>
      <point x="508" y="324" type="line" smooth="yes"/>
      <point x="517" y="324"/>
      <point x="523" y="330"/>
      <point x="523" y="339" type="curve" smooth="yes"/>
      <point x="523" y="451" type="line" smooth="yes"/>
      <point x="523" y="460"/>
      <point x="517" y="466"/>
      <point x="508" y="466" type="curve" smooth="yes"/>
      <point x="92" y="466" type="line" smooth="yes"/>
      <point x="83" y="466"/>
      <point x="77" y="460"/>
      <point x="77" y="451" type="curve" smooth="yes"/>
      <point x="77" y="339" type="line" smooth="yes"/>
      <point x="77" y="330"/>
      <point x="83" y="324"/>
    </contour>
    <contour>
      <point x="92" y="138" type="curve" smooth="yes"/>
      <point x="508" y="138" type="line" smooth="yes"/>
      <point x="517" y="138"/>
      <point x="523" y="144"/>
      <point x="523" y="153" type="curve" smooth="yes"/>
      <point x="523" y="265" type="line" smooth="yes"/>
      <point x="523" y="274"/>
      <point x="517" y="280"/>
      <point x="508" y="280" type="curve" smooth="yes"/>
      <point x="92" y="280" type="line" smooth="yes"/>
      <point x="83" y="280"/>
      <point x="77" y="274"/>
      <point x="77" y="265" type="curve" smooth="yes"/>
      <point x="77" y="153" type="line" smooth="yes"/>
      <point x="77" y="144"/>
      <point x="83" y="138"/>
    </contour>
  </outline>
</glyph>
<glyph name="greater" format="2">
  <advance width="600"/>
  <unicode hex="003E"/>
  <outline>
    <contour>
      <point x="101" y="64" type="curve" smooth="yes"/>
      <point x="504" y="235" type="line" smooth="yes"/>
      <point x="512" y="238"/>
      <point x="516" y="245"/>
      <point x="516" y="253" type="curve" smooth="yes"/>
      <point x="516" y="343" type="line" smooth="yes"/>
      <point x="516" y="351"/>
      <point x="512" y="358"/>
      <point x="504" y="361" type="curve" smooth="yes"/>
      <point x="101" y="531" type="line" smooth="yes"/>
      <point x="90" y="536"/>
      <point x="84" y="530"/>
      <point x="84" y="519" type="curve" smooth="yes"/>
      <point x="84" y="386" type="line" smooth="yes"/>
      <point x="84" y="378"/>
      <point x="88" y="372"/>
      <point x="96" y="369" type="curve" smooth="yes"/>
      <point x="317" y="298" type="line"/>
      <point x="96" y="226" type="line" smooth="yes"/>
      <point x="88" y="223"/>
      <point x="84" y="217"/>
      <point x="84" y="209" type="curve" smooth="yes"/>
      <point x="84" y="76" type="line" smooth="yes"/>
      <point x="84" y="65"/>
      <point x="90" y="59"/>
    </contour>
  </outline>
</glyph>
<glyph name="question" format="2">
  <advance width="528"/>
  <unicode hex="003F"/>
  <outline>
    <contour>
      <point x="165" y="242" type="curve" smooth="yes"/>
      <point x="322" y="242" type="line" smooth="yes"/>
      <point x="331" y="242"/>
      <point x="335" y="246"/>
      <point x="335" y="255" type="curve" smooth="yes"/>
      <point x="335" y="270" type="line" smooth="yes"/>
      <point x="335" y="345"/>
      <point x="496" y="349"/>
      <point x="496" y="513" type="curve" smooth="yes"/>
      <point x="496" y="617"/>
      <point x="422" y="667"/>
      <point x="261" y="667" type="curve" smooth="yes"/>
      <point x="97" y="667"/>
      <point x="28" y="600"/>
      <point x="36" y="468" type="curve" smooth="yes"/>
      <point x="37" y="454"/>
      <point x="40" y="448"/>
      <point x="53" y="448" type="curve" smooth="yes"/>
      <point x="189" y="448" type="line" smooth="yes"/>
      <point x="199" y="448"/>
      <point x="204" y="452"/>
      <point x="203" y="465" type="curve" smooth="yes"/>
      <point x="200" y="499"/>
      <point x="210" y="520"/>
      <point x="258" y="520" type="curve" smooth="yes"/>
      <point x="298" y="520"/>
      <point x="314" y="508"/>
      <point x="314" y="485" type="curve" smooth="yes"/>
      <point x="314" y="428"/>
      <point x="153" y="411"/>
      <point x="153" y="295" type="curve" smooth="yes"/>
      <point x="153" y="255" type="line" smooth="yes"/>
      <point x="153" y="246"/>
      <point x="156" y="242"/>
    </contour>
    <contour>
      <point x="250" y="-12" type="curve" smooth="yes"/>
      <point x="318" y="-12"/>
      <point x="356" y="16"/>
      <point x="356" y="77" type="curve" smooth="yes"/>
      <point x="356" y="104" type="line" smooth="yes"/>
      <point x="356" y="167"/>
      <point x="318" y="194"/>
      <point x="250" y="194" type="curve" smooth="yes"/>
      <point x="184" y="194"/>
      <point x="144" y="167"/>
      <point x="144" y="104" type="curve" smooth="yes"/>
      <point x="144" y="77" type="line" smooth="yes"/>
      <point x="144" y="16"/>
      <point x="184" y="-12"/>
    </contour>
  </outline>
</glyph>
<glyph name="at" format="2">
  <advance width="982"/>
  <unicode hex="0040"/>
  <outline>
    <contour>
      <point x="489" y="-185" type="curve" smooth="yes"/>
      <point x="648" y="-185" type="line" smooth="yes"/>
      <point x="657" y="-185"/>
      <point x="663" y="-179"/>
      <point x="663" y="-170" type="curve" smooth="yes"/>
      <point x="663" y="-60" type="line" smooth="yes"/>
      <point x="663" y="-51"/>
      <point x="657" y="-45"/>
      <point x="648" y="-45" type="curve" smooth="yes"/>
      <point x="509" y="-45" type="line" smooth="yes"/>
      <point x="264.778" y="-45"/>
      <point x="190" y="16.182"/>
      <point x="190" y="216" type="curve" smooth="yes"/>
      <point x="190" y="255" type="line" smooth="yes"/>
      <point x="190" y="458"/>
      <point x="291" y="559"/>
      <point x="494" y="559" type="curve" smooth="yes"/>
      <point x="690.948" y="559"/>
      <point x="792" y="481.346"/>
      <point x="792" y="330" type="curve" smooth="yes"/>
      <point x="792" y="302" type="line" smooth="yes"/>
      <point x="792" y="208.169"/>
      <point x="762.65" y="162"/>
      <point x="703" y="162" type="curve" smooth="yes"/>
      <point x="671.492" y="162"/>
      <point x="661" y="179"/>
      <point x="667" y="223" type="curve" smooth="yes"/>
      <point x="693" y="429" type="line" smooth="yes"/>
      <point x="694" y="439"/>
      <point x="690" y="446"/>
      <point x="679" y="447" type="curve" smooth="yes"/>
      <point x="619" y="451"/>
      <point x="557" y="465"/>
      <point x="484" y="465" type="curve" smooth="yes"/>
      <point x="361.994" y="465"/>
      <point x="306" y="417"/>
      <point x="292" y="299" type="curve" smooth="yes"/>
      <point x="279" y="193" type="line" smooth="yes"/>
      <point x="266" y="90"/>
      <point x="303.446" y="35"/>
      <point x="386" y="35" type="curve" smooth="yes"/>
      <point x="454.753" y="35"/>
      <point x="517.077" y="65.506"/>
      <point x="576" y="128" type="curve"/>
      <point x="523" y="199" type="line"/>
      <point x="500.325" y="173.938"/>
      <point x="477.513" y="161"/>
      <point x="456" y="161" type="curve" smooth="yes"/>
      <point x="431.356" y="161"/>
      <point x="421" y="175"/>
      <point x="425" y="206" type="curve" smooth="yes"/>
      <point x="436" y="297" type="line" smooth="yes"/>
      <point x="441" y="334"/>
      <point x="454.74" y="347"/>
      <point x="488" y="347" type="curve" smooth="yes"/>
      <point x="509" y="347"/>
      <point x="526" y="344"/>
      <point x="539" y="342" type="curve"/>
      <point x="525" y="228" type="line" smooth="yes"/>
      <point x="510" y="106"/>
      <point x="565.682" y="36"/>
      <point x="679" y="36" type="curve" smooth="yes"/>
      <point x="855.079" y="36"/>
      <point x="952" y="130.791"/>
      <point x="952" y="303" type="curve" smooth="yes"/>
      <point x="952" y="330" type="line" smooth="yes"/>
      <point x="952" y="564.354"/>
      <point x="788.066" y="695"/>
      <point x="494" y="695" type="curve" smooth="yes"/>
      <point x="189.97" y="695"/>
      <point x="30" y="546.752"/>
      <point x="30" y="265" type="curve" smooth="yes"/>
      <point x="30" y="206" type="line" smooth="yes"/>
      <point x="30" y="-70.963"/>
      <point x="163.87" y="-185"/>
    </contour>
  </outline>
</glyph>
<glyph name="A" format="2">
  <advance width="637"/>
  <unicode hex="0041"/>
  <anchor x="319" y="0" name="bottom"/>
  <anchor x="633" y="10" name="ogonek"/>
  <anchor x="319" y="655" name="top"/>
  <anchor x="151" y="655" name="topleft"/>
  <outline>
    <contour>
      <point x="8" y="0" type="curve" smooth="yes"/>
      <point x="179" y="0" type="line" smooth="yes"/>
      <point x="188" y="0"/>
      <point x="194" y="4"/>
      <point x="196" y="13" type="curve" smooth="yes"/>
      <point x="282" y="348" type="line" smooth="yes"/>
      <point x="295" y="399"/>
      <point x="307" y="449"/>
      <point x="316" y="500" type="curve"/>
      <point x="319" y="500" type="line"/>
      <point x="328" y="450"/>
      <point x="340" y="400"/>
      <point x="353" y="350" type="curve" smooth="yes"/>
      <point x="442" y="12" type="line" smooth="yes"/>
      <point x="444" y="5"/>
      <point x="449" y="0"/>
      <point x="458" y="0" type="curve" smooth="yes"/>
      <point x="630" y="0" type="line" smooth="yes"/>
      <point x="640" y="0"/>
      <point x="644" y="7"/>
      <point x="641" y="17" type="curve" smooth="yes"/>
      <point x="436" y="643" type="line" smooth="yes"/>
      <point x="433" y="652"/>
      <point x="426" y="655"/>
      <point x="419" y="655" type="curve" smooth="yes"/>
      <point x="218" y="655" type="line" smooth="yes"/>
      <point x="210" y="655"/>
      <point x="204" y="652"/>
      <point x="201" y="643" type="curve" smooth="yes"/>
      <point x="-4" y="17" type="line" smooth="yes"/>
      <point x="-7" y="7"/>
      <point x="-3" y="0"/>
    </contour>
    <contour>
      <point x="194" y="107" type="line"/>
      <point x="439" y="107" type="line"/>
      <point x="410" y="251" type="line"/>
      <point x="221" y="251" type="line"/>
    </contour>
  </outline>
</glyph>
<glyph name="B" format="2">
  <advance width="616"/>
  <unicode hex="0042"/>
  <anchor x="299" y="0" name="bottom"/>
  <anchor x="299" y="655" name="top"/>
  <outline>
    <contour>
      <point x="67" y="0" type="curve" smooth="yes"/>
      <point x="302" y="0" type="line" smooth="yes"/>
      <point x="507" y="0"/>
      <point x="589" y="56"/>
      <point x="589" y="200" type="curve" smooth="yes"/>
      <point x="589" y="285"/>
      <point x="539" y="328"/>
      <point x="459" y="343" type="curve"/>
      <point x="459" y="347" type="line"/>
      <point x="527" y="369"/>
      <point x="561" y="414"/>
      <point x="561" y="496" type="curve" smooth="yes"/>
      <point x="561" y="603"/>
      <point x="473" y="655"/>
      <point x="304" y="655" type="curve" smooth="yes"/>
      <point x="67" y="655" type="line" smooth="yes"/>
      <point x="58" y="655"/>
      <point x="52" y="649"/>
      <point x="52" y="640" type="curve" smooth="yes"/>
      <point x="52" y="15" type="line" smooth="yes"/>
      <point x="52" y="6"/>
      <point x="58" y="0"/>
    </contour>
    <contour>
      <point x="238" y="149" type="line"/>
      <point x="238" y="263" type="line"/>
      <point x="311" y="263" type="line" smooth="yes"/>
      <point x="375" y="263"/>
      <point x="403" y="245"/>
      <point x="403" y="209" type="curve" smooth="yes"/>
      <point x="403" y="165"/>
      <point x="376" y="149"/>
      <point x="313" y="149" type="curve" smooth="yes"/>
    </contour>
    <contour>
      <point x="238" y="395" type="line"/>
      <point x="238" y="506" type="line"/>
      <point x="298" y="506" type="line" smooth="yes"/>
      <point x="349" y="506"/>
      <point x="375" y="486"/>
      <point x="375" y="453" type="curve" smooth="yes"/>
      <point x="375" y="416"/>
      <point x="353" y="395"/>
      <point x="303" y="395" type="curve" smooth="yes"/>
    </contour>
  </outline>
</glyph>
<glyph name="C" format="2">
  <advance width="663"/>
  <unicode hex="0043"/>
  <anchor x="355" y="0" name="bottom"/>
  <anchor x="332" y="655" name="top"/>
  <outline>
    <contour>
      <point x="331" y="-12" type="curve" smooth="yes"/>
      <point x="531" y="-12"/>
      <point x="637" y="85"/>
      <point x="622" y="237" type="curve" smooth="yes"/>
      <point x="621" y="246"/>
      <point x="616" y="251"/>
      <point x="607" y="251" type="curve" smooth="yes"/>
      <point x="450" y="251" type="line" smooth="yes"/>
      <point x="440" y="251"/>
      <point x="436" y="245"/>
      <point x="436" y="235" type="curve" smooth="yes"/>
      <point x="436" y="190"/>
      <point x="414" y="148"/>
      <point x="334" y="148" type="curve" smooth="yes"/>
      <point x="267" y="148"/>
      <point x="226" y="182"/>
      <point x="226" y="267" type="curve" smooth="yes"/>
      <point x="226" y="388" type="line" smooth="yes"/>
      <point x="226" y="473"/>
      <point x="267" y="507"/>
      <point x="334" y="507" type="curve" smooth="yes"/>
      <point x="408" y="507"/>
      <point x="436" y="471"/>
      <point x="436" y="420" type="curve" smooth="yes"/>
      <point x="436" y="410"/>
      <point x="440" y="404"/>
      <point x="450" y="404" type="curve" smooth="yes"/>
      <point x="607" y="404" type="line" smooth="yes"/>
      <point x="616" y="404"/>
      <point x="621" y="410"/>
      <point x="622" y="418" type="curve" smooth="yes"/>
      <point x="641" y="567"/>
      <point x="535" y="667"/>
      <point x="331" y="667" type="curve" smooth="yes"/>
      <point x="150" y="667"/>
      <point x="40" y="584"/>
      <point x="40" y="395" type="curve" smooth="yes"/>
      <point x="40" y="257" type="line" smooth="yes"/>
      <point x="40" y="71"/>
      <point x="150" y="-12"/>
    </contour>
  </outline>
</glyph>
<glyph name="D" format="2">
  <advance width="664"/>
  <unicode hex="0044"/>
  <anchor x="302" y="0" name="bottom"/>
  <anchor x="325" y="345" name="center"/>
  <anchor x="302" y="655" name="top"/>
  <outline>
    <contour>
      <point x="67" y="0" type="curve" smooth="yes"/>
      <point x="318" y="0" type="line" smooth="yes"/>
      <point x="530" y="0"/>
      <point x="629" y="99"/>
      <point x="629" y="289" type="curve" smooth="yes"/>
      <point x="629" y="368" type="line" smooth="yes"/>
      <point x="629" y="556"/>
      <point x="530" y="655"/>
      <point x="318" y="655" type="curve" smooth="yes"/>
      <point x="67" y="655" type="line" smooth="yes"/>
      <point x="58" y="655"/>
      <point x="52" y="649"/>
      <point x="52" y="640" type="curve" smooth="yes"/>
      <point x="52" y="15" type="line" smooth="yes"/>
      <point x="52" y="6"/>
      <point x="58" y="0"/>
    </contour>
    <contour>
      <point x="238" y="160" type="line"/>
      <point x="238" y="495" type="line"/>
      <point x="306" y="495" type="line" smooth="yes"/>
      <point x="401" y="495"/>
      <point x="443" y="444"/>
      <point x="443" y="359" type="curve" smooth="yes"/>
      <point x="443" y="298" type="line" smooth="yes"/>
      <point x="443" y="211"/>
      <point x="401" y="160"/>
      <point x="306" y="160" type="curve" smooth="yes"/>
    </contour>
  </outline>
</glyph>
<glyph name="E" format="2">
  <advance width="553"/>
  <unicode hex="0045"/>
  <guideline x="516" y="260" angle="90"/>
  <anchor x="284" y="0" name="bottom"/>
  <anchor x="485" y="10" name="ogonek"/>
  <anchor x="273" y="655" name="top"/>
  <anchor x="34" y="655" name="topleft"/>
  <outline>
    <contour>
      <point x="67" y="0" type="curve" smooth="yes"/>
      <point x="499" y="0" type="line" smooth="yes"/>
      <point x="507" y="0"/>
      <point x="513" y="6"/>
      <point x="513" y="15" type="curve" smooth="yes"/>
      <point x="513" y="146" type="line" smooth="yes"/>
      <point x="513" y="154"/>
      <point x="507" y="160"/>
      <point x="499" y="160" type="curve" smooth="yes"/>
      <point x="238" y="160" type="line"/>
      <point x="238" y="253" type="line"/>
      <point x="475" y="253" type="line" smooth="yes"/>
      <point x="483" y="253"/>
      <point x="489" y="259"/>
      <point x="489" y="268" type="curve" smooth="yes"/>
      <point x="489" y="389" type="line" smooth="yes"/>
      <point x="489" y="398"/>
      <point x="483" y="404"/>
      <point x="475" y="404" type="curve" smooth="yes"/>
      <point x="238" y="404" type="line"/>
      <point x="238" y="495" type="line"/>
      <point x="499" y="495" type="line" smooth="yes"/>
      <point x="507" y="495"/>
      <point x="513" y="501"/>
      <point x="513" y="509" type="curve" smooth="yes"/>
      <point x="513" y="640" type="line" smooth="yes"/>
      <point x="513" y="649"/>
      <point x="507" y="655"/>
      <point x="499" y="655" type="curve" smooth="yes"/>
      <point x="67" y="655" type="line" smooth="yes"/>
      <point x="58" y="655"/>
      <point x="52" y="649"/>
      <point x="52" y="640" type="curve" smooth="yes"/>
      <point x="52" y="15" type="line" smooth="yes"/>
      <point x="52" y="6"/>
      <point x="58" y="0"/>
    </contour>
  </outline>
</glyph>
<glyph name="F" format="2">
  <advance width="538"/>
  <unicode hex="0046"/>
  <anchor x="282" y="0" name="bottom"/>
  <anchor x="282" y="655" name="top"/>
  <outline>
    <contour>
      <point x="67" y="0" type="curve" smooth="yes"/>
      <point x="224" y="0" type="line" smooth="yes"/>
      <point x="232" y="0"/>
      <point x="238" y="6"/>
      <point x="238" y="15" type="curve" smooth="yes"/>
      <point x="238" y="239" type="line"/>
      <point x="461" y="239" type="line" smooth="yes"/>
      <point x="469" y="239"/>
      <point x="475" y="245"/>
      <point x="475" y="253" type="curve" smooth="yes"/>
      <point x="475" y="380" type="line" smooth="yes"/>
      <point x="475" y="389"/>
      <point x="469" y="395"/>
      <point x="461" y="395" type="curve" smooth="yes"/>
      <point x="238" y="395" type="line"/>
      <point x="238" y="495" type="line"/>
      <point x="499" y="495" type="line" smooth="yes"/>
      <point x="507" y="495"/>
      <point x="513" y="501"/>
      <point x="513" y="509" type="curve" smooth="yes"/>
      <point x="513" y="640" type="line" smooth="yes"/>
      <point x="513" y="649"/>
      <point x="507" y="655"/>
      <point x="499" y="655" type="curve" smooth="yes"/>
      <point x="67" y="655" type="line" smooth="yes"/>
      <point x="58" y="655"/>
      <point x="52" y="649"/>
      <point x="52" y="640" type="curve" smooth="yes"/>
      <point x="52" y="15" type="line" smooth="yes"/>
      <point x="52" y="6"/>
      <point x="58" y="0"/>
    </contour>
  </outline>
</glyph>
<glyph name="G" format="2">
  <advance width="673"/>
  <unicode hex="0047"/>
  <anchor x="336" y="0" name="bottom"/>
  <anchor x="337" y="655" name="top"/>
  <anchor x="73" y="655" name="topleft"/>
  <outline>
    <contour>
      <point x="304" y="-12" type="curve" smooth="yes"/>
      <point x="395" y="-12"/>
      <point x="439" y="28"/>
      <point x="466" y="75" type="curve"/>
      <point x="468" y="75" type="line"/>
      <point x="470" y="57"/>
      <point x="470" y="29"/>
      <point x="474" y="14" type="curve" smooth="yes"/>
      <point x="477" y="4"/>
      <point x="481" y="0"/>
      <point x="489" y="0" type="curve" smooth="yes"/>
      <point x="614" y="0" type="line" smooth="yes"/>
      <point x="623" y="0"/>
      <point x="630" y="6"/>
      <point x="628" y="16" type="curve" smooth="yes"/>
      <point x="619" y="63"/>
      <point x="618" y="133"/>
      <point x="618" y="184" type="curve" smooth="yes"/>
      <point x="618" y="343" type="line" smooth="yes"/>
      <point x="618" y="352"/>
      <point x="612" y="358"/>
      <point x="604" y="358" type="curve" smooth="yes"/>
      <point x="341" y="358" type="line" smooth="yes"/>
      <point x="332" y="358"/>
      <point x="326" y="352"/>
      <point x="326" y="343" type="curve" smooth="yes"/>
      <point x="326" y="253" type="line" smooth="yes"/>
      <point x="326" y="244"/>
      <point x="332" y="238"/>
      <point x="341" y="238" type="curve" smooth="yes"/>
      <point x="438" y="238" type="line"/>
      <point x="438" y="217" type="line" smooth="yes"/>
      <point x="438" y="172"/>
      <point x="405" y="148"/>
      <point x="342" y="148" type="curve" smooth="yes"/>
      <point x="267" y="148"/>
      <point x="226" y="182"/>
      <point x="226" y="267" type="curve" smooth="yes"/>
      <point x="226" y="388" type="line" smooth="yes"/>
      <point x="226" y="473"/>
      <point x="263" y="507"/>
      <point x="334" y="507" type="curve" smooth="yes"/>
      <point x="405" y="507"/>
      <point x="432" y="479"/>
      <point x="432" y="443" type="curve" smooth="yes"/>
      <point x="432" y="433"/>
      <point x="435" y="427"/>
      <point x="445" y="427" type="curve" smooth="yes"/>
      <point x="602" y="426" type="line" smooth="yes"/>
      <point x="611" y="426"/>
      <point x="616" y="431"/>
      <point x="617" y="440" type="curve" smooth="yes"/>
      <point x="631" y="563"/>
      <point x="539" y="667"/>
      <point x="331" y="667" type="curve" smooth="yes"/>
      <point x="150" y="667"/>
      <point x="40" y="582"/>
      <point x="40" y="398" type="curve" smooth="yes"/>
      <point x="40" y="257" type="line" smooth="yes"/>
      <point x="40" y="73"/>
      <point x="153" y="-12"/>
    </contour>
  </outline>
</glyph>
<glyph name="H" format="2">
  <advance width="681"/>
  <unicode hex="0048"/>
  <anchor x="341" y="0" name="bottom"/>
  <anchor x="341" y="328" name="center"/>
  <anchor x="341" y="655" name="top"/>
  <anchor x="39" y="655" name="topleft"/>
  <outline>
    <contour>
      <point x="67" y="0" type="curve" smooth="yes"/>
      <point x="224" y="0" type="line" smooth="yes"/>
      <point x="232" y="0"/>
      <point x="238" y="6"/>
      <point x="238" y="15" type="curve" smooth="yes"/>
      <point x="238" y="247" type="line"/>
      <point x="443" y="247" type="line"/>
      <point x="443" y="15" type="line" smooth="yes"/>
      <point x="443" y="6"/>
      <point x="449" y="0"/>
      <point x="458" y="0" type="curve" smooth="yes"/>
      <point x="614" y="0" type="line" smooth="yes"/>
      <point x="623" y="0"/>
      <point x="629" y="6"/>
      <point x="629" y="15" type="curve" smooth="yes"/>
      <point x="629" y="640" type="line" smooth="yes"/>
      <point x="629" y="649"/>
      <point x="623" y="655"/>
      <point x="614" y="655" type="curve" smooth="yes"/>
      <point x="458" y="655" type="line" smooth="yes"/>
      <point x="449" y="655"/>
      <point x="443" y="649"/>
      <point x="443" y="640" type="curve" smooth="yes"/>
      <point x="443" y="407" type="line"/>
      <point x="238" y="407" type="line"/>
      <point x="238" y="640" type="line" smooth="yes"/>
      <point x="238" y="649"/>
      <point x="232" y="655"/>
      <point x="224" y="655" type="curve" smooth="yes"/>
      <point x="67" y="655" type="line" smooth="yes"/>
      <point x="58" y="655"/>
      <point x="52" y="649"/>
      <point x="52" y="640" type="curve" smooth="yes"/>
      <point x="52" y="15" type="line" smooth="yes"/>
      <point x="52" y="6"/>
      <point x="58" y="0"/>
    </contour>
  </outline>
</glyph>
<glyph name="I" format="2">
  <advance width="290"/>
  <unicode hex="0049"/>
  <anchor x="145" y="0" name="bottom"/>
  <anchor x="241" y="10" name="ogonek"/>
  <anchor x="147" y="655" name="top"/>
  <anchor x="20" y="655" name="topleft"/>
  <outline>
    <contour>
      <point x="67" y="0" type="curve" smooth="yes"/>
      <point x="223" y="0" type="line" smooth="yes"/>
      <point x="232" y="0"/>
      <point x="238" y="6"/>
      <point x="238" y="15" type="curve" smooth="yes"/>
      <point x="238" y="640" type="line" smooth="yes"/>
      <point x="238" y="649"/>
      <point x="232" y="655"/>
      <point x="223" y="655" type="curve" smooth="yes"/>
      <point x="67" y="655" type="line" smooth="yes"/>
      <point x="58" y="655"/>
      <point x="52" y="649"/>
      <point x="52" y="640" type="curve" smooth="yes"/>
      <point x="52" y="15" type="line" smooth="yes"/>
      <point x="52" y="6"/>
      <point x="58" y="0"/>
    </contour>
  </outline>
</glyph>
<glyph name="J" format="2">
  <advance width="300"/>
  <unicode hex="004A"/>
  <anchor x="157" y="0" name="bottom"/>
  <anchor x="157" y="655" name="top"/>
  <outline>
    <contour>
      <point x="38" y="-174" type="curve" smooth="yes"/>
      <point x="181" y="-158"/>
      <point x="248" y="-60"/>
      <point x="248" y="127" type="curve" smooth="yes"/>
      <point x="248" y="640" type="line" smooth="yes"/>
      <point x="248" y="649"/>
      <point x="242" y="655"/>
      <point x="233" y="655" type="curve" smooth="yes"/>
      <point x="77" y="655" type="line" smooth="yes"/>
      <point x="68" y="655"/>
      <point x="62" y="649"/>
      <point x="62" y="640" type="curve" smooth="yes"/>
      <point x="62" y="112" type="line" smooth="yes"/>
      <point x="62" y="30"/>
      <point x="37" y="-12"/>
      <point x="-9" y="-21" type="curve" smooth="yes"/>
      <point x="-18" y="-23"/>
      <point x="-23" y="-31"/>
      <point x="-20" y="-40" type="curve" smooth="yes"/>
      <point x="19" y="-163" type="line" smooth="yes"/>
      <point x="22" y="-171"/>
      <point x="29" y="-175"/>
    </contour>
  </outline>
</glyph>
<glyph name="K" format="2">
  <advance width="653"/>
  <unicode hex="004B"/>
  <anchor x="327" y="0" name="bottom"/>
  <anchor x="326" y="655" name="top"/>
  <outline>
    <contour>
      <point x="67" y="0" type="curve" smooth="yes"/>
      <point x="223" y="0" type="line" smooth="yes"/>
      <point x="232" y="0"/>
      <point x="238" y="6"/>
      <point x="238" y="15" type="curve" smooth="yes"/>
      <point x="238" y="166" type="line"/>
      <point x="301" y="242" type="line"/>
      <point x="428" y="10" type="line" smooth="yes"/>
      <point x="432" y="2"/>
      <point x="438" y="0"/>
      <point x="446" y="0" type="curve" smooth="yes"/>
      <point x="635" y="0" type="line" smooth="yes"/>
      <point x="646" y="0"/>
      <point x="651" y="7"/>
      <point x="645" y="18" type="curve" smooth="yes"/>
      <point x="428" y="390" type="line"/>
      <point x="620" y="637" type="line" smooth="yes"/>
      <point x="628" y="647"/>
      <point x="623" y="655"/>
      <point x="611" y="655" type="curve" smooth="yes"/>
      <point x="424" y="655" type="line" smooth="yes"/>
      <point x="417" y="655"/>
      <point x="410" y="652"/>
      <point x="406" y="646" type="curve" smooth="yes"/>
      <point x="306" y="510" type="line" smooth="yes"/>
      <point x="278" y="471"/>
      <point x="256" y="431"/>
      <point x="236" y="392" type="curve"/>
      <point x="233" y="392" type="line"/>
      <point x="237" y="431"/>
      <point x="238" y="469"/>
      <point x="238" y="508" type="curve" smooth="yes"/>
      <point x="238" y="640" type="line" smooth="yes"/>
      <point x="238" y="649"/>
      <point x="232" y="655"/>
      <point x="223" y="655" type="curve" smooth="yes"/>
      <point x="67" y="655" type="line" smooth="yes"/>
      <point x="58" y="655"/>
      <point x="52" y="649"/>
      <point x="52" y="640" type="curve" smooth="yes"/>
      <point x="52" y="15" type="line" smooth="yes"/>
      <point x="52" y="6"/>
      <point x="58" y="0"/>
    </contour>
  </outline>
</glyph>
<glyph name="L" format="2">
  <advance width="508"/>
  <unicode hex="004C"/>
  <anchor x="274" y="0" name="bottom"/>
  <anchor x="282" y="328" name="center"/>
  <anchor x="147" y="655" name="top"/>
  <anchor x="504" y="655" name="topright"/>
  <outline>
    <contour>
      <point x="67" y="0" type="curve" smooth="yes"/>
      <point x="479" y="0" type="line" smooth="yes"/>
      <point x="487" y="0"/>
      <point x="493" y="6"/>
      <point x="493" y="15" type="curve" smooth="yes"/>
      <point x="493" y="146" type="line" smooth="yes"/>
      <point x="493" y="154"/>
      <point x="487" y="160"/>
      <point x="479" y="160" type="curve" smooth="yes"/>
      <point x="238" y="160" type="line"/>
      <point x="238" y="640" type="line" smooth="yes"/>
      <point x="238" y="648"/>
      <point x="234" y="655"/>
      <point x="227" y="655" type="curve" smooth="yes"/>
      <point x="67" y="655" type="line" smooth="yes"/>
      <point x="58" y="655"/>
      <point x="52" y="649"/>
      <point x="52" y="640" type="curve" smooth="yes"/>
      <point x="52" y="15" type="line" smooth="yes"/>
      <point x="52" y="6"/>
      <point x="58" y="0"/>
    </contour>
  </outline>
</glyph>
<glyph name="M" format="2">
  <advance width="816"/>
  <unicode hex="004D"/>
  <anchor x="408" y="0" name="bottom"/>
  <anchor x="408" y="655" name="top"/>
  <outline>
    <contour>
      <point x="55" y="0" type="curve" smooth="yes"/>
      <point x="208" y="0" type="line" smooth="yes"/>
      <point x="217" y="0"/>
      <point x="223" y="6"/>
      <point x="223" y="15" type="curve" smooth="yes"/>
      <point x="227" y="190" type="line" smooth="yes"/>
      <point x="228" y="249"/>
      <point x="225" y="317"/>
      <point x="222" y="376" type="curve"/>
      <point x="226" y="376" type="line"/>
      <point x="250" y="321"/>
      <point x="280" y="256"/>
      <point x="310" y="201" type="curve" smooth="yes"/>
      <point x="387" y="60" type="line" smooth="yes"/>
      <point x="391" y="52"/>
      <point x="397" y="50"/>
      <point x="404" y="50" type="curve" smooth="yes"/>
      <point x="412" y="50" type="line" smooth="yes"/>
      <point x="420" y="50"/>
      <point x="426" y="52"/>
      <point x="430" y="60" type="curve" smooth="yes"/>
      <point x="507" y="201" type="line" smooth="yes"/>
      <point x="537" y="256"/>
      <point x="567" y="321"/>
      <point x="591" y="376" type="curve"/>
      <point x="595" y="376" type="line"/>
      <point x="592" y="318"/>
      <point x="589" y="249"/>
      <point x="590" y="191" type="curve" smooth="yes"/>
      <point x="594" y="15" type="line" smooth="yes"/>
      <point x="594" y="6"/>
      <point x="600" y="0"/>
      <point x="609" y="0" type="curve" smooth="yes"/>
      <point x="762" y="0" type="line" smooth="yes"/>
      <point x="770" y="0"/>
      <point x="776" y="6"/>
      <point x="776" y="15" type="curve" smooth="yes"/>
      <point x="763" y="640" type="line" smooth="yes"/>
      <point x="763" y="649"/>
      <point x="757" y="655"/>
      <point x="749" y="655" type="curve" smooth="yes"/>
      <point x="577" y="655" type="line" smooth="yes"/>
      <point x="569" y="655"/>
      <point x="563" y="652"/>
      <point x="559" y="644" type="curve" smooth="yes"/>
      <point x="408" y="334" type="line"/>
      <point x="257" y="644" type="line" smooth="yes"/>
      <point x="253" y="652"/>
      <point x="248" y="655"/>
      <point x="240" y="655" type="curve" smooth="yes"/>
      <point x="68" y="655" type="line" smooth="yes"/>
      <point x="59" y="655"/>
      <point x="53" y="649"/>
      <point x="53" y="640" type="curve" smooth="yes"/>
      <point x="40" y="15" type="line" smooth="yes"/>
      <point x="40" y="6"/>
      <point x="46" y="0"/>
    </contour>
  </outline>
</glyph>
<glyph name="N" format="2">
  <advance width="683"/>
  <unicode hex="004E"/>
  <anchor x="342" y="0" name="bottom"/>
  <anchor x="342" y="655" name="top"/>
  <outline>
    <contour>
      <point x="67" y="0" type="curve" smooth="yes"/>
      <point x="216" y="0" type="line" smooth="yes"/>
      <point x="225" y="0"/>
      <point x="231" y="6"/>
      <point x="231" y="15" type="curve" smooth="yes"/>
      <point x="231" y="208" type="line" smooth="yes"/>
      <point x="231" y="260"/>
      <point x="231" y="346"/>
      <point x="226" y="397" type="curve"/>
      <point x="230" y="397" type="line"/>
      <point x="250" y="348"/>
      <point x="279" y="266"/>
      <point x="305" y="214" type="curve" smooth="yes"/>
      <point x="408" y="11" type="line" smooth="yes"/>
      <point x="412" y="4"/>
      <point x="417" y="0"/>
      <point x="425" y="0" type="curve" smooth="yes"/>
      <point x="617" y="0" type="line" smooth="yes"/>
      <point x="625" y="0"/>
      <point x="631" y="6"/>
      <point x="631" y="15" type="curve" smooth="yes"/>
      <point x="631" y="640" type="line" smooth="yes"/>
      <point x="631" y="649"/>
      <point x="625" y="655"/>
      <point x="617" y="655" type="curve" smooth="yes"/>
      <point x="466" y="655" type="line" smooth="yes"/>
      <point x="458" y="655"/>
      <point x="452" y="649"/>
      <point x="452" y="640" type="curve" smooth="yes"/>
      <point x="452" y="435" type="line" smooth="yes"/>
      <point x="452" y="384"/>
      <point x="456" y="300"/>
      <point x="464" y="249" type="curve"/>
      <point x="460" y="249" type="line"/>
      <point x="445" y="297"/>
      <point x="410" y="376"/>
      <point x="384" y="428" type="curve" smooth="yes"/>
      <point x="275" y="644" type="line" smooth="yes"/>
      <point x="271" y="651"/>
      <point x="266" y="655"/>
      <point x="258" y="655" type="curve" smooth="yes"/>
      <point x="67" y="655" type="line" smooth="yes"/>
      <point x="58" y="655"/>
      <point x="52" y="649"/>
      <point x="52" y="640" type="curve" smooth="yes"/>
      <point x="52" y="15" type="line" smooth="yes"/>
      <point x="52" y="6"/>
      <point x="58" y="0"/>
    </contour>
  </outline>
</glyph>
<glyph name="O" format="2">
  <advance width="668"/>
  <unicode hex="004F"/>
  <anchor x="334" y="0" name="bottom"/>
  <anchor x="334" y="328" name="center"/>
  <anchor x="602" y="10" name="ogonek"/>
  <anchor x="334" y="655" name="top"/>
  <anchor x="23" y="655" name="topleft"/>
  <anchor x="649" y="655" name="topright"/>
  <outline>
    <contour>
      <point x="334" y="-12" type="curve" smooth="yes"/>
      <point x="526" y="-12"/>
      <point x="628" y="78"/>
      <point x="628" y="256" type="curve" smooth="yes"/>
      <point x="628" y="399" type="line" smooth="yes"/>
      <point x="628" y="577"/>
      <point x="526" y="667"/>
      <point x="334" y="667" type="curve" smooth="yes"/>
      <point x="142" y="667"/>
      <point x="40" y="577"/>
      <point x="40" y="399" type="curve" smooth="yes"/>
      <point x="40" y="256" type="line" smooth="yes"/>
      <point x="40" y="78"/>
      <point x="142" y="-12"/>
    </contour>
    <contour>
      <point x="334" y="150" type="curve" smooth="yes"/>
      <point x="260" y="150"/>
      <point x="226" y="193"/>
      <point x="226" y="270" type="curve" smooth="yes"/>
      <point x="226" y="385" type="line" smooth="yes"/>
      <point x="226" y="462"/>
      <point x="260" y="505"/>
      <point x="334" y="505" type="curve" smooth="yes"/>
      <point x="408" y="505"/>
      <point x="442" y="462"/>
      <point x="442" y="385" type="curve" smooth="yes"/>
      <point x="442" y="270" type="line" smooth="yes"/>
      <point x="442" y="193"/>
      <point x="408" y="150"/>
    </contour>
  </outline>
</glyph>
<glyph name="P" format="2">
  <advance width="584"/>
  <unicode hex="0050"/>
  <anchor x="286" y="0" name="bottom"/>
  <anchor x="286" y="655" name="top"/>
  <outline>
    <contour>
      <point x="67" y="0" type="curve" smooth="yes"/>
      <point x="223" y="0" type="line" smooth="yes"/>
      <point x="232" y="0"/>
      <point x="238" y="6"/>
      <point x="238" y="15" type="curve" smooth="yes"/>
      <point x="238" y="195" type="line"/>
      <point x="290" y="195" type="line" smooth="yes"/>
      <point x="474" y="195"/>
      <point x="561" y="279"/>
      <point x="561" y="423" type="curve" smooth="yes"/>
      <point x="561" y="574"/>
      <point x="484" y="655"/>
      <point x="288" y="655" type="curve" smooth="yes"/>
      <point x="67" y="655" type="line" smooth="yes"/>
      <point x="58" y="655"/>
      <point x="52" y="649"/>
      <point x="52" y="640" type="curve" smooth="yes"/>
      <point x="52" y="15" type="line" smooth="yes"/>
      <point x="52" y="6"/>
      <point x="58" y="0"/>
    </contour>
    <contour>
      <point x="238" y="353" type="line"/>
      <point x="238" y="495" type="line"/>
      <point x="289" y="495" type="line" smooth="yes"/>
      <point x="346" y="495"/>
      <point x="375" y="476"/>
      <point x="375" y="424" type="curve" smooth="yes"/>
      <point x="375" y="371"/>
      <point x="341" y="353"/>
      <point x="288" y="353" type="curve" smooth="yes"/>
    </contour>
  </outline>
</glyph>
<glyph name="Q" format="2">
  <advance width="668"/>
  <unicode hex="0051"/>
  <anchor x="334" y="0" name="bottom"/>
  <anchor x="334" y="655" name="top"/>
  <outline>
    <contour>
      <point x="476" y="-185" type="curve" smooth="yes"/>
      <point x="514" y="-185"/>
      <point x="542" y="-176"/>
      <point x="560" y="-166" type="curve" smooth="yes"/>
      <point x="567" y="-162"/>
      <point x="569" y="-156"/>
      <point x="569" y="-148" type="curve" smooth="yes"/>
      <point x="569" y="-59" type="line" smooth="yes"/>
      <point x="569" y="-49"/>
      <point x="564" y="-42"/>
      <point x="553" y="-46" type="curve" smooth="yes"/>
      <point x="542" y="-50"/>
      <point x="530" y="-53"/>
      <point x="513" y="-53" type="curve" smooth="yes"/>
      <point x="470" y="-53"/>
      <point x="462" y="-11"/>
      <point x="462" y="46" type="curve" smooth="yes"/>
      <point x="462" y="56"/>
      <point x="456" y="61"/>
      <point x="448" y="61" type="curve" smooth="yes"/>
      <point x="326" y="59" type="line" smooth="yes"/>
      <point x="317" y="59"/>
      <point x="311" y="54"/>
      <point x="311" y="44" type="curve" smooth="yes"/>
      <point x="305" y="-112"/>
      <point x="370" y="-185"/>
    </contour>
    <component base="O"/>
  </outline>
</glyph>
<glyph name="R" format="2">
  <advance width="629"/>
  <unicode hex="0052"/>
  <guideline x="584" y="275" angle="90"/>
  <anchor x="324" y="0" name="bottom"/>
  <anchor x="282" y="655" name="top"/>
  <outline>
    <contour>
      <point x="67" y="0" type="curve" smooth="yes"/>
      <point x="223" y="0" type="line" smooth="yes"/>
      <point x="232" y="0"/>
      <point x="238" y="6"/>
      <point x="238" y="15" type="curve" smooth="yes"/>
      <point x="238" y="228" type="line"/>
      <point x="287" y="228" type="line"/>
      <point x="416" y="10" type="line" smooth="yes"/>
      <point x="420" y="3"/>
      <point x="427" y="0"/>
      <point x="434" y="0" type="curve" smooth="yes"/>
      <point x="608" y="0" type="line" smooth="yes"/>
      <point x="620" y="0"/>
      <point x="624" y="8"/>
      <point x="618" y="18" type="curve" smooth="yes"/>
      <point x="467" y="255" type="line"/>
      <point x="467" y="257" type="line"/>
      <point x="549" y="282"/>
      <point x="581" y="348"/>
      <point x="581" y="434" type="curve" smooth="yes"/>
      <point x="581" y="575"/>
      <point x="504" y="655"/>
      <point x="308" y="655" type="curve" smooth="yes"/>
      <point x="67" y="655" type="line" smooth="yes"/>
      <point x="58" y="655"/>
      <point x="52" y="649"/>
      <point x="52" y="640" type="curve" smooth="yes"/>
      <point x="52" y="15" type="line" smooth="yes"/>
      <point x="52" y="6"/>
      <point x="58" y="0"/>
    </contour>
    <contour>
      <point x="238" y="374" type="line"/>
      <point x="238" y="497" type="line"/>
      <point x="314" y="497" type="line" smooth="yes"/>
      <point x="371" y="497"/>
      <point x="395" y="478"/>
      <point x="395" y="435" type="curve" smooth="yes"/>
      <point x="395" y="392"/>
      <point x="365" y="374"/>
      <point x="311" y="374" type="curve" smooth="yes"/>
    </contour>
  </outline>
</glyph>
<glyph name="S" format="2">
  <advance width="579"/>
  <unicode hex="0053"/>
  <anchor x="293" y="0" name="bottom"/>
  <anchor x="285" y="655" name="top"/>
  <outline>
    <contour>
      <point x="281" y="-12" type="curve" smooth="yes"/>
      <point x="467" y="-12"/>
      <point x="546" y="50"/>
      <point x="547" y="176" type="curve" smooth="yes"/>
      <point x="548" y="268"/>
      <point x="517" y="323"/>
      <point x="411" y="369" type="curve" smooth="yes"/>
      <point x="270" y="430" type="line" smooth="yes"/>
      <point x="232" y="446"/>
      <point x="219" y="458"/>
      <point x="219" y="475" type="curve" smooth="yes"/>
      <point x="219" y="500"/>
      <point x="239" y="514"/>
      <point x="281" y="514" type="curve" smooth="yes"/>
      <point x="328" y="514"/>
      <point x="354" y="490"/>
      <point x="351" y="462" type="curve" smooth="yes"/>
      <point x="350" y="452"/>
      <point x="355" y="446"/>
      <point x="365" y="446" type="curve" smooth="yes"/>
      <point x="518" y="446" type="line" smooth="yes"/>
      <point x="527" y="446"/>
      <point x="532" y="451"/>
      <point x="533" y="462" type="curve" smooth="yes"/>
      <point x="546" y="601"/>
      <point x="460" y="667"/>
      <point x="276" y="667" type="curve" smooth="yes"/>
      <point x="113" y="667"/>
      <point x="34" y="598"/>
      <point x="33" y="481" type="curve" smooth="yes"/>
      <point x="32" y="389"/>
      <point x="62" y="335"/>
      <point x="168" y="288" type="curve" smooth="yes"/>
      <point x="310" y="225" type="line" smooth="yes"/>
      <point x="349" y="208"/>
      <point x="361" y="197"/>
      <point x="361" y="181" type="curve" smooth="yes"/>
      <point x="361" y="155"/>
      <point x="339" y="145"/>
      <point x="285" y="145" type="curve" smooth="yes"/>
      <point x="231" y="145"/>
      <point x="206" y="167"/>
      <point x="209" y="201" type="curve" smooth="yes"/>
      <point x="210" y="211"/>
      <point x="205" y="214"/>
      <point x="195" y="214" type="curve" smooth="yes"/>
      <point x="43" y="214" type="line" smooth="yes"/>
      <point x="34" y="214"/>
      <point x="28" y="209"/>
      <point x="27" y="199" type="curve" smooth="yes"/>
      <point x="12" y="53"/>
      <point x="94" y="-12"/>
    </contour>
  </outline>
</glyph>
<glyph name="T" format="2">
  <advance width="563"/>
  <unicode hex="0054"/>
  <anchor x="282" y="0" name="bottom"/>
  <anchor x="285" y="328" name="center"/>
  <anchor x="285" y="655" name="top"/>
  <outline>
    <contour>
      <point x="203" y="0" type="curve" smooth="yes"/>
      <point x="360" y="0" type="line" smooth="yes"/>
      <point x="369" y="0"/>
      <point x="375" y="6"/>
      <point x="375" y="15" type="curve" smooth="yes"/>
      <point x="375" y="495" type="line"/>
      <point x="534" y="495" type="line" smooth="yes"/>
      <point x="543" y="495"/>
      <point x="548" y="501"/>
      <point x="548" y="509" type="curve" smooth="yes"/>
      <point x="548" y="640" type="line" smooth="yes"/>
      <point x="548" y="649"/>
      <point x="543" y="655"/>
      <point x="534" y="655" type="curve" smooth="yes"/>
      <point x="30" y="655" type="line" smooth="yes"/>
      <point x="21" y="655"/>
      <point x="15" y="649"/>
      <point x="15" y="640" type="curve" smooth="yes"/>
      <point x="15" y="509" type="line" smooth="yes"/>
      <point x="15" y="501"/>
      <point x="21" y="495"/>
      <point x="30" y="495" type="curve" smooth="yes"/>
      <point x="189" y="495" type="line"/>
      <point x="189" y="15" type="line" smooth="yes"/>
      <point x="189" y="6"/>
      <point x="194" y="0"/>
    </contour>
  </outline>
</glyph>
<glyph name="U" format="2">
  <advance width="665"/>
  <unicode hex="0055"/>
  <anchor x="334" y="0" name="bottom"/>
  <anchor x="479" y="10" name="ogonek"/>
  <anchor x="334" y="655" name="top"/>
  <anchor x="73" y="655" name="topleft"/>
  <anchor x="645" y="655" name="topright"/>
  <outline>
    <contour>
      <point x="333" y="-12" type="curve" smooth="yes"/>
      <point x="523" y="-12"/>
      <point x="618" y="69"/>
      <point x="618" y="253" type="curve" smooth="yes"/>
      <point x="618" y="640" type="line" smooth="yes"/>
      <point x="618" y="649"/>
      <point x="612" y="655"/>
      <point x="603" y="655" type="curve" smooth="yes"/>
      <point x="447" y="655" type="line" smooth="yes"/>
      <point x="438" y="655"/>
      <point x="432" y="649"/>
      <point x="432" y="640" type="curve" smooth="yes"/>
      <point x="432" y="264" type="line" smooth="yes"/>
      <point x="432" y="190"/>
      <point x="407" y="148"/>
      <point x="333" y="148" type="curve" smooth="yes"/>
      <point x="258" y="148"/>
      <point x="233" y="190"/>
      <point x="233" y="264" type="curve" smooth="yes"/>
      <point x="233" y="640" type="line" smooth="yes"/>
      <point x="233" y="649"/>
      <point x="227" y="655"/>
      <point x="219" y="655" type="curve" smooth="yes"/>
      <point x="62" y="655" type="line" smooth="yes"/>
      <point x="53" y="655"/>
      <point x="47" y="649"/>
      <point x="47" y="640" type="curve" smooth="yes"/>
      <point x="47" y="253" type="line" smooth="yes"/>
      <point x="47" y="69"/>
      <point x="142" y="-12"/>
    </contour>
  </outline>
</glyph>
<glyph name="V" format="2">
  <advance width="649"/>
  <unicode hex="0056"/>
  <anchor x="324" y="0" name="bottom"/>
  <anchor x="324" y="655" name="top"/>
  <outline>
    <contour>
      <point x="224" y="0" type="curve" smooth="yes"/>
      <point x="425" y="0" type="line" smooth="yes"/>
      <point x="433" y="0"/>
      <point x="439" y="3"/>
      <point x="442" y="12" type="curve" smooth="yes"/>
      <point x="643" y="638" type="line" smooth="yes"/>
      <point x="646" y="648"/>
      <point x="642" y="655"/>
      <point x="631" y="655" type="curve" smooth="yes"/>
      <point x="460" y="655" type="line" smooth="yes"/>
      <point x="451" y="655"/>
      <point x="445" y="651"/>
      <point x="443" y="642" type="curve" smooth="yes"/>
      <point x="359" y="309" type="line" smooth="yes"/>
      <point x="346" y="257"/>
      <point x="335" y="207"/>
      <point x="327" y="155" type="curve"/>
      <point x="324" y="155" type="line"/>
      <point x="315" y="206"/>
      <point x="306" y="255"/>
      <point x="293" y="306" type="curve" smooth="yes"/>
      <point x="206" y="643" type="line" smooth="yes"/>
      <point x="204" y="650"/>
      <point x="198" y="655"/>
      <point x="189" y="655" type="curve" smooth="yes"/>
      <point x="18" y="655" type="line" smooth="yes"/>
      <point x="7" y="655"/>
      <point x="3" y="648"/>
      <point x="6" y="638" type="curve" smooth="yes"/>
      <point x="207" y="12" type="line" smooth="yes"/>
      <point x="210" y="3"/>
      <point x="216" y="0"/>
    </contour>
  </outline>
</glyph>
<glyph name="W" format="2">
  <advance width="920"/>
  <unicode hex="0057"/>
  <anchor x="460" y="0" name="bottom"/>
  <anchor x="460" y="655" name="top"/>
  <outline>
    <contour>
      <point x="192" y="0" type="curve" smooth="yes"/>
      <point x="354" y="0" type="line" smooth="yes"/>
      <point x="362" y="0"/>
      <point x="368" y="3"/>
      <point x="371" y="12" type="curve" smooth="yes"/>
      <point x="419" y="164" type="line" smooth="yes"/>
      <point x="437" y="221"/>
      <point x="449" y="269"/>
      <point x="461" y="315" type="curve"/>
      <point x="464" y="315" type="line"/>
      <point x="474" y="269"/>
      <point x="487" y="218"/>
      <point x="502" y="164" type="curve" smooth="yes"/>
      <point x="543" y="13" type="line" smooth="yes"/>
      <point x="545" y="5"/>
      <point x="552" y="0"/>
      <point x="560" y="0" type="curve" smooth="yes"/>
      <point x="729" y="0" type="line" smooth="yes"/>
      <point x="737" y="0"/>
      <point x="742" y="5"/>
      <point x="744" y="13" type="curve" smooth="yes"/>
      <point x="910" y="638" type="line" smooth="yes"/>
      <point x="913" y="649"/>
      <point x="907" y="655"/>
      <point x="897" y="655" type="curve" smooth="yes"/>
      <point x="740" y="655" type="line" smooth="yes"/>
      <point x="731" y="655"/>
      <point x="725" y="651"/>
      <point x="723" y="642" type="curve" smooth="yes"/>
      <point x="668" y="404" type="line" smooth="yes"/>
      <point x="653" y="341"/>
      <point x="643" y="233"/>
      <point x="639" y="181" type="curve"/>
      <point x="636" y="181" type="line"/>
      <point x="630" y="233"/>
      <point x="620" y="285"/>
      <point x="606" y="337" type="curve" smooth="yes"/>
      <point x="529" y="624" type="line" smooth="yes"/>
      <point x="527" y="632"/>
      <point x="522" y="636"/>
      <point x="514" y="636" type="curve" smooth="yes"/>
      <point x="362" y="636" type="line" smooth="yes"/>
      <point x="352" y="636"/>
      <point x="345" y="631"/>
      <point x="349" y="620" type="curve" smooth="yes"/>
      <point x="388" y="504" type="line"/>
      <point x="327" y="325" type="line" smooth="yes"/>
      <point x="311" y="277"/>
      <point x="298" y="229"/>
      <point x="287" y="181" type="curve"/>
      <point x="284" y="181" type="line"/>
      <point x="280" y="228"/>
      <point x="271" y="324"/>
      <point x="256" y="388" type="curve" smooth="yes"/>
      <point x="197" y="642" type="line" smooth="yes"/>
      <point x="195" y="651"/>
      <point x="189" y="655"/>
      <point x="180" y="655" type="curve" smooth="yes"/>
      <point x="23" y="655" type="line" smooth="yes"/>
      <point x="13" y="655"/>
      <point x="7" y="649"/>
      <point x="10" y="638" type="curve" smooth="yes"/>
      <point x="176" y="13" type="line" smooth="yes"/>
      <point x="178" y="5"/>
      <point x="183" y="0"/>
    </contour>
  </outline>
</glyph>
<glyph name="X" format="2">
  <advance width="626"/>
  <unicode hex="0058"/>
  <anchor x="313" y="0" name="bottom"/>
  <anchor x="313" y="655" name="top"/>
  <outline>
    <contour>
      <point x="13" y="0" type="curve" smooth="yes"/>
      <point x="193" y="0" type="line" smooth="yes"/>
      <point x="201" y="0"/>
      <point x="207" y="2"/>
      <point x="211" y="10" type="curve" smooth="yes"/>
      <point x="270" y="113" type="line" smooth="yes"/>
      <point x="281" y="132"/>
      <point x="298" y="168"/>
      <point x="311" y="198" type="curve"/>
      <point x="314" y="198" type="line"/>
      <point x="327" y="166"/>
      <point x="344" y="130"/>
      <point x="355" y="110" type="curve" smooth="yes"/>
      <point x="411" y="10" type="line" smooth="yes"/>
      <point x="416" y="2"/>
      <point x="421" y="0"/>
      <point x="429" y="0" type="curve" smooth="yes"/>
      <point x="613" y="0" type="line" smooth="yes"/>
      <point x="625" y="0"/>
      <point x="629" y="8"/>
      <point x="623" y="18" type="curve" smooth="yes"/>
      <point x="419" y="335" type="line"/>
      <point x="612" y="637" type="line" smooth="yes"/>
      <point x="618" y="647"/>
      <point x="615" y="655"/>
      <point x="603" y="655" type="curve" smooth="yes"/>
      <point x="424" y="655" type="line" smooth="yes"/>
      <point x="417" y="655"/>
      <point x="411" y="653"/>
      <point x="407" y="645" type="curve" smooth="yes"/>
      <point x="357" y="555" type="line" smooth="yes"/>
      <point x="346" y="535"/>
      <point x="328" y="495"/>
      <point x="317" y="470" type="curve"/>
      <point x="314" y="470" type="line"/>
      <point x="303" y="496"/>
      <point x="290" y="526"/>
      <point x="276" y="552" type="curve" smooth="yes"/>
      <point x="224" y="645" type="line" smooth="yes"/>
      <point x="220" y="653"/>
      <point x="214" y="655"/>
      <point x="207" y="655" type="curve" smooth="yes"/>
      <point x="24" y="655" type="line" smooth="yes"/>
      <point x="12" y="655"/>
      <point x="9" y="647"/>
      <point x="15" y="637" type="curve" smooth="yes"/>
      <point x="209" y="334" type="line"/>
      <point x="3" y="18" type="line" smooth="yes"/>
      <point x="-4" y="7"/>
      <point x="1" y="0"/>
    </contour>
  </outline>
</glyph>
<glyph name="Y" format="2">
  <advance width="616"/>
  <unicode hex="0059"/>
  <anchor x="308" y="0" name="bottom"/>
  <anchor x="308" y="655" name="top"/>
  <anchor x="10" y="655" name="topleft"/>
  <outline>
    <contour>
      <point x="230" y="0" type="curve" smooth="yes"/>
      <point x="387" y="0" type="line" smooth="yes"/>
      <point x="395" y="0"/>
      <point x="401" y="6"/>
      <point x="401" y="15" type="curve" smooth="yes"/>
      <point x="401" y="227" type="line"/>
      <point x="614" y="637" type="line" smooth="yes"/>
      <point x="619" y="647"/>
      <point x="614" y="655"/>
      <point x="603" y="655" type="curve" smooth="yes"/>
      <point x="431" y="655" type="line" smooth="yes"/>
      <point x="423" y="655"/>
      <point x="417" y="651"/>
      <point x="414" y="644" type="curve" smooth="yes"/>
      <point x="364" y="524" type="line" smooth="yes"/>
      <point x="343" y="474"/>
      <point x="325" y="430"/>
      <point x="310" y="384" type="curve"/>
      <point x="308" y="384" type="line"/>
      <point x="293" y="429"/>
      <point x="275" y="476"/>
      <point x="254" y="526" type="curve" smooth="yes"/>
      <point x="204" y="644" type="line" smooth="yes"/>
      <point x="201" y="652"/>
      <point x="195" y="655"/>
      <point x="187" y="655" type="curve" smooth="yes"/>
      <point x="13" y="655" type="line" smooth="yes"/>
      <point x="2" y="655"/>
      <point x="-3" y="647"/>
      <point x="2" y="637" type="curve" smooth="yes"/>
      <point x="215" y="227" type="line"/>
      <point x="215" y="15" type="line" smooth="yes"/>
      <point x="215" y="6"/>
      <point x="221" y="0"/>
    </contour>
  </outline>
</glyph>
<glyph name="Z" format="2">
  <advance width="578"/>
  <unicode hex="005A"/>
  <anchor x="287" y="0" name="bottom"/>
  <anchor x="302" y="655" name="top"/>
  <outline>
    <contour>
      <point x="25" y="0" type="curve" smooth="yes"/>
      <point x="526" y="0" type="line" smooth="yes"/>
      <point x="535" y="0"/>
      <point x="541" y="6"/>
      <point x="541" y="15" type="curve" smooth="yes"/>
      <point x="541" y="146" type="line" smooth="yes"/>
      <point x="541" y="154"/>
      <point x="535" y="160"/>
      <point x="526" y="160" type="curve" smooth="yes"/>
      <point x="392" y="160" type="line" smooth="yes"/>
      <point x="353" y="160"/>
      <point x="319" y="160"/>
      <point x="284" y="158" type="curve"/>
      <point x="284" y="161" type="line"/>
      <point x="306" y="194"/>
      <point x="328" y="228"/>
      <point x="348" y="262" type="curve" smooth="yes"/>
      <point x="560" y="611" type="line" smooth="yes"/>
      <point x="563" y="617"/>
      <point x="565" y="623"/>
      <point x="565" y="630" type="curve" smooth="yes"/>
      <point x="565" y="640" type="line" smooth="yes"/>
      <point x="565" y="649"/>
      <point x="559" y="655"/>
      <point x="550" y="655" type="curve" smooth="yes"/>
      <point x="52" y="655" type="line" smooth="yes"/>
      <point x="43" y="655"/>
      <point x="37" y="649"/>
      <point x="37" y="640" type="curve" smooth="yes"/>
      <point x="37" y="509" type="line" smooth="yes"/>
      <point x="37" y="501"/>
      <point x="43" y="495"/>
      <point x="52" y="495" type="curve" smooth="yes"/>
      <point x="178" y="495" type="line" smooth="yes"/>
      <point x="214" y="495"/>
      <point x="249" y="495"/>
      <point x="284" y="496" type="curve"/>
      <point x="284" y="493" type="line"/>
      <point x="264" y="463"/>
      <point x="247" y="435"/>
      <point x="229" y="405" type="curve" smooth="yes"/>
      <point x="15" y="44" type="line" smooth="yes"/>
      <point x="11" y="38"/>
      <point x="10" y="32"/>
      <point x="10" y="25" type="curve" smooth="yes"/>
      <point x="10" y="15" type="line" smooth="yes"/>
      <point x="10" y="6"/>
      <point x="16" y="0"/>
    </contour>
  </outline>
</glyph>
<glyph name="bracketleft" format="2">
  <advance width="299"/>
  <unicode hex="005B"/>
  <outline>
    <contour>
      <point x="59" y="-204" type="curve" smooth="yes"/>
      <point x="288" y="-204" type="line" smooth="yes"/>
      <point x="297" y="-204"/>
      <point x="303" y="-198"/>
      <point x="303" y="-189" type="curve" smooth="yes"/>
      <point x="303" y="-87" type="line" smooth="yes"/>
      <point x="303" y="-78"/>
      <point x="297" y="-72"/>
      <point x="288" y="-72" type="curve" smooth="yes"/>
      <point x="203" y="-72" type="line"/>
      <point x="203" y="627" type="line"/>
      <point x="288" y="627" type="line" smooth="yes"/>
      <point x="297" y="627"/>
      <point x="303" y="633"/>
      <point x="303" y="642" type="curve" smooth="yes"/>
      <point x="303" y="742" type="line" smooth="yes"/>
      <point x="303" y="751"/>
      <point x="297" y="757"/>
      <point x="288" y="757" type="curve" smooth="yes"/>
      <point x="59" y="757" type="line" smooth="yes"/>
      <point x="50" y="757"/>
      <point x="44" y="751"/>
      <point x="44" y="742" type="curve" smooth="yes"/>
      <point x="44" y="-189" type="line" smooth="yes"/>
      <point x="44" y="-198"/>
      <point x="50" y="-204"/>
    </contour>
  </outline>
</glyph>
<glyph name="backslash" format="2">
  <advance width="433"/>
  <unicode hex="005C"/>
  <outline>
    <contour>
      <point x="284" y="0" type="curve" smooth="yes"/>
      <point x="414" y="0" type="line" smooth="yes"/>
      <point x="425" y="0"/>
      <point x="430" y="6"/>
      <point x="426" y="17" type="curve" smooth="yes"/>
      <point x="167" y="643" type="line" smooth="yes"/>
      <point x="164" y="651"/>
      <point x="157" y="655"/>
      <point x="149" y="655" type="curve" smooth="yes"/>
      <point x="19" y="655" type="line" smooth="yes"/>
      <point x="8" y="655"/>
      <point x="3" y="649"/>
      <point x="7" y="638" type="curve" smooth="yes"/>
      <point x="266" y="12" type="line" smooth="yes"/>
      <point x="269" y="4"/>
      <point x="276" y="0"/>
    </contour>
  </outline>
</glyph>
<glyph name="bracketright" format="2">
  <advance width="299"/>
  <unicode hex="005D"/>
  <outline>
    <contour>
      <point x="11" y="-204" type="curve" smooth="yes"/>
      <point x="240" y="-204" type="line" smooth="yes"/>
      <point x="249" y="-204"/>
      <point x="255" y="-198"/>
      <point x="255" y="-189" type="curve" smooth="yes"/>
      <point x="255" y="742" type="line" smooth="yes"/>
      <point x="255" y="751"/>
      <point x="249" y="757"/>
      <point x="240" y="757" type="curve" smooth="yes"/>
      <point x="11" y="757" type="line" smooth="yes"/>
      <point x="2" y="757"/>
      <point x="-4" y="751"/>
      <point x="-4" y="742" type="curve" smooth="yes"/>
      <point x="-4" y="642" type="line" smooth="yes"/>
      <point x="-4" y="633"/>
      <point x="2" y="627"/>
      <point x="11" y="627" type="curve" smooth="yes"/>
      <point x="96" y="627" type="line"/>
      <point x="96" y="-72" type="line"/>
      <point x="11" y="-72" type="line" smooth="yes"/>
      <point x="2" y="-72"/>
      <point x="-4" y="-78"/>
      <point x="-4" y="-87" type="curve" smooth="yes"/>
      <point x="-4" y="-189" type="line" smooth="yes"/>
      <point x="-4" y="-198"/>
      <point x="2" y="-204"/>
    </contour>
  </outline>
</glyph>
<glyph name="asciicircum" format="2">
  <advance width="556"/>
  <unicode hex="005E"/>
  <outline>
    <contour>
      <point x="47" y="350" type="curve" smooth="yes"/>
      <point x="183" y="350" type="line" smooth="yes"/>
      <point x="191" y="350"/>
      <point x="197" y="354"/>
      <point x="200" y="361" type="curve" smooth="yes"/>
      <point x="278" y="527" type="line"/>
      <point x="356" y="361" type="line" smooth="yes"/>
      <point x="359" y="354"/>
      <point x="365" y="350"/>
      <point x="373" y="350" type="curve" smooth="yes"/>
      <point x="509" y="350" type="line" smooth="yes"/>
      <point x="520" y="350"/>
      <point x="525" y="357"/>
      <point x="519" y="368" type="curve" smooth="yes"/>
      <point x="351" y="672" type="line" smooth="yes"/>
      <point x="347" y="680"/>
      <point x="341" y="683"/>
      <point x="333" y="683" type="curve" smooth="yes"/>
      <point x="223" y="683" type="line" smooth="yes"/>
      <point x="215" y="683"/>
      <point x="209" y="680"/>
      <point x="205" y="672" type="curve" smooth="yes"/>
      <point x="37" y="368" type="line" smooth="yes"/>
      <point x="31" y="357"/>
      <point x="36" y="350"/>
    </contour>
  </outline>
</glyph>
<glyph name="underscore" format="2">
  <advance width="553"/>
  <unicode hex="005F"/>
  <outline>
    <contour>
      <point x="33" y="-186" type="curve" smooth="yes"/>
      <point x="520" y="-186" type="line" smooth="yes"/>
      <point x="529" y="-186"/>
      <point x="535" y="-180"/>
      <point x="535" y="-171" type="curve" smooth="yes"/>
      <point x="535" y="-63" type="line" smooth="yes"/>
      <point x="535" y="-54"/>
      <point x="529" y="-48"/>
      <point x="520" y="-48" type="curve" smooth="yes"/>
      <point x="33" y="-48" type="line" smooth="yes"/>
      <point x="24" y="-48"/>
      <point x="18" y="-54"/>
      <point x="18" y="-63" type="curve" smooth="yes"/>
      <point x="18" y="-171" type="line" smooth="yes"/>
      <point x="18" y="-180"/>
      <point x="24" y="-186"/>
    </contour>
  </outline>
</glyph>
<glyph name="a" format="2">
  <advance width="524"/>
  <unicode hex="0061"/>
  <anchor x="268" y="0" name="bottom"/>
  <anchor x="486" y="10" name="ogonek"/>
  <anchor x="260" y="500" name="top"/>
  <outline>
    <contour>
      <point x="344" y="0" type="curve" smooth="yes"/>
      <point x="473" y="0" type="line" smooth="yes"/>
      <point x="482.875" y="0"/>
      <point x="488" y="6"/>
      <point x="487" y="16" type="curve" smooth="yes"/>
      <point x="483" y="56"/>
      <point x="482" y="92"/>
      <point x="482" y="131" type="curve" smooth="yes"/>
      <point x="482" y="326" type="line" smooth="yes"/>
      <point x="482" y="458.118"/>
      <point x="417.978" y="512"/>
      <point x="261" y="512" type="curve" smooth="yes"/>
      <point x="105.773" y="512"/>
      <point x="33" y="456"/>
      <point x="42" y="342" type="curve" smooth="yes"/>
      <point x="43" y="333"/>
      <point x="48.857" y="328"/>
      <point x="58" y="328" type="curve" smooth="yes"/>
      <point x="193" y="328" type="line" smooth="yes"/>
      <point x="203" y="328"/>
      <point x="209" y="334"/>
      <point x="208" y="343" type="curve" smooth="yes"/>
      <point x="205" y="372"/>
      <point x="220.093" y="386"/>
      <point x="254" y="386" type="curve" smooth="yes"/>
      <point x="290.471" y="386"/>
      <point x="302" y="373.75"/>
      <point x="302" y="335" type="curve" smooth="yes"/>
      <point x="302" y="133" type="line"/>
      <point x="317" y="88" type="line"/>
      <point x="321" y="57"/>
      <point x="325" y="30"/>
      <point x="329" y="12" type="curve" smooth="yes"/>
      <point x="330.865" y="3.608"/>
      <point x="335.375" y="0"/>
    </contour>
    <contour>
      <point x="152" y="-12" type="curve" smooth="yes"/>
      <point x="236" y="-12"/>
      <point x="284" y="36"/>
      <point x="331" y="82" type="curve"/>
      <point x="319" y="171" type="line"/>
      <point x="285.877" y="131.743"/>
      <point x="258.071" y="115"/>
      <point x="226" y="115" type="curve" smooth="yes"/>
      <point x="201.385" y="115"/>
      <point x="191" y="126.571"/>
      <point x="191" y="154" type="curve" smooth="yes"/>
      <point x="191" y="189.167"/>
      <point x="208" y="204"/>
      <point x="257" y="209" type="curve" smooth="yes"/>
      <point x="315" y="215" type="line"/>
      <point x="316" y="300" type="line"/>
      <point x="225" y="291" type="line" smooth="yes"/>
      <point x="70" y="276"/>
      <point x="20" y="233"/>
      <point x="20" y="130" type="curve" smooth="yes"/>
      <point x="20" y="40.235"/>
      <point x="68.556" y="-12"/>
    </contour>
  </outline>
</glyph>
<glyph name="b" format="2">
  <advance width="547"/>
  <unicode hex="0062"/>
  <outline>
    <contour>
      <point x="287" y="-12" type="curve" smooth="yes"/>
      <point x="444" y="-12"/>
      <point x="514" y="51"/>
      <point x="514" y="191" type="curve" smooth="yes"/>
      <point x="514" y="350" type="line" smooth="yes"/>
      <point x="514" y="461"/>
      <point x="469" y="512"/>
      <point x="373" y="512" type="curve" smooth="yes"/>
      <point x="314" y="512"/>
      <point x="258" y="488"/>
      <point x="209" y="440" type="curve"/>
      <point x="206" y="320" type="line"/>
      <point x="236" y="345"/>
      <point x="265" y="358"/>
      <point x="289" y="358" type="curve" smooth="yes"/>
      <point x="321" y="358"/>
      <point x="334" y="342"/>
      <point x="334" y="304" type="curve" smooth="yes"/>
      <point x="334" y="206" type="line" smooth="yes"/>
      <point x="334" y="156"/>
      <point x="315" y="132"/>
      <point x="276" y="132" type="curve" smooth="yes"/>
      <point x="255" y="132"/>
      <point x="239" y="135"/>
      <point x="222" y="138" type="curve"/>
      <point x="222" y="668" type="line" smooth="yes"/>
      <point x="222" y="677"/>
      <point x="216" y="683"/>
      <point x="207" y="683" type="curve" smooth="yes"/>
      <point x="57" y="683" type="line" smooth="yes"/>
      <point x="48" y="683"/>
      <point x="42" y="677"/>
      <point x="42" y="668" type="curve" smooth="yes"/>
      <point x="42" y="13" type="line"/>
      <point x="124" y="6"/>
      <point x="191" y="-12"/>
    </contour>
  </outline>
</glyph>
<glyph name="c" format="2">
  <advance width="544"/>
  <unicode hex="0063"/>
  <anchor x="295" y="0" name="bottom"/>
  <anchor x="337" y="10" name="ogonek"/>
  <anchor x="273" y="500" name="top"/>
  <outline>
    <contour>
      <point x="278" y="-12" type="curve" smooth="yes"/>
      <point x="440" y="-12"/>
      <point x="519" y="69"/>
      <point x="511" y="192" type="curve" smooth="yes"/>
      <point x="510" y="201"/>
      <point x="504" y="208"/>
      <point x="495" y="208" type="curve" smooth="yes"/>
      <point x="359" y="208" type="line" smooth="yes"/>
      <point x="351" y="208"/>
      <point x="344" y="202"/>
      <point x="344" y="194" type="curve" smooth="yes"/>
      <point x="344" y="160"/>
      <point x="326" y="140"/>
      <point x="279" y="140" type="curve" smooth="yes"/>
      <point x="233" y="140"/>
      <point x="211" y="161"/>
      <point x="211" y="222" type="curve" smooth="yes"/>
      <point x="211" y="279" type="line" smooth="yes"/>
      <point x="211" y="340"/>
      <point x="233" y="361"/>
      <point x="280" y="361" type="curve" smooth="yes"/>
      <point x="320" y="361"/>
      <point x="345" y="344"/>
      <point x="345" y="307" type="curve" smooth="yes"/>
      <point x="345" y="299"/>
      <point x="352" y="293"/>
      <point x="360" y="293" type="curve" smooth="yes"/>
      <point x="496" y="293" type="line" smooth="yes"/>
      <point x="505" y="293"/>
      <point x="511" y="300"/>
      <point x="512" y="309" type="curve" smooth="yes"/>
      <point x="524" y="418"/>
      <point x="440" y="512"/>
      <point x="277" y="512" type="curve" smooth="yes"/>
      <point x="121" y="512"/>
      <point x="31" y="435"/>
      <point x="31" y="296" type="curve" smooth="yes"/>
      <point x="31" y="204" type="line" smooth="yes"/>
      <point x="31" y="65"/>
      <point x="121" y="-12"/>
    </contour>
  </outline>
</glyph>
<glyph name="d" format="2">
  <advance width="552"/>
  <unicode hex="0064"/>
  <anchor x="279" y="0" name="bottom"/>
  <anchor x="279" y="250" name="center"/>
  <anchor x="279" y="500" name="top"/>
  <anchor x="535" y="500" name="topright"/>
  <outline>
    <contour>
      <point x="174" y="-12" type="curve" smooth="yes"/>
      <point x="267" y="-12"/>
      <point x="324" y="45"/>
      <point x="366" y="89" type="curve"/>
      <point x="351" y="192" type="line"/>
      <point x="329" y="168"/>
      <point x="293" y="142"/>
      <point x="258" y="142" type="curve" smooth="yes"/>
      <point x="225" y="142"/>
      <point x="213" y="160"/>
      <point x="213" y="196" type="curve" smooth="yes"/>
      <point x="213" y="294" type="line" smooth="yes"/>
      <point x="213" y="341"/>
      <point x="230" y="368"/>
      <point x="268" y="368" type="curve" smooth="yes"/>
      <point x="290" y="368"/>
      <point x="320" y="362"/>
      <point x="347" y="346" type="curve"/>
      <point x="345" y="480" type="line"/>
      <point x="306" y="501"/>
      <point x="246" y="512"/>
      <point x="206" y="512" type="curve" smooth="yes"/>
      <point x="96" y="512"/>
      <point x="33" y="457"/>
      <point x="33" y="308" type="curve" smooth="yes"/>
      <point x="33" y="150" type="line" smooth="yes"/>
      <point x="33" y="37"/>
      <point x="80" y="-12"/>
    </contour>
    <contour>
      <point x="372" y="0" type="curve" smooth="yes"/>
      <point x="501" y="0" type="line" smooth="yes"/>
      <point x="511" y="0"/>
      <point x="516" y="6"/>
      <point x="515" y="16" type="curve" smooth="yes"/>
      <point x="512" y="51"/>
      <point x="510" y="87"/>
      <point x="510" y="131" type="curve" smooth="yes"/>
      <point x="510" y="668" type="line" smooth="yes"/>
      <point x="510" y="677"/>
      <point x="504" y="683"/>
      <point x="495" y="683" type="curve" smooth="yes"/>
      <point x="345" y="683" type="line" smooth="yes"/>
      <point x="336" y="683"/>
      <point x="330" y="677"/>
      <point x="330" y="668" type="curve" smooth="yes"/>
      <point x="330" y="155" type="line"/>
      <point x="347" y="88" type="line"/>
      <point x="348" y="61"/>
      <point x="352" y="33"/>
      <point x="357" y="12" type="curve" smooth="yes"/>
      <point x="359" y="3"/>
      <point x="364" y="0"/>
    </contour>
  </outline>
</glyph>
<glyph name="f" format="2">
  <advance width="408"/>
  <unicode hex="0066"/>
  <anchor x="204" y="0" name="bottom"/>
  <anchor x="204" y="500" name="top"/>
  <outline>
    <contour>
      <point x="108" y="0" type="curve" smooth="yes"/>
      <point x="258" y="0" type="line" smooth="yes"/>
      <point x="266" y="0"/>
      <point x="273" y="7"/>
      <point x="273" y="15" type="curve" smooth="yes"/>
      <point x="273" y="352" type="line"/>
      <point x="372" y="352" type="line" smooth="yes"/>
      <point x="380" y="352"/>
      <point x="387" y="359"/>
      <point x="387" y="367" type="curve" smooth="yes"/>
      <point x="387" y="484" type="line" smooth="yes"/>
      <point x="387" y="493"/>
      <point x="382" y="500"/>
      <point x="371" y="500" type="curve" smooth="yes"/>
      <point x="273" y="500" type="line"/>
      <point x="273" y="508" type="line" smooth="yes"/>
      <point x="273" y="541"/>
      <point x="288" y="557"/>
      <point x="330" y="557" type="curve" smooth="yes"/>
      <point x="360" y="557"/>
      <point x="385" y="552"/>
      <point x="406" y="546" type="curve" smooth="yes"/>
      <point x="418" y="543"/>
      <point x="424" y="547"/>
      <point x="424" y="559" type="curve" smooth="yes"/>
      <point x="424" y="668" type="line" smooth="yes"/>
      <point x="424" y="675"/>
      <point x="422" y="680"/>
      <point x="414" y="682" type="curve" smooth="yes"/>
      <point x="390" y="688"/>
      <point x="338" y="695"/>
      <point x="281" y="695" type="curve" smooth="yes"/>
      <point x="156" y="695"/>
      <point x="93" y="640"/>
      <point x="93" y="523" type="curve" smooth="yes"/>
      <point x="93" y="500" type="line"/>
      <point x="25" y="500" type="line" smooth="yes"/>
      <point x="17" y="500"/>
      <point x="10" y="493"/>
      <point x="10" y="485" type="curve" smooth="yes"/>
      <point x="10" y="367" type="line" smooth="yes"/>
      <point x="10" y="359"/>
      <point x="17" y="352"/>
      <point x="25" y="352" type="curve" smooth="yes"/>
      <point x="93" y="352" type="line"/>
      <point x="93" y="15" type="line" smooth="yes"/>
      <point x="93" y="7"/>
      <point x="100" y="0"/>
    </contour>
  </outline>
</glyph>
<glyph name="g" format="2">
  <advance width="526"/>
  <unicode hex="0067"/>
  <guideline x="273" y="-197" angle="0"/>
  <anchor x="260" y="0" name="bottom"/>
  <anchor x="260" y="500" name="top"/>
  <outline>
    <contour>
      <point x="252" y="-197" type="curve" smooth="yes"/>
      <point x="441" y="-197"/>
      <point x="520" y="-147"/>
      <point x="520" y="-34" type="curve" smooth="yes"/>
      <point x="520" y="62"/>
      <point x="479" y="113"/>
      <point x="362" y="121" type="curve" smooth="yes"/>
      <point x="211" y="131" type="line" smooth="yes"/>
      <point x="192" y="132"/>
      <point x="187" y="137"/>
      <point x="187" y="146" type="curve" smooth="yes"/>
      <point x="187" y="155"/>
      <point x="192" y="167"/>
      <point x="215" y="174" type="curve"/>
      <point x="110" y="207" type="line"/>
      <point x="57" y="180"/>
      <point x="39" y="140"/>
      <point x="39" y="95" type="curve" smooth="yes"/>
      <point x="39" y="38"/>
      <point x="74" y="1"/>
      <point x="141" y="-4" type="curve" smooth="yes"/>
      <point x="318" y="-17" type="line" smooth="yes"/>
      <point x="336" y="-18"/>
      <point x="344" y="-26"/>
      <point x="344" y="-41" type="curve" smooth="yes"/>
      <point x="344" y="-62"/>
      <point x="333" y="-70"/>
      <point x="261" y="-69" type="curve" smooth="yes"/>
      <point x="204" y="-68"/>
      <point x="185" y="-60"/>
      <point x="185" y="-39" type="curve" smooth="yes"/>
      <point x="185" y="-24"/>
      <point x="193" y="-10"/>
      <point x="215" y="1" type="curve"/>
      <point x="81" y="35" type="line"/>
      <point x="26" y="6"/>
      <point x="7" y="-35"/>
      <point x="7" y="-79" type="curve" smooth="yes"/>
      <point x="7" y="-156"/>
      <point x="80" y="-197"/>
    </contour>
    <contour>
      <point x="265" y="162" type="curve" smooth="yes"/>
      <point x="410" y="162"/>
      <point x="479" y="218"/>
      <point x="479" y="334" type="curve" smooth="yes"/>
      <point x="479" y="455"/>
      <point x="411" y="512"/>
      <point x="265" y="512" type="curve" smooth="yes"/>
      <point x="119" y="512"/>
      <point x="51" y="455"/>
      <point x="51" y="334" type="curve" smooth="yes"/>
      <point x="51" y="218"/>
      <point x="120" y="162"/>
    </contour>
    <contour>
      <point x="265" y="286" type="curve" smooth="yes"/>
      <point x="230" y="286"/>
      <point x="219" y="302"/>
      <point x="219" y="337" type="curve" smooth="yes"/>
      <point x="219" y="372"/>
      <point x="230" y="388"/>
      <point x="265" y="388" type="curve" smooth="yes"/>
      <point x="300" y="388"/>
      <point x="311" y="372"/>
      <point x="311" y="337" type="curve" smooth="yes"/>
      <point x="311" y="302"/>
      <point x="300" y="286"/>
    </contour>
    <contour>
      <point x="417" y="457" type="line"/>
      <point x="418" y="504"/>
      <point x="430" y="559"/>
      <point x="447" y="609" type="curve" smooth="yes"/>
      <point x="451" y="620"/>
      <point x="447" y="626"/>
      <point x="434" y="626" type="curve" smooth="yes"/>
      <point x="322" y="626" type="line" smooth="yes"/>
      <point x="316" y="626"/>
      <point x="311" y="622"/>
      <point x="310" y="614" type="curve" smooth="yes"/>
      <point x="306" y="582"/>
      <point x="301" y="536"/>
      <point x="303" y="496" type="curve"/>
    </contour>
  </outline>
</glyph>
<glyph name="h" format="2">
  <advance width="563"/>
  <unicode hex="0068"/>
  <anchor x="282" y="0" name="bottom"/>
  <anchor x="282" y="250" name="center"/>
  <anchor x="282" y="500" name="top"/>
  <outline>
    <contour>
      <point x="356" y="0" type="curve" smooth="yes"/>
      <point x="506" y="0" type="line" smooth="yes"/>
      <point x="515" y="0"/>
      <point x="521" y="6"/>
      <point x="521" y="15" type="curve" smooth="yes"/>
      <point x="521" y="350" type="line" smooth="yes"/>
      <point x="521" y="463"/>
      <point x="474" y="512"/>
      <point x="380" y="512" type="curve" smooth="yes"/>
      <point x="288" y="512"/>
      <point x="230" y="456"/>
      <point x="188" y="413" type="curve"/>
      <point x="203" y="308" type="line"/>
      <point x="225" y="332"/>
      <point x="261" y="358"/>
      <point x="296" y="358" type="curve" smooth="yes"/>
      <point x="329" y="358"/>
      <point x="341" y="340"/>
      <point x="341" y="304" type="curve" smooth="yes"/>
      <point x="341" y="15" type="line" smooth="yes"/>
      <point x="341" y="6"/>
      <point x="347" y="0"/>
    </contour>
    <contour>
      <point x="57" y="0" type="curve" smooth="yes"/>
      <point x="207" y="0" type="line" smooth="yes"/>
      <point x="216" y="0"/>
      <point x="222" y="6"/>
      <point x="222" y="15" type="curve" smooth="yes"/>
      <point x="222" y="668" type="line" smooth="yes"/>
      <point x="222" y="677"/>
      <point x="216" y="683"/>
      <point x="207" y="683" type="curve" smooth="yes"/>
      <point x="57" y="683" type="line" smooth="yes"/>
      <point x="48" y="683"/>
      <point x="42" y="677"/>
      <point x="42" y="668" type="curve" smooth="yes"/>
      <point x="42" y="15" type="line" smooth="yes"/>
      <point x="42" y="6"/>
      <point x="48" y="0"/>
    </contour>
  </outline>
</glyph>
<glyph name="l" format="2">
  <advance width="264"/>
  <unicode hex="006C"/>
  <anchor x="134" y="0" name="bottom"/>
  <anchor x="132" y="250" name="center"/>
  <anchor x="131" y="683" name="top"/>
  <anchor x="244" y="500" name="topright"/>
  <outline>
    <contour>
      <point x="57" y="0" type="curve" smooth="yes"/>
      <point x="207" y="0" type="line" smooth="yes"/>
      <point x="216" y="0"/>
      <point x="222" y="6"/>
      <point x="222" y="15" type="curve" smooth="yes"/>
      <point x="222" y="668" type="line" smooth="yes"/>
      <point x="222" y="677"/>
      <point x="216" y="683"/>
      <point x="207" y="683" type="curve" smooth="yes"/>
      <point x="57" y="683" type="line" smooth="yes"/>
      <point x="48" y="683"/>
      <point x="42" y="677"/>
      <point x="42" y="668" type="curve" smooth="yes"/>
      <point x="42" y="15" type="line" smooth="yes"/>
      <point x="42" y="6"/>
      <point x="48" y="0"/>
    </contour>
  </outline>
</glyph>
<glyph name="m" format="2">
  <advance width="830"/>
  <unicode hex="006D"/>
  <anchor x="415" y="0" name="bottom"/>
  <anchor x="415" y="500" name="top"/>
  <outline>
    <contour>
      <point x="57" y="0" type="curve" smooth="yes"/>
      <point x="207" y="0" type="line" smooth="yes"/>
      <point x="216" y="0"/>
      <point x="222" y="6"/>
      <point x="222" y="15" type="curve" smooth="yes"/>
      <point x="222" y="330" type="line"/>
      <point x="238" y="344"/>
      <point x="257" y="358"/>
      <point x="282" y="358" type="curve" smooth="yes"/>
      <point x="314" y="358"/>
      <point x="325" y="340"/>
      <point x="325" y="304" type="curve" smooth="yes"/>
      <point x="325" y="15" type="line" smooth="yes"/>
      <point x="325" y="6"/>
      <point x="331" y="0"/>
      <point x="340" y="0" type="curve" smooth="yes"/>
      <point x="490" y="0" type="line" smooth="yes"/>
      <point x="499" y="0"/>
      <point x="505" y="6"/>
      <point x="505" y="15" type="curve" smooth="yes"/>
      <point x="505" y="330" type="line"/>
      <point x="521" y="344"/>
      <point x="540" y="358"/>
      <point x="565" y="358" type="curve" smooth="yes"/>
      <point x="597" y="358"/>
      <point x="608" y="340"/>
      <point x="608" y="304" type="curve" smooth="yes"/>
      <point x="608" y="15" type="line" smooth="yes"/>
      <point x="608" y="6"/>
      <point x="614" y="0"/>
      <point x="623" y="0" type="curve" smooth="yes"/>
      <point x="773" y="0" type="line" smooth="yes"/>
      <point x="782" y="0"/>
      <point x="788" y="6"/>
      <point x="788" y="15" type="curve" smooth="yes"/>
      <point x="788" y="350" type="line" smooth="yes"/>
      <point x="788" y="463"/>
      <point x="741" y="512"/>
      <point x="647" y="512" type="curve" smooth="yes"/>
      <point x="575" y="512"/>
      <point x="522" y="471"/>
      <point x="486" y="435" type="curve"/>
      <point x="468" y="487"/>
      <point x="437" y="512"/>
      <point x="364" y="512" type="curve" smooth="yes"/>
      <point x="288" y="512"/>
      <point x="241" y="468"/>
      <point x="204" y="429" type="curve"/>
      <point x="202" y="450"/>
      <point x="199" y="472"/>
      <point x="195" y="488" type="curve" smooth="yes"/>
      <point x="193" y="497"/>
      <point x="188" y="500"/>
      <point x="180" y="500" type="curve" smooth="yes"/>
      <point x="51" y="500" type="line" smooth="yes"/>
      <point x="41" y="500"/>
      <point x="36" y="494"/>
      <point x="37" y="484" type="curve" smooth="yes"/>
      <point x="40" y="449"/>
      <point x="42" y="413"/>
      <point x="42" y="369" type="curve" smooth="yes"/>
      <point x="42" y="15" type="line" smooth="yes"/>
      <point x="42" y="6"/>
      <point x="48" y="0"/>
    </contour>
  </outline>
</glyph>
<glyph name="n" format="2">
  <advance width="563"/>
  <unicode hex="006E"/>
  <anchor x="-37" y="500" name="apo"/>
  <anchor x="288" y="0" name="bottom"/>
  <anchor x="279" y="500" name="top"/>
  <outline>
    <contour>
      <point x="356" y="0" type="curve" smooth="yes"/>
      <point x="506" y="0" type="line" smooth="yes"/>
      <point x="515" y="0"/>
      <point x="521" y="6"/>
      <point x="521" y="15" type="curve" smooth="yes"/>
      <point x="521" y="350" type="line" smooth="yes"/>
      <point x="521" y="463"/>
      <point x="474" y="512"/>
      <point x="380" y="512" type="curve" smooth="yes"/>
      <point x="288" y="512"/>
      <point x="230" y="456"/>
      <point x="188" y="413" type="curve"/>
      <point x="203" y="308" type="line"/>
      <point x="225" y="332"/>
      <point x="261" y="358"/>
      <point x="296" y="358" type="curve" smooth="yes"/>
      <point x="329" y="358"/>
      <point x="341" y="340"/>
      <point x="341" y="304" type="curve" smooth="yes"/>
      <point x="341" y="15" type="line" smooth="yes"/>
      <point x="341" y="6"/>
      <point x="347" y="0"/>
    </contour>
    <contour>
      <point x="57" y="0" type="curve" smooth="yes"/>
      <point x="207" y="0" type="line" smooth="yes"/>
      <point x="216" y="0"/>
      <point x="222" y="6"/>
      <point x="222" y="15" type="curve" smooth="yes"/>
      <point x="222" y="345" type="line"/>
      <point x="205" y="412" type="line"/>
      <point x="204" y="439"/>
      <point x="200" y="467"/>
      <point x="195" y="488" type="curve" smooth="yes"/>
      <point x="193" y="497"/>
      <point x="188" y="500"/>
      <point x="180" y="500" type="curve" smooth="yes"/>
      <point x="51" y="500" type="line" smooth="yes"/>
      <point x="41" y="500"/>
      <point x="36" y="494"/>
      <point x="37" y="484" type="curve" smooth="yes"/>
      <point x="40" y="449"/>
      <point x="42" y="413"/>
      <point x="42" y="369" type="curve" smooth="yes"/>
      <point x="42" y="15" type="line" smooth="yes"/>
      <point x="42" y="6"/>
      <point x="48" y="0"/>
    </contour>
  </outline>
</glyph>
<glyph name="p" format="2">
  <advance width="547"/>
  <unicode hex="0070"/>
  <anchor x="273" y="0" name="bottom"/>
  <anchor x="273" y="500" name="top"/>
  <outline>
    <contour>
      <point x="341" y="-12" type="curve" smooth="yes"/>
      <point x="451" y="-12"/>
      <point x="514" y="43"/>
      <point x="514" y="192" type="curve" smooth="yes"/>
      <point x="514" y="350" type="line" smooth="yes"/>
      <point x="514" y="463"/>
      <point x="467" y="512"/>
      <point x="373" y="512" type="curve" smooth="yes"/>
      <point x="281" y="512"/>
      <point x="223" y="456"/>
      <point x="181" y="413" type="curve"/>
      <point x="196" y="308" type="line"/>
      <point x="218" y="332"/>
      <point x="254" y="358"/>
      <point x="289" y="358" type="curve" smooth="yes"/>
      <point x="322" y="358"/>
      <point x="334" y="340"/>
      <point x="334" y="304" type="curve" smooth="yes"/>
      <point x="334" y="206" type="line" smooth="yes"/>
      <point x="334" y="159"/>
      <point x="317" y="132"/>
      <point x="279" y="132" type="curve" smooth="yes"/>
      <point x="257" y="132"/>
      <point x="227" y="138"/>
      <point x="200" y="154" type="curve"/>
      <point x="202" y="20" type="line"/>
      <point x="241" y="-1"/>
      <point x="301" y="-12"/>
    </contour>
    <contour>
      <point x="57" y="-185" type="curve" smooth="yes"/>
      <point x="207" y="-185" type="line" smooth="yes"/>
      <point x="216" y="-185"/>
      <point x="222" y="-179"/>
      <point x="222" y="-170" type="curve" smooth="yes"/>
      <point x="222" y="345" type="line"/>
      <point x="205" y="412" type="line"/>
      <point x="204" y="439"/>
      <point x="200" y="467"/>
      <point x="195" y="488" type="curve" smooth="yes"/>
      <point x="193" y="497"/>
      <point x="188" y="500"/>
      <point x="180" y="500" type="curve" smooth="yes"/>
      <point x="51" y="500" type="line" smooth="yes"/>
      <point x="41" y="500"/>
      <point x="36" y="494"/>
      <point x="37" y="484" type="curve" smooth="yes"/>
      <point x="40" y="449"/>
      <point x="42" y="413"/>
      <point x="42" y="369" type="curve" smooth="yes"/>
      <point x="42" y="-170" type="line" smooth="yes"/>
      <point x="42" y="-179"/>
      <point x="48" y="-185"/>
    </contour>
  </outline>
</glyph>
<glyph name="q" format="2">
  <advance width="552"/>
  <unicode hex="0071"/>
  <anchor x="277" y="0" name="bottom"/>
  <anchor x="277" y="500" name="top"/>
  <outline>
    <contour>
      <point x="345" y="-185" type="curve" smooth="yes"/>
      <point x="495" y="-185" type="line" smooth="yes"/>
      <point x="504" y="-185"/>
      <point x="510" y="-179"/>
      <point x="510" y="-170" type="curve" smooth="yes"/>
      <point x="510" y="490" type="line"/>
      <point x="428" y="495"/>
      <point x="358" y="512"/>
      <point x="260" y="512" type="curve" smooth="yes"/>
      <point x="103" y="512"/>
      <point x="33" y="449"/>
      <point x="33" y="309" type="curve" smooth="yes"/>
      <point x="33" y="150" type="line" smooth="yes"/>
      <point x="33" y="39"/>
      <point x="78" y="-12"/>
      <point x="174" y="-12" type="curve" smooth="yes"/>
      <point x="235" y="-12"/>
      <point x="293" y="12"/>
      <point x="343" y="60" type="curve"/>
      <point x="344" y="179" type="line"/>
      <point x="317" y="157"/>
      <point x="287" y="142"/>
      <point x="258" y="142" type="curve" smooth="yes"/>
      <point x="226" y="142"/>
      <point x="213" y="158"/>
      <point x="213" y="196" type="curve" smooth="yes"/>
      <point x="213" y="294" type="line" smooth="yes"/>
      <point x="213" y="344"/>
      <point x="232" y="368"/>
      <point x="271" y="368" type="curve" smooth="yes"/>
      <point x="296" y="368"/>
      <point x="313" y="365"/>
      <point x="330" y="362" type="curve"/>
      <point x="330" y="-170" type="line" smooth="yes"/>
      <point x="330" y="-179"/>
      <point x="336" y="-185"/>
    </contour>
  </outline>
</glyph>
<glyph name="r" format="2">
  <advance width="383"/>
  <unicode hex="0072"/>
  <anchor x="136" y="0" name="bottom"/>
  <anchor x="211" y="500" name="top"/>
  <outline>
    <contour>
      <point x="57" y="0" type="curve" smooth="yes"/>
      <point x="207" y="0" type="line" smooth="yes"/>
      <point x="216" y="0"/>
      <point x="222" y="6"/>
      <point x="222" y="15" type="curve" smooth="yes"/>
      <point x="222" y="345" type="line"/>
      <point x="205" y="412" type="line"/>
      <point x="204" y="439"/>
      <point x="200" y="467"/>
      <point x="195" y="488" type="curve" smooth="yes"/>
      <point x="193" y="497"/>
      <point x="188" y="500"/>
      <point x="180" y="500" type="curve" smooth="yes"/>
      <point x="51" y="500" type="line" smooth="yes"/>
      <point x="41" y="500"/>
      <point x="36" y="494"/>
      <point x="37" y="484" type="curve" smooth="yes"/>
      <point x="40" y="449"/>
      <point x="42" y="413"/>
      <point x="42" y="369" type="curve" smooth="yes"/>
      <point x="42" y="15" type="line" smooth="yes"/>
      <point x="42" y="6"/>
      <point x="48" y="0"/>
    </contour>
    <contour>
      <point x="212" y="273" type="line"/>
      <point x="248" y="322"/>
      <point x="292" y="341"/>
      <point x="327" y="341" type="curve" smooth="yes"/>
      <point x="338" y="341"/>
      <point x="351" y="339"/>
      <point x="357" y="338" type="curve" smooth="yes"/>
      <point x="369" y="336"/>
      <point x="373" y="341"/>
      <point x="374" y="352" type="curve" smooth="yes"/>
      <point x="378" y="396"/>
      <point x="378" y="451"/>
      <point x="378" y="490" type="curve" smooth="yes"/>
      <point x="378" y="499"/>
      <point x="376" y="505"/>
      <point x="367" y="508" type="curve" smooth="yes"/>
      <point x="359" y="511"/>
      <point x="352" y="512"/>
      <point x="341" y="512" type="curve" smooth="yes"/>
      <point x="297" y="512"/>
      <point x="239" y="470"/>
      <point x="199" y="414" type="curve"/>
    </contour>
  </outline>
</glyph>
<glyph name="s" format="2">
  <advance width="483"/>
  <unicode hex="0073"/>
  <anchor x="267" y="0" name="bottom"/>
  <anchor x="243" y="500" name="top"/>
  <outline>
    <contour>
      <point x="238" y="-12" type="curve" smooth="yes"/>
      <point x="389" y="-12"/>
      <point x="463" y="40"/>
      <point x="463" y="145" type="curve" smooth="yes"/>
      <point x="463" y="217"/>
      <point x="435" y="255"/>
      <point x="367" y="283" type="curve" smooth="yes"/>
      <point x="252" y="330" type="line" smooth="yes"/>
      <point x="221" y="343"/>
      <point x="212" y="352"/>
      <point x="212" y="366" type="curve" smooth="yes"/>
      <point x="212" y="385"/>
      <point x="223" y="393"/>
      <point x="250" y="393" type="curve" smooth="yes"/>
      <point x="276" y="393"/>
      <point x="289" y="382"/>
      <point x="289" y="361" type="curve" smooth="yes"/>
      <point x="289" y="351"/>
      <point x="294" y="345"/>
      <point x="303" y="345" type="curve" smooth="yes"/>
      <point x="438" y="345" type="line" smooth="yes"/>
      <point x="448" y="345"/>
      <point x="454" y="351"/>
      <point x="454" y="360" type="curve" smooth="yes"/>
      <point x="454" y="464"/>
      <point x="392" y="512"/>
      <point x="241" y="512" type="curve" smooth="yes"/>
      <point x="94" y="512"/>
      <point x="32" y="465"/>
      <point x="32" y="366" type="curve" smooth="yes"/>
      <point x="32" y="297"/>
      <point x="59" y="257"/>
      <point x="120" y="231" type="curve" smooth="yes"/>
      <point x="236" y="181" type="line" smooth="yes"/>
      <point x="272" y="166"/>
      <point x="283" y="158"/>
      <point x="283" y="139" type="curve" smooth="yes"/>
      <point x="283" y="116"/>
      <point x="270" y="107"/>
      <point x="238" y="107" type="curve" smooth="yes"/>
      <point x="213" y="107"/>
      <point x="197" y="123"/>
      <point x="197" y="150" type="curve" smooth="yes"/>
      <point x="197" y="161"/>
      <point x="192" y="166"/>
      <point x="183" y="166" type="curve" smooth="yes"/>
      <point x="48" y="166" type="line" smooth="yes"/>
      <point x="39" y="166"/>
      <point x="33" y="161"/>
      <point x="32" y="151" type="curve" smooth="yes"/>
      <point x="20" y="36"/>
      <point x="83" y="-12"/>
    </contour>
  </outline>
</glyph>
<glyph name="t" format="2">
  <advance width="413"/>
  <unicode hex="0074"/>
  <anchor x="269" y="0" name="bottom"/>
  <anchor x="226" y="250" name="center"/>
  <anchor x="226" y="500" name="top"/>
  <anchor x="382" y="580" name="topright"/>
  <outline>
    <contour>
      <point x="281" y="-12" type="curve" smooth="yes"/>
      <point x="315" y="-12"/>
      <point x="356" y="-7"/>
      <point x="386" y="4" type="curve" smooth="yes"/>
      <point x="394" y="7"/>
      <point x="398" y="13"/>
      <point x="398" y="21" type="curve" smooth="yes"/>
      <point x="398" y="140" type="line" smooth="yes"/>
      <point x="398" y="151"/>
      <point x="392" y="156"/>
      <point x="381" y="152" type="curve" smooth="yes"/>
      <point x="356" y="144"/>
      <point x="335" y="141"/>
      <point x="316" y="141" type="curve" smooth="yes"/>
      <point x="283" y="141"/>
      <point x="268" y="163"/>
      <point x="268" y="200" type="curve" smooth="yes"/>
      <point x="268" y="352" type="line"/>
      <point x="382" y="352" type="line" smooth="yes"/>
      <point x="391" y="352"/>
      <point x="397" y="358"/>
      <point x="397" y="367" type="curve" smooth="yes"/>
      <point x="397" y="485" type="line" smooth="yes"/>
      <point x="397" y="494"/>
      <point x="391" y="500"/>
      <point x="382" y="500" type="curve" smooth="yes"/>
      <point x="268" y="500" type="line"/>
      <point x="268" y="618" type="line" smooth="yes"/>
      <point x="268" y="627"/>
      <point x="262" y="633"/>
      <point x="253" y="633" type="curve" smooth="yes"/>
      <point x="128" y="633" type="line" smooth="yes"/>
      <point x="119" y="633"/>
      <point x="114" y="629"/>
      <point x="112" y="619" type="curve" smooth="yes"/>
      <point x="94" y="500" type="line"/>
      <point x="20" y="500" type="line" smooth="yes"/>
      <point x="11" y="500"/>
      <point x="5" y="494"/>
      <point x="5" y="485" type="curve" smooth="yes"/>
      <point x="5" y="367" type="line" smooth="yes"/>
      <point x="5" y="358"/>
      <point x="11" y="352"/>
      <point x="20" y="352" type="curve" smooth="yes"/>
      <point x="88" y="352" type="line"/>
      <point x="88" y="186" type="line" smooth="yes"/>
      <point x="88" y="39"/>
      <point x="138" y="-12"/>
    </contour>
  </outline>
</glyph>
<glyph name="v" format="2">
  <advance width="546"/>
  <unicode hex="0076"/>
  <anchor x="273" y="0" name="bottom"/>
  <anchor x="273" y="500" name="top"/>
  <outline>
    <contour>
      <point x="182" y="0" type="curve" smooth="yes"/>
      <point x="363" y="0" type="line" smooth="yes"/>
      <point x="371" y="0"/>
      <point x="377" y="3"/>
      <point x="380" y="12" type="curve" smooth="yes"/>
      <point x="535" y="483" type="line" smooth="yes"/>
      <point x="538" y="493"/>
      <point x="534" y="500"/>
      <point x="523" y="500" type="curve" smooth="yes"/>
      <point x="361" y="500" type="line" smooth="yes"/>
      <point x="352" y="500"/>
      <point x="346" y="495"/>
      <point x="344" y="487" type="curve" smooth="yes"/>
      <point x="300" y="301" type="line" smooth="yes"/>
      <point x="289" y="256"/>
      <point x="280" y="214"/>
      <point x="273" y="169" type="curve"/>
      <point x="270" y="169" type="line"/>
      <point x="264" y="213"/>
      <point x="256" y="255"/>
      <point x="246" y="299" type="curve" smooth="yes"/>
      <point x="203" y="487" type="line" smooth="yes"/>
      <point x="201" y="495"/>
      <point x="195" y="500"/>
      <point x="186" y="500" type="curve" smooth="yes"/>
      <point x="23" y="500" type="line" smooth="yes"/>
      <point x="12" y="500"/>
      <point x="8" y="493"/>
      <point x="11" y="483" type="curve" smooth="yes"/>
      <point x="165" y="12" type="line" smooth="yes"/>
      <point x="168" y="3"/>
      <point x="174" y="0"/>
    </contour>
  </outline>
</glyph>
<glyph name="w" format="2">
  <advance width="788"/>
  <unicode hex="0077"/>
  <anchor x="394" y="0" name="bottom"/>
  <anchor x="394" y="500" name="top"/>
  <outline>
    <contour>
      <point x="187" y="0" type="curve" smooth="yes"/>
      <point x="333" y="0" type="line" smooth="yes"/>
      <point x="341" y="0"/>
      <point x="348" y="5"/>
      <point x="350" y="13" type="curve" smooth="yes"/>
      <point x="364" y="67" type="line" smooth="yes"/>
      <point x="375" y="109"/>
      <point x="385" y="152"/>
      <point x="392" y="224" type="curve"/>
      <point x="396" y="224" type="line"/>
      <point x="403" y="152"/>
      <point x="411" y="109"/>
      <point x="423" y="67" type="curve" smooth="yes"/>
      <point x="438" y="13" type="line" smooth="yes"/>
      <point x="440" y="5"/>
      <point x="447" y="0"/>
      <point x="455" y="0" type="curve" smooth="yes"/>
      <point x="601" y="0" type="line" smooth="yes"/>
      <point x="609" y="0"/>
      <point x="615" y="3"/>
      <point x="618" y="12" type="curve" smooth="yes"/>
      <point x="769" y="483" type="line" smooth="yes"/>
      <point x="772" y="493"/>
      <point x="768" y="500"/>
      <point x="757" y="500" type="curve" smooth="yes"/>
      <point x="599" y="500" type="line" smooth="yes"/>
      <point x="590" y="500"/>
      <point x="585" y="495"/>
      <point x="583" y="486" type="curve" smooth="yes"/>
      <point x="547" y="309" type="line" smooth="yes"/>
      <point x="538" y="263"/>
      <point x="529" y="216"/>
      <point x="526" y="170" type="curve"/>
      <point x="522" y="170" type="line"/>
      <point x="513" y="215"/>
      <point x="506" y="259"/>
      <point x="497" y="304" type="curve" smooth="yes"/>
      <point x="464" y="475" type="line" smooth="yes"/>
      <point x="462" y="484"/>
      <point x="456" y="488"/>
      <point x="447" y="488" type="curve" smooth="yes"/>
      <point x="311" y="488" type="line" smooth="yes"/>
      <point x="301" y="488"/>
      <point x="296" y="482"/>
      <point x="298" y="471" type="curve" smooth="yes"/>
      <point x="316" y="378" type="line"/>
      <point x="297" y="298" type="line" smooth="yes"/>
      <point x="287" y="255"/>
      <point x="276" y="213"/>
      <point x="266" y="170" type="curve"/>
      <point x="262" y="170" type="line"/>
      <point x="257" y="215"/>
      <point x="251" y="259"/>
      <point x="242" y="304" type="curve" smooth="yes"/>
      <point x="205" y="486" type="line" smooth="yes"/>
      <point x="203" y="495"/>
      <point x="198" y="500"/>
      <point x="189" y="500" type="curve" smooth="yes"/>
      <point x="31" y="500" type="line" smooth="yes"/>
      <point x="20" y="500"/>
      <point x="16" y="493"/>
      <point x="19" y="483" type="curve" smooth="yes"/>
      <point x="170" y="12" type="line" smooth="yes"/>
      <point x="173" y="3"/>
      <point x="179" y="0"/>
    </contour>
  </outline>
</glyph>
<glyph name="x" format="2">
  <advance width="555"/>
  <unicode hex="0078"/>
  <anchor x="278" y="0" name="bottom"/>
  <anchor x="278" y="500" name="top"/>
  <outline>
    <contour>
      <point x="19" y="0" type="curve" smooth="yes"/>
      <point x="190" y="0" type="line" smooth="yes"/>
      <point x="198" y="0"/>
      <point x="204" y="2"/>
      <point x="208" y="10" type="curve" smooth="yes"/>
      <point x="236" y="64" type="line" smooth="yes"/>
      <point x="250" y="90"/>
      <point x="263" y="120"/>
      <point x="276" y="147" type="curve"/>
      <point x="278" y="147" type="line"/>
      <point x="292" y="119"/>
      <point x="305" y="90"/>
      <point x="319" y="63" type="curve" smooth="yes"/>
      <point x="347" y="10" type="line" smooth="yes"/>
      <point x="351" y="2"/>
      <point x="357" y="0"/>
      <point x="365" y="0" type="curve" smooth="yes"/>
      <point x="536" y="0" type="line" smooth="yes"/>
      <point x="548" y="0"/>
      <point x="553" y="7"/>
      <point x="546" y="18" type="curve" smooth="yes"/>
      <point x="385" y="258" type="line"/>
      <point x="534" y="482" type="line" smooth="yes"/>
      <point x="541" y="493"/>
      <point x="536" y="500"/>
      <point x="524" y="500" type="curve" smooth="yes"/>
      <point x="354" y="500" type="line" smooth="yes"/>
      <point x="346" y="500"/>
      <point x="340" y="497"/>
      <point x="336" y="489" type="curve" smooth="yes"/>
      <point x="311" y="436" type="line" smooth="yes"/>
      <point x="300" y="412"/>
      <point x="290" y="388"/>
      <point x="279" y="364" type="curve"/>
      <point x="277" y="364" type="line"/>
      <point x="267" y="387"/>
      <point x="257" y="413"/>
      <point x="246" y="435" type="curve" smooth="yes"/>
      <point x="218" y="490" type="line" smooth="yes"/>
      <point x="214" y="498"/>
      <point x="208" y="500"/>
      <point x="200" y="500" type="curve" smooth="yes"/>
      <point x="29" y="500" type="line" smooth="yes"/>
      <point x="17" y="500"/>
      <point x="12" y="493"/>
      <point x="19" y="482" type="curve" smooth="yes"/>
      <point x="169" y="257" type="line"/>
      <point x="9" y="18" type="line" smooth="yes"/>
      <point x="2" y="7"/>
      <point x="7" y="0"/>
    </contour>
  </outline>
</glyph>
<glyph name="y" format="2">
  <advance width="540"/>
  <unicode hex="0079"/>
  <anchor x="274" y="0" name="bottom"/>
  <anchor x="274" y="500" name="top"/>
  <outline>
    <contour>
      <point x="140" y="-185" type="curve" smooth="yes"/>
      <point x="284" y="-185" type="line" smooth="yes"/>
      <point x="292" y="-185"/>
      <point x="298" y="-182"/>
      <point x="301" y="-173" type="curve" smooth="yes"/>
      <point x="531" y="483" type="line" smooth="yes"/>
      <point x="535" y="494"/>
      <point x="530" y="500"/>
      <point x="519" y="500" type="curve" smooth="yes"/>
      <point x="357" y="500" type="line" smooth="yes"/>
      <point x="348" y="500"/>
      <point x="342" y="496"/>
      <point x="340" y="487" type="curve" smooth="yes"/>
      <point x="302" y="349" type="line" smooth="yes"/>
      <point x="290" y="305"/>
      <point x="282" y="258"/>
      <point x="274" y="204" type="curve"/>
      <point x="270" y="204" type="line"/>
      <point x="262" y="258"/>
      <point x="253" y="307"/>
      <point x="241" y="351" type="curve" smooth="yes"/>
      <point x="203" y="487" type="line" smooth="yes"/>
      <point x="201" y="495"/>
      <point x="195" y="500"/>
      <point x="186" y="500" type="curve" smooth="yes"/>
      <point x="23" y="500" type="line" smooth="yes"/>
      <point x="12" y="500"/>
      <point x="7" y="494"/>
      <point x="11" y="483" type="curve" smooth="yes"/>
      <point x="188" y="0" type="line"/>
      <point x="128" y="-168" type="line" smooth="yes"/>
      <point x="124" y="-178"/>
      <point x="129" y="-185"/>
    </contour>
  </outline>
</glyph>
<glyph name="z" format="2">
  <advance width="489"/>
  <unicode hex="007A"/>
  <guideline x="35" y="321" angle="90"/>
  <guideline x="456" y="312" angle="90"/>
  <anchor x="241" y="0" name="bottom"/>
  <anchor x="252" y="500" name="top"/>
  <outline>
    <contour>
      <point x="22" y="0" type="curve" smooth="yes"/>
      <point x="441" y="0" type="line" smooth="yes"/>
      <point x="450" y="0"/>
      <point x="456" y="6"/>
      <point x="456" y="15" type="curve" smooth="yes"/>
      <point x="456" y="133" type="line" smooth="yes"/>
      <point x="456" y="142"/>
      <point x="450" y="148"/>
      <point x="441" y="148" type="curve" smooth="yes"/>
      <point x="369" y="148" type="line" smooth="yes"/>
      <point x="332" y="148"/>
      <point x="310" y="148"/>
      <point x="267" y="147" type="curve"/>
      <point x="267" y="150" type="line"/>
      <point x="292" y="185"/>
      <point x="317" y="217"/>
      <point x="339" y="251" type="curve" smooth="yes"/>
      <point x="465" y="447" type="line" smooth="yes"/>
      <point x="477" y="465"/>
      <point x="479" y="473"/>
      <point x="479" y="480" type="curve" smooth="yes"/>
      <point x="479" y="485" type="line" smooth="yes"/>
      <point x="479" y="494"/>
      <point x="473" y="500"/>
      <point x="463" y="500" type="curve" smooth="yes"/>
      <point x="50" y="500" type="line" smooth="yes"/>
      <point x="41" y="500"/>
      <point x="35" y="494"/>
      <point x="35" y="485" type="curve" smooth="yes"/>
      <point x="35" y="367" type="line" smooth="yes"/>
      <point x="35" y="358"/>
      <point x="41" y="352"/>
      <point x="50" y="352" type="curve" smooth="yes"/>
      <point x="123" y="352" type="line" smooth="yes"/>
      <point x="156" y="352"/>
      <point x="183" y="353"/>
      <point x="215" y="354" type="curve"/>
      <point x="215" y="351" type="line"/>
      <point x="195" y="324"/>
      <point x="172" y="287"/>
      <point x="151" y="255" type="curve" smooth="yes"/>
      <point x="12" y="39" type="line" smooth="yes"/>
      <point x="8" y="32"/>
      <point x="7" y="27"/>
      <point x="7" y="20" type="curve" smooth="yes"/>
      <point x="7" y="15" type="line" smooth="yes"/>
      <point x="7" y="6"/>
      <point x="13" y="0"/>
    </contour>
  </outline>
</glyph>
<glyph name="braceleft" format="2">
  <advance width="335"/>
  <unicode hex="007B"/>
  <outline>
    <contour>
      <point x="320" y="-204" type="curve" smooth="yes"/>
      <point x="329" y="-204"/>
      <point x="335" y="-198"/>
      <point x="335" y="-189" type="curve" smooth="yes"/>
      <point x="335" y="-87" type="line" smooth="yes"/>
      <point x="335" y="-78"/>
      <point x="329" y="-72"/>
      <point x="320" y="-72" type="curve" smooth="yes"/>
      <point x="261" y="-72"/>
      <point x="245" y="-52"/>
      <point x="245" y="-8" type="curve" smooth="yes"/>
      <point x="245" y="175" type="line" smooth="yes"/>
      <point x="245" y="228"/>
      <point x="215" y="269"/>
      <point x="163" y="278" type="curve"/>
      <point x="215" y="287"/>
      <point x="245" y="328"/>
      <point x="245" y="381" type="curve" smooth="yes"/>
      <point x="245" y="563" type="line" smooth="yes"/>
      <point x="245" y="607"/>
      <point x="261" y="627"/>
      <point x="320" y="627" type="curve" smooth="yes"/>
      <point x="329" y="627"/>
      <point x="335" y="633"/>
      <point x="335" y="642" type="curve" smooth="yes"/>
      <point x="335" y="744" type="line" smooth="yes"/>
      <point x="335" y="753"/>
      <point x="330" y="759"/>
      <point x="320" y="759" type="curve" smooth="yes"/>
      <point x="153" y="759"/>
      <point x="86" y="697"/>
      <point x="86" y="542" type="curve" smooth="yes"/>
      <point x="86" y="375" type="line" smooth="yes"/>
      <point x="86" y="359"/>
      <point x="78" y="349"/>
      <point x="61" y="349" type="curve" smooth="yes"/>
      <point x="25" y="349" type="line" smooth="yes"/>
      <point x="16" y="349"/>
      <point x="10" y="343"/>
      <point x="10" y="334" type="curve" smooth="yes"/>
      <point x="10" y="222" type="line" smooth="yes"/>
      <point x="10" y="213"/>
      <point x="16" y="207"/>
      <point x="25" y="207" type="curve" smooth="yes"/>
      <point x="61" y="207" type="line" smooth="yes"/>
      <point x="78" y="207"/>
      <point x="86" y="197"/>
      <point x="86" y="181" type="curve" smooth="yes"/>
      <point x="86" y="13" type="line" smooth="yes"/>
      <point x="86" y="-142"/>
      <point x="153" y="-204"/>
    </contour>
  </outline>
</glyph>
<glyph name="bar" format="2">
  <advance width="269"/>
  <unicode hex="007C"/>
  <outline>
    <contour>
      <point x="70" y="-184" type="curve" smooth="yes"/>
      <point x="199" y="-184" type="line" smooth="yes"/>
      <point x="208" y="-184"/>
      <point x="214" y="-178"/>
      <point x="214" y="-169" type="curve" smooth="yes"/>
      <point x="214" y="814" type="line" smooth="yes"/>
      <point x="214" y="823"/>
      <point x="208" y="829"/>
      <point x="199" y="829" type="curve" smooth="yes"/>
      <point x="70" y="829" type="line" smooth="yes"/>
      <point x="61" y="829"/>
      <point x="55" y="823"/>
      <point x="55" y="814" type="curve" smooth="yes"/>
      <point x="55" y="-169" type="line" smooth="yes"/>
      <point x="55" y="-178"/>
      <point x="61" y="-184"/>
    </contour>
  </outline>
</glyph>
<glyph name="braceright" format="2">
  <advance width="335"/>
  <unicode hex="007D"/>
  <outline>
    <contour>
      <point x="15" y="-204" type="curve" smooth="yes"/>
      <point x="182" y="-204"/>
      <point x="249" y="-142"/>
      <point x="249" y="13" type="curve" smooth="yes"/>
      <point x="249" y="181" type="line" smooth="yes"/>
      <point x="249" y="197"/>
      <point x="257" y="207"/>
      <point x="274" y="207" type="curve" smooth="yes"/>
      <point x="310" y="207" type="line" smooth="yes"/>
      <point x="319" y="207"/>
      <point x="325" y="213"/>
      <point x="325" y="222" type="curve" smooth="yes"/>
      <point x="325" y="334" type="line" smooth="yes"/>
      <point x="325" y="343"/>
      <point x="319" y="349"/>
      <point x="310" y="349" type="curve" smooth="yes"/>
      <point x="274" y="349" type="line" smooth="yes"/>
      <point x="257" y="349"/>
      <point x="249" y="359"/>
      <point x="249" y="375" type="curve" smooth="yes"/>
      <point x="249" y="542" type="line" smooth="yes"/>
      <point x="249" y="697"/>
      <point x="182" y="759"/>
      <point x="15" y="759" type="curve" smooth="yes"/>
      <point x="5" y="759"/>
      <point x="0" y="753"/>
      <point x="0" y="744" type="curve" smooth="yes"/>
      <point x="0" y="642" type="line" smooth="yes"/>
      <point x="0" y="633"/>
      <point x="6" y="627"/>
      <point x="15" y="627" type="curve" smooth="yes"/>
      <point x="74" y="627"/>
      <point x="90" y="607"/>
      <point x="90" y="563" type="curve" smooth="yes"/>
      <point x="90" y="381" type="line" smooth="yes"/>
      <point x="90" y="328"/>
      <point x="120" y="287"/>
      <point x="172" y="278" type="curve"/>
      <point x="120" y="269"/>
      <point x="90" y="228"/>
      <point x="90" y="175" type="curve" smooth="yes"/>
      <point x="90" y="-8" type="line" smooth="yes"/>
      <point x="90" y="-52"/>
      <point x="74" y="-72"/>
      <point x="15" y="-72" type="curve" smooth="yes"/>
      <point x="6" y="-72"/>
      <point x="0" y="-78"/>
      <point x="0" y="-87" type="curve" smooth="yes"/>
      <point x="0" y="-189" type="line" smooth="yes"/>
      <point x="0" y="-198"/>
      <point x="6" y="-204"/>
    </contour>
  </outline>
</glyph>
<glyph name="asciitilde" format="2">
  <advance width="600"/>
  <unicode hex="007E"/>
  <outline>
    <contour>
      <point x="390" y="211" type="curve" smooth="yes"/>
      <point x="457" y="211"/>
      <point x="499" y="230"/>
      <point x="516" y="237" type="curve" smooth="yes"/>
      <point x="521" y="239"/>
      <point x="523" y="244"/>
      <point x="523" y="249" type="curve" smooth="yes"/>
      <point x="523" y="369" type="line" smooth="yes"/>
      <point x="523" y="376"/>
      <point x="519" y="379"/>
      <point x="512" y="377" type="curve" smooth="yes"/>
      <point x="490" y="371"/>
      <point x="441" y="354"/>
      <point x="392" y="354" type="curve" smooth="yes"/>
      <point x="315" y="354"/>
      <point x="293" y="386"/>
      <point x="210" y="386" type="curve" smooth="yes"/>
      <point x="141" y="386"/>
      <point x="99" y="365"/>
      <point x="82" y="358" type="curve" smooth="yes"/>
      <point x="77" y="356"/>
      <point x="77" y="354"/>
      <point x="77" y="348" type="curve" smooth="yes"/>
      <point x="77" y="228" type="line" smooth="yes"/>
      <point x="77" y="221"/>
      <point x="81" y="218"/>
      <point x="88" y="220" type="curve" smooth="yes"/>
      <point x="110" y="226"/>
      <point x="159" y="243"/>
      <point x="208" y="243" type="curve" smooth="yes"/>
      <point x="287" y="243"/>
      <point x="307" y="211"/>
    </contour>
  </outline>
</glyph>
<glyph name="exclamdown" format="2">
  <advance width="304"/>
  <unicode hex="00A1"/>
  <outline>
    <contour>
      <point x="76" y="258" type="line" smooth="yes"/>
      <point x="67" y="258"/>
      <point x="61" y="252"/>
      <point x="61" y="243" type="curve" smooth="yes"/>
      <point x="47" y="-140" type="line" smooth="yes"/>
      <point x="47" y="-149"/>
      <point x="53" y="-155"/>
      <point x="62" y="-155" type="curve" smooth="yes"/>
      <point x="243" y="-155" type="line" smooth="yes"/>
      <point x="252" y="-155"/>
      <point x="258" y="-149"/>
      <point x="258" y="-140" type="curve" smooth="yes"/>
      <point x="244" y="243" type="line" smooth="yes"/>
      <point x="244" y="252"/>
      <point x="238" y="258"/>
      <point x="229" y="258" type="curve" smooth="yes"/>
    </contour>
    <contour>
      <point x="152" y="512" type="curve" smooth="yes"/>
      <point x="86" y="512"/>
      <point x="46" y="484"/>
      <point x="46" y="423" type="curve" smooth="yes"/>
      <point x="46" y="396" type="line" smooth="yes"/>
      <point x="46" y="333"/>
      <point x="86" y="306"/>
      <point x="152" y="306" type="curve" smooth="yes"/>
      <point x="220" y="306"/>
      <point x="258" y="333"/>
      <point x="258" y="396" type="curve" smooth="yes"/>
      <point x="258" y="423" type="line" smooth="yes"/>
      <point x="258" y="484"/>
      <point x="220" y="512"/>
    </contour>
  </outline>
</glyph>
<glyph name="cent" format="2">
  <advance width="630"/>
  <unicode hex="00A2"/>
  <outline>
    <contour>
      <point x="228" y="544" type="line"/>
      <point x="384" y="539" type="line"/>
      <point x="384" y="627" type="line" smooth="yes"/>
      <point x="384" y="633"/>
      <point x="380" y="637"/>
      <point x="374" y="637" type="curve" smooth="yes"/>
      <point x="238" y="637" type="line" smooth="yes"/>
      <point x="232" y="637"/>
      <point x="228" y="633"/>
      <point x="228" y="627" type="curve" smooth="yes"/>
    </contour>
    <contour>
      <point x="238" y="-37" type="curve" smooth="yes"/>
      <point x="374" y="-37" type="line" smooth="yes"/>
      <point x="380" y="-37"/>
      <point x="384" y="-33"/>
      <point x="384" y="-27" type="curve" smooth="yes"/>
      <point x="384" y="61" type="line"/>
      <point x="228" y="56" type="line"/>
      <point x="228" y="-27" type="line" smooth="yes"/>
      <point x="228" y="-33"/>
      <point x="232" y="-37"/>
    </contour>
    <component base="c" xOffset="28" yOffset="50"/>
  </outline>
</glyph>
<glyph name="sterling" format="2">
  <advance width="630"/>
  <unicode hex="00A3"/>
  <outline>
    <contour>
      <point x="87" y="0" type="curve" smooth="yes"/>
      <point x="560" y="0" type="line" smooth="yes"/>
      <point x="570" y="0"/>
      <point x="575" y="5"/>
      <point x="575" y="15" type="curve" smooth="yes"/>
      <point x="575" y="138" type="line" smooth="yes"/>
      <point x="575" y="148"/>
      <point x="570" y="153"/>
      <point x="560" y="153" type="curve" smooth="yes"/>
      <point x="260" y="153" type="line"/>
      <point x="285" y="181"/>
      <point x="295" y="216"/>
      <point x="295" y="263" type="curve" smooth="yes"/>
      <point x="295" y="452" type="line" smooth="yes"/>
      <point x="295" y="501"/>
      <point x="312" y="520"/>
      <point x="351" y="520" type="curve" smooth="yes"/>
      <point x="393" y="520"/>
      <point x="410" y="500"/>
      <point x="406" y="463" type="curve" smooth="yes"/>
      <point x="405" y="453"/>
      <point x="410" y="448"/>
      <point x="420" y="448" type="curve" smooth="yes"/>
      <point x="554" y="448" type="line" smooth="yes"/>
      <point x="564" y="448"/>
      <point x="568" y="453"/>
      <point x="569" y="463" type="curve" smooth="yes"/>
      <point x="580" y="595"/>
      <point x="502" y="667"/>
      <point x="341" y="667" type="curve" smooth="yes"/>
      <point x="188" y="667"/>
      <point x="117" y="603"/>
      <point x="117" y="468" type="curve" smooth="yes"/>
      <point x="117" y="248" type="line" smooth="yes"/>
      <point x="117" y="203"/>
      <point x="101" y="164"/>
      <point x="79" y="137" type="curve" smooth="yes"/>
      <point x="74" y="131"/>
      <point x="72" y="125"/>
      <point x="72" y="118" type="curve" smooth="yes"/>
      <point x="72" y="15" type="line" smooth="yes"/>
      <point x="72" y="5"/>
      <point x="77" y="0"/>
    </contour>
    <contour>
      <point x="63" y="248" type="curve" smooth="yes"/>
      <point x="424" y="248" type="line" smooth="yes"/>
      <point x="434" y="248"/>
      <point x="439" y="253"/>
      <point x="439" y="263" type="curve" smooth="yes"/>
      <point x="439" y="371" type="line" smooth="yes"/>
      <point x="439" y="381"/>
      <point x="434" y="386"/>
      <point x="424" y="386" type="curve" smooth="yes"/>
      <point x="63" y="386" type="line" smooth="yes"/>
      <point x="53" y="386"/>
      <point x="48" y="381"/>
      <point x="48" y="371" type="curve" smooth="yes"/>
      <point x="48" y="263" type="line" smooth="yes"/>
      <point x="48" y="253"/>
      <point x="53" y="248"/>
    </contour>
  </outline>
</glyph>
<glyph name="currency" format="2">
  <advance width="640"/>
  <unicode hex="00A4"/>
  <outline>
    <contour>
      <point x="153" y="77" type="curve" smooth="yes"/>
      <point x="219" y="133" type="line"/>
      <point x="248" y="119"/>
      <point x="282" y="111"/>
      <point x="320" y="111" type="curve" smooth="yes"/>
      <point x="358" y="111"/>
      <point x="392" y="119"/>
      <point x="421" y="133" type="curve"/>
      <point x="487" y="77" type="line"/>
      <point x="491" y="73"/>
      <point x="496" y="73"/>
      <point x="501" y="79" type="curve" smooth="yes"/>
      <point x="582" y="175" type="line" smooth="yes"/>
      <point x="586" y="180"/>
      <point x="585" y="185"/>
      <point x="581" y="189" type="curve"/>
      <point x="516" y="244" type="line"/>
      <point x="522" y="265"/>
      <point x="526" y="289"/>
      <point x="526" y="314" type="curve" smooth="yes"/>
      <point x="526" y="339"/>
      <point x="522" y="363"/>
      <point x="516" y="384" type="curve"/>
      <point x="581" y="439" type="line"/>
      <point x="585" y="443"/>
      <point x="586" y="448"/>
      <point x="582" y="453" type="curve" smooth="yes"/>
      <point x="501" y="549" type="line" smooth="yes"/>
      <point x="496" y="555"/>
      <point x="491" y="555"/>
      <point x="487" y="551" type="curve"/>
      <point x="421" y="495" type="line"/>
      <point x="392" y="509"/>
      <point x="358" y="517"/>
      <point x="320" y="517" type="curve" smooth="yes"/>
      <point x="282" y="517"/>
      <point x="248" y="509"/>
      <point x="219" y="495" type="curve"/>
      <point x="153" y="551" type="line"/>
      <point x="149" y="555"/>
      <point x="144" y="555"/>
      <point x="139" y="549" type="curve" smooth="yes"/>
      <point x="58" y="453" type="line" smooth="yes"/>
      <point x="54" y="448"/>
      <point x="55" y="443"/>
      <point x="59" y="439" type="curve"/>
      <point x="124" y="384" type="line"/>
      <point x="118" y="363"/>
      <point x="114" y="339"/>
      <point x="114" y="314" type="curve" smooth="yes"/>
      <point x="114" y="289"/>
      <point x="118" y="265"/>
      <point x="124" y="244" type="curve"/>
      <point x="59" y="189" type="line"/>
      <point x="55" y="185"/>
      <point x="54" y="180"/>
      <point x="58" y="175" type="curve" smooth="yes"/>
      <point x="139" y="79" type="line" smooth="yes"/>
      <point x="144" y="73"/>
      <point x="148" y="73"/>
    </contour>
    <contour>
      <point x="320" y="257" type="curve" smooth="yes"/>
      <point x="281" y="257"/>
      <point x="259" y="276"/>
      <point x="259" y="314" type="curve" smooth="yes"/>
      <point x="259" y="352"/>
      <point x="281" y="371"/>
      <point x="320" y="371" type="curve" smooth="yes"/>
      <point x="359" y="371"/>
      <point x="381" y="352"/>
      <point x="381" y="314" type="curve" smooth="yes"/>
      <point x="381" y="276"/>
      <point x="359" y="257"/>
    </contour>
  </outline>
</glyph>
<glyph name="yen" format="2">
  <advance width="640"/>
  <unicode hex="00A5"/>
  <outline>
    <contour>
      <point x="242" y="0" type="curve" smooth="yes"/>
      <point x="399" y="0" type="line" smooth="yes"/>
      <point x="407" y="0"/>
      <point x="413" y="6"/>
      <point x="413" y="15" type="curve" smooth="yes"/>
      <point x="413" y="227" type="line"/>
      <point x="612" y="637" type="line" smooth="yes"/>
      <point x="617" y="647"/>
      <point x="612" y="655"/>
      <point x="601" y="655" type="curve" smooth="yes"/>
      <point x="429" y="655" type="line" smooth="yes"/>
      <point x="421" y="655"/>
      <point x="415" y="651"/>
      <point x="412" y="644" type="curve" smooth="yes"/>
      <point x="359" y="500" type="line" smooth="yes"/>
      <point x="346" y="465"/>
      <point x="336" y="430"/>
      <point x="322" y="394" type="curve"/>
      <point x="320" y="394" type="line"/>
      <point x="307" y="429"/>
      <point x="292" y="468"/>
      <point x="280" y="501" type="curve" smooth="yes"/>
      <point x="230" y="644" type="line" smooth="yes"/>
      <point x="227" y="652"/>
      <point x="221" y="655"/>
      <point x="213" y="655" type="curve" smooth="yes"/>
      <point x="39" y="655" type="line" smooth="yes"/>
      <point x="28" y="655"/>
      <point x="23" y="647"/>
      <point x="28" y="637" type="curve" smooth="yes"/>
      <point x="227" y="227" type="line"/>
      <point x="227" y="15" type="line" smooth="yes"/>
      <point x="227" y="6"/>
      <point x="233" y="0"/>
    </contour>
    <contour>
      <point x="119" y="81" type="curve" smooth="yes"/>
      <point x="521" y="81" type="line" smooth="yes"/>
      <point x="531" y="81"/>
      <point x="536" y="86"/>
      <point x="536" y="96" type="curve" smooth="yes"/>
      <point x="536" y="166" type="line" smooth="yes"/>
      <point x="536" y="176"/>
      <point x="531" y="181"/>
      <point x="521" y="181" type="curve" smooth="yes"/>
      <point x="119" y="181" type="line" smooth="yes"/>
      <point x="109" y="181"/>
      <point x="104" y="176"/>
      <point x="104" y="166" type="curve" smooth="yes"/>
      <point x="104" y="96" type="line" smooth="yes"/>
      <point x="104" y="86"/>
      <point x="109" y="81"/>
    </contour>
    <contour>
      <point x="119" y="227" type="curve" smooth="yes"/>
      <point x="521" y="227" type="line" smooth="yes"/>
      <point x="531" y="227"/>
      <point x="536" y="232"/>
      <point x="536" y="242" type="curve" smooth="yes"/>
      <point x="536" y="312" type="line" smooth="yes"/>
      <point x="536" y="322"/>
      <point x="531" y="327"/>
      <point x="521" y="327" type="curve" smooth="yes"/>
      <point x="119" y="327" type="line" smooth="yes"/>
      <point x="109" y="327"/>
      <point x="104" y="322"/>
      <point x="104" y="312" type="curve" smooth="yes"/>
      <point x="104" y="242" type="line" smooth="yes"/>
      <point x="104" y="232"/>
      <point x="109" y="227"/>
    </contour>
  </outline>
</glyph>
<glyph name="brokenbar" format="2">
  <advance width="269"/>
  <unicode hex="00A6"/>
  <outline>
    <contour>
      <point x="70" y="-185" type="curve" smooth="yes"/>
      <point x="199" y="-185" type="line" smooth="yes"/>
      <point x="208" y="-185"/>
      <point x="214" y="-179"/>
      <point x="214" y="-170" type="curve" smooth="yes"/>
      <point x="214" y="238" type="line" smooth="yes"/>
      <point x="214" y="247"/>
      <point x="208" y="253"/>
      <point x="199" y="253" type="curve" smooth="yes"/>
      <point x="70" y="253" type="line" smooth="yes"/>
      <point x="61" y="253"/>
      <point x="55" y="247"/>
      <point x="55" y="238" type="curve" smooth="yes"/>
      <point x="55" y="-170" type="line" smooth="yes"/>
      <point x="55" y="-179"/>
      <point x="61" y="-185"/>
    </contour>
    <contour>
      <point x="70" y="392" type="curve" smooth="yes"/>
      <point x="199" y="392" type="line" smooth="yes"/>
      <point x="208" y="392"/>
      <point x="214" y="398"/>
      <point x="214" y="407" type="curve" smooth="yes"/>
      <point x="214" y="814" type="line" smooth="yes"/>
      <point x="214" y="823"/>
      <point x="208" y="829"/>
      <point x="199" y="829" type="curve" smooth="yes"/>
      <point x="70" y="829" type="line" smooth="yes"/>
      <point x="61" y="829"/>
      <point x="55" y="823"/>
      <point x="55" y="814" type="curve" smooth="yes"/>
      <point x="55" y="407" type="line" smooth="yes"/>
      <point x="55" y="398"/>
      <point x="61" y="392"/>
    </contour>
  </outline>
</glyph>
<glyph name="section" format="2">
  <advance width="523"/>
  <unicode hex="00A7"/>
  <outline>
    <contour>
      <point x="293" y="121" type="line"/>
      <point x="424" y="121"/>
      <point x="498" y="167"/>
      <point x="498" y="262" type="curve" smooth="yes"/>
      <point x="498" y="328"/>
      <point x="459" y="371"/>
      <point x="415" y="403" type="curve" smooth="yes"/>
      <point x="281" y="499" type="line" smooth="yes"/>
      <point x="255" y="518"/>
      <point x="237" y="532"/>
      <point x="237" y="548" type="curve" smooth="yes"/>
      <point x="237" y="568"/>
      <point x="248" y="576"/>
      <point x="274" y="576" type="curve" smooth="yes"/>
      <point x="304" y="576"/>
      <point x="316" y="565"/>
      <point x="316" y="537" type="curve" smooth="yes"/>
      <point x="316" y="527"/>
      <point x="322" y="521"/>
      <point x="331" y="521" type="curve" smooth="yes"/>
      <point x="466" y="521" type="line" smooth="yes"/>
      <point x="476" y="521"/>
      <point x="482" y="527"/>
      <point x="482" y="536" type="curve" smooth="yes"/>
      <point x="482" y="647"/>
      <point x="423" y="695"/>
      <point x="268" y="695" type="curve" smooth="yes"/>
      <point x="121" y="695"/>
      <point x="55" y="653"/>
      <point x="55" y="559" type="curve" smooth="yes"/>
      <point x="55" y="493"/>
      <point x="98" y="454"/>
      <point x="148" y="417" type="curve" smooth="yes"/>
      <point x="262" y="334" type="line" smooth="yes"/>
      <point x="293" y="311"/>
      <point x="322" y="292"/>
      <point x="322" y="269" type="curve" smooth="yes"/>
      <point x="322" y="244"/>
      <point x="300" y="231"/>
      <point x="273" y="229" type="curve"/>
    </contour>
    <contour>
      <point x="249" y="-118" type="curve" smooth="yes"/>
      <point x="395" y="-118"/>
      <point x="468" y="-76"/>
      <point x="468" y="21" type="curve" smooth="yes"/>
      <point x="468" y="87"/>
      <point x="426" y="122"/>
      <point x="376" y="159" type="curve" smooth="yes"/>
      <point x="261" y="243" type="line" smooth="yes"/>
      <point x="229" y="267"/>
      <point x="201" y="284"/>
      <point x="201" y="309" type="curve" smooth="yes"/>
      <point x="201" y="334"/>
      <point x="223" y="346"/>
      <point x="250" y="348" type="curve"/>
      <point x="230" y="456" type="line"/>
      <point x="101" y="455"/>
      <point x="25" y="409"/>
      <point x="25" y="314" type="curve" smooth="yes"/>
      <point x="25" y="246"/>
      <point x="64" y="205"/>
      <point x="108" y="174" type="curve" smooth="yes"/>
      <point x="242" y="78" type="line" smooth="yes"/>
      <point x="268" y="59"/>
      <point x="286" y="45"/>
      <point x="286" y="28" type="curve" smooth="yes"/>
      <point x="286" y="8"/>
      <point x="275" y="1"/>
      <point x="249" y="1" type="curve" smooth="yes"/>
      <point x="219" y="1"/>
      <point x="207" y="12"/>
      <point x="207" y="40" type="curve" smooth="yes"/>
      <point x="207" y="50"/>
      <point x="201" y="56"/>
      <point x="192" y="56" type="curve" smooth="yes"/>
      <point x="57" y="56" type="line" smooth="yes"/>
      <point x="47" y="56"/>
      <point x="41" y="50"/>
      <point x="41" y="41" type="curve" smooth="yes"/>
      <point x="41" y="-70"/>
      <point x="93" y="-118"/>
    </contour>
  </outline>
</glyph>
<glyph name="copyright" format="2">
  <advance width="686"/>
  <unicode hex="00A9"/>
  <outline>
    <contour>
      <point x="343" y="-12" type="curve" smooth="yes"/>
      <point x="561" y="-12"/>
      <point x="646" y="103"/>
      <point x="646" y="261" type="curve" smooth="yes"/>
      <point x="646" y="343" type="line" smooth="yes"/>
      <point x="646" y="501"/>
      <point x="561" y="616"/>
      <point x="343" y="616" type="curve" smooth="yes"/>
      <point x="125" y="616"/>
      <point x="40" y="501"/>
      <point x="40" y="343" type="curve" smooth="yes"/>
      <point x="40" y="261" type="line" smooth="yes"/>
      <point x="40" y="103"/>
      <point x="125" y="-12"/>
    </contour>
    <contour>
      <point x="343" y="72" type="curve" smooth="yes"/>
      <point x="199" y="72"/>
      <point x="133" y="141"/>
      <point x="133" y="252" type="curve" smooth="yes"/>
      <point x="133" y="352" type="line" smooth="yes"/>
      <point x="133" y="463"/>
      <point x="199" y="532"/>
      <point x="343" y="532" type="curve" smooth="yes"/>
      <point x="487" y="532"/>
      <point x="553" y="463"/>
      <point x="553" y="352" type="curve" smooth="yes"/>
      <point x="553" y="252" type="line" smooth="yes"/>
      <point x="553" y="141"/>
      <point x="487" y="72"/>
    </contour>
    <contour>
      <point x="344" y="137" type="curve" smooth="yes"/>
      <point x="434" y="137"/>
      <point x="481" y="180"/>
      <point x="481" y="265" type="curve" smooth="yes"/>
      <point x="481" y="274"/>
      <point x="477" y="278"/>
      <point x="468" y="278" type="curve" smooth="yes"/>
      <point x="397" y="278" type="line" smooth="yes"/>
      <point x="388" y="278"/>
      <point x="384" y="273"/>
      <point x="384" y="265" type="curve" smooth="yes"/>
      <point x="384" y="241"/>
      <point x="373" y="226"/>
      <point x="343" y="226" type="curve" smooth="yes"/>
      <point x="313" y="226"/>
      <point x="300" y="243"/>
      <point x="300" y="279" type="curve" smooth="yes"/>
      <point x="300" y="325" type="line" smooth="yes"/>
      <point x="300" y="361"/>
      <point x="312" y="378"/>
      <point x="343" y="378" type="curve" smooth="yes"/>
      <point x="374" y="378"/>
      <point x="387" y="360"/>
      <point x="384" y="337" type="curve" smooth="yes"/>
      <point x="383" y="329"/>
      <point x="387" y="326"/>
      <point x="396" y="326" type="curve" smooth="yes"/>
      <point x="468" y="326" type="line" smooth="yes"/>
      <point x="477" y="326"/>
      <point x="481" y="330"/>
      <point x="481" y="339" type="curve" smooth="yes"/>
      <point x="481" y="424"/>
      <point x="431" y="467"/>
      <point x="343" y="467" type="curve" smooth="yes"/>
      <point x="254" y="467"/>
      <point x="204" y="425"/>
      <point x="204" y="333" type="curve" smooth="yes"/>
      <point x="204" y="271" type="line" smooth="yes"/>
      <point x="204" y="179"/>
      <point x="256" y="137"/>
    </contour>
  </outline>
</glyph>
<glyph name="ordfeminine" format="2">
  <advance width="415"/>
  <unicode hex="00AA"/>
  <outline>
    <contour>
      <point x="136" y="296" type="curve" smooth="yes"/>
      <point x="191" y="296"/>
      <point x="219" y="324"/>
      <point x="249" y="354" type="curve"/>
      <point x="251" y="339"/>
      <point x="253" y="324"/>
      <point x="256" y="313" type="curve" smooth="yes"/>
      <point x="258" y="306"/>
      <point x="261" y="304"/>
      <point x="266" y="304" type="curve" smooth="yes"/>
      <point x="358" y="304" type="line" smooth="yes"/>
      <point x="365" y="304"/>
      <point x="368" y="309"/>
      <point x="368" y="315" type="curve" smooth="yes"/>
      <point x="368" y="341"/>
      <point x="364" y="366"/>
      <point x="364" y="397" type="curve" smooth="yes"/>
      <point x="364" y="535" type="line" smooth="yes"/>
      <point x="364" y="622"/>
      <point x="328" y="667"/>
      <point x="207" y="667" type="curve" smooth="yes"/>
      <point x="111" y="667"/>
      <point x="51" y="635"/>
      <point x="58" y="547" type="curve"/>
      <point x="58" y="541"/>
      <point x="63" y="536"/>
      <point x="70" y="536" type="curve" smooth="yes"/>
      <point x="165" y="536" type="line" smooth="yes"/>
      <point x="172" y="536"/>
      <point x="177" y="541"/>
      <point x="176" y="548" type="curve" smooth="yes"/>
      <point x="173" y="566"/>
      <point x="182" y="577"/>
      <point x="203" y="577" type="curve" smooth="yes"/>
      <point x="232" y="577"/>
      <point x="237" y="566"/>
      <point x="237" y="542" type="curve" smooth="yes"/>
      <point x="237" y="516" type="line"/>
      <point x="188" y="511" type="line" smooth="yes"/>
      <point x="91" y="501"/>
      <point x="42" y="480"/>
      <point x="42" y="397" type="curve" smooth="yes"/>
      <point x="42" y="325"/>
      <point x="84" y="296"/>
    </contour>
    <contour>
      <point x="67" y="137" type="curve" smooth="yes"/>
      <point x="358" y="137" type="line" smooth="yes"/>
      <point x="367" y="137"/>
      <point x="373" y="143"/>
      <point x="373" y="152" type="curve" smooth="yes"/>
      <point x="373" y="248" type="line" smooth="yes"/>
      <point x="373" y="257"/>
      <point x="367" y="263"/>
      <point x="358" y="263" type="curve" smooth="yes"/>
      <point x="67" y="263" type="line" smooth="yes"/>
      <point x="58" y="263"/>
      <point x="52" y="257"/>
      <point x="52" y="248" type="curve" smooth="yes"/>
      <point x="52" y="152" type="line" smooth="yes"/>
      <point x="52" y="143"/>
      <point x="58" y="137"/>
    </contour>
    <contour>
      <point x="189" y="385" type="curve" smooth="yes"/>
      <point x="171" y="385"/>
      <point x="163" y="395"/>
      <point x="163" y="413" type="curve" smooth="yes"/>
      <point x="163" y="439"/>
      <point x="178" y="450"/>
      <point x="201" y="452" type="curve" smooth="yes"/>
      <point x="237" y="456" type="line"/>
      <point x="237" y="412" type="line"/>
      <point x="222" y="396"/>
      <point x="205" y="385"/>
    </contour>
  </outline>
</glyph>
<glyph name="guillemetleft" format="2">
  <advance width="542"/>
  <unicode hex="00AB"/>
  <outline>
    <contour>
      <point x="362" y="81" type="curve" smooth="yes"/>
      <point x="502" y="81" type="line" smooth="yes"/>
      <point x="513" y="81"/>
      <point x="518" y="88"/>
      <point x="512" y="99" type="curve" smooth="yes"/>
      <point x="421" y="265" type="line"/>
      <point x="513" y="430" type="line" smooth="yes"/>
      <point x="519" y="441"/>
      <point x="513" y="448"/>
      <point x="502" y="448" type="curve" smooth="yes"/>
      <point x="362" y="448" type="line" smooth="yes"/>
      <point x="354" y="448"/>
      <point x="348" y="445"/>
      <point x="344" y="438" type="curve" smooth="yes"/>
      <point x="248" y="275" type="line" smooth="yes"/>
      <point x="244" y="267"/>
      <point x="244" y="263"/>
      <point x="248" y="255" type="curve" smooth="yes"/>
      <point x="344" y="91" type="line" smooth="yes"/>
      <point x="348" y="84"/>
      <point x="354" y="81"/>
    </contour>
    <contour>
      <point x="140" y="81" type="curve" smooth="yes"/>
      <point x="280" y="81" type="line" smooth="yes"/>
      <point x="291" y="81"/>
      <point x="296" y="88"/>
      <point x="290" y="99" type="curve" smooth="yes"/>
      <point x="199" y="265" type="line"/>
      <point x="291" y="430" type="line" smooth="yes"/>
      <point x="297" y="441"/>
      <point x="291" y="448"/>
      <point x="280" y="448" type="curve" smooth="yes"/>
      <point x="140" y="448" type="line" smooth="yes"/>
      <point x="132" y="448"/>
      <point x="126" y="445"/>
      <point x="122" y="438" type="curve" smooth="yes"/>
      <point x="26" y="275" type="line" smooth="yes"/>
      <point x="22" y="267"/>
      <point x="22" y="263"/>
      <point x="26" y="255" type="curve" smooth="yes"/>
      <point x="122" y="91" type="line" smooth="yes"/>
      <point x="126" y="84"/>
      <point x="132" y="81"/>
    </contour>
  </outline>
</glyph>
<glyph name="logicalnot" format="2">
  <advance width="600"/>
  <unicode hex="00AC"/>
  <outline>
    <contour>
      <point x="396" y="84" type="curve" smooth="yes"/>
      <point x="508" y="84" type="line" smooth="yes"/>
      <point x="517" y="84"/>
      <point x="523" y="90"/>
      <point x="523" y="99" type="curve" smooth="yes"/>
      <point x="523" y="356" type="line" smooth="yes"/>
      <point x="523" y="365"/>
      <point x="517" y="371"/>
      <point x="508" y="371" type="curve" smooth="yes"/>
      <point x="92" y="371" type="line" smooth="yes"/>
      <point x="83" y="371"/>
      <point x="77" y="365"/>
      <point x="77" y="356" type="curve" smooth="yes"/>
      <point x="77" y="244" type="line" smooth="yes"/>
      <point x="77" y="235"/>
      <point x="83" y="229"/>
      <point x="92" y="229" type="curve" smooth="yes"/>
      <point x="381" y="229" type="line"/>
      <point x="381" y="99" type="line" smooth="yes"/>
      <point x="381" y="90"/>
      <point x="387" y="84"/>
    </contour>
  </outline>
</glyph>
<glyph name="registered" format="2">
  <advance width="558"/>
  <unicode hex="00AE"/>
  <outline>
    <contour>
      <point x="279" y="297" type="curve" smooth="yes"/>
      <point x="425" y="297"/>
      <point x="508" y="363"/>
      <point x="508" y="484" type="curve" smooth="yes"/>
      <point x="508" y="524" type="line" smooth="yes"/>
      <point x="508" y="645"/>
      <point x="425" y="711"/>
      <point x="279" y="711" type="curve" smooth="yes"/>
      <point x="133" y="711"/>
      <point x="50" y="645"/>
      <point x="50" y="524" type="curve" smooth="yes"/>
      <point x="50" y="484" type="line" smooth="yes"/>
      <point x="50" y="363"/>
      <point x="133" y="297"/>
    </contour>
    <contour>
      <point x="279" y="366" type="curve" smooth="yes"/>
      <point x="180" y="366"/>
      <point x="125" y="398"/>
      <point x="125" y="485" type="curve" smooth="yes"/>
      <point x="125" y="523" type="line" smooth="yes"/>
      <point x="125" y="610"/>
      <point x="180" y="642"/>
      <point x="279" y="642" type="curve" smooth="yes"/>
      <point x="378" y="642"/>
      <point x="433" y="610"/>
      <point x="433" y="523" type="curve" smooth="yes"/>
      <point x="433" y="485" type="line" smooth="yes"/>
      <point x="433" y="398"/>
      <point x="378" y="366"/>
    </contour>
    <contour>
      <point x="209" y="405" type="curve" smooth="yes"/>
      <point x="253" y="405" type="line" smooth="yes"/>
      <point x="258" y="405"/>
      <point x="262" y="409"/>
      <point x="262" y="414" type="curve" smooth="yes"/>
      <point x="262" y="470" type="line"/>
      <point x="271" y="470" type="line"/>
      <point x="299" y="411" type="line" smooth="yes"/>
      <point x="301" y="407"/>
      <point x="306" y="405"/>
      <point x="310" y="405" type="curve" smooth="yes"/>
      <point x="363" y="405" type="line" smooth="yes"/>
      <point x="369" y="405"/>
      <point x="371" y="409"/>
      <point x="368" y="415" type="curve" smooth="yes"/>
      <point x="332" y="484" type="line"/>
      <point x="356" y="497"/>
      <point x="366" y="515"/>
      <point x="366" y="543" type="curve" smooth="yes"/>
      <point x="366" y="589"/>
      <point x="335" y="608"/>
      <point x="275" y="608" type="curve" smooth="yes"/>
      <point x="210" y="608" type="line" smooth="yes"/>
      <point x="203" y="608"/>
      <point x="200" y="605"/>
      <point x="200" y="599" type="curve" smooth="yes"/>
      <point x="200" y="414" type="line" smooth="yes"/>
      <point x="200" y="409"/>
      <point x="204" y="405"/>
    </contour>
    <contour>
      <point x="262" y="515" type="line"/>
      <point x="262" y="562" type="line"/>
      <point x="275" y="562" type="line" smooth="yes"/>
      <point x="294" y="562"/>
      <point x="303" y="555"/>
      <point x="303" y="542" type="curve" smooth="yes"/>
      <point x="303" y="537" type="line" smooth="yes"/>
      <point x="303" y="521"/>
      <point x="295" y="515"/>
      <point x="275" y="515" type="curve" smooth="yes"/>
    </contour>
  </outline>
</glyph>
<glyph name="degree" format="2">
  <advance width="391"/>
  <unicode hex="00B0"/>
  <outline>
    <contour>
      <point x="196" y="357" type="curve" smooth="yes"/>
      <point x="302" y="357"/>
      <point x="366" y="414"/>
      <point x="366" y="515" type="curve" smooth="yes"/>
      <point x="366" y="537" type="line" smooth="yes"/>
      <point x="366" y="638"/>
      <point x="302" y="695"/>
      <point x="196" y="695" type="curve" smooth="yes"/>
      <point x="90" y="695"/>
      <point x="25" y="638"/>
      <point x="25" y="537" type="curve" smooth="yes"/>
      <point x="25" y="515" type="line" smooth="yes"/>
      <point x="25" y="414"/>
      <point x="90" y="357"/>
    </contour>
    <contour>
      <point x="196" y="477" type="curve" smooth="yes"/>
      <point x="168" y="477"/>
      <point x="152" y="490"/>
      <point x="152" y="522" type="curve" smooth="yes"/>
      <point x="152" y="530" type="line" smooth="yes"/>
      <point x="152" y="562"/>
      <point x="168" y="575"/>
      <point x="196" y="575" type="curve" smooth="yes"/>
      <point x="224" y="575"/>
      <point x="239" y="562"/>
      <point x="239" y="530" type="curve" smooth="yes"/>
      <point x="239" y="522" type="line" smooth="yes"/>
      <point x="239" y="490"/>
      <point x="223" y="477"/>
    </contour>
  </outline>
</glyph>
<glyph name="plusminus" format="2">
  <advance width="600"/>
  <unicode hex="00B1"/>
  <outline>
    <contour>
      <point x="244" y="199" type="curve" smooth="yes"/>
      <point x="356" y="199" type="line" smooth="yes"/>
      <point x="365" y="199"/>
      <point x="371" y="205"/>
      <point x="371" y="214" type="curve" smooth="yes"/>
      <point x="371" y="316" type="line"/>
      <point x="503" y="316" type="line" smooth="yes"/>
      <point x="512" y="316"/>
      <point x="518" y="322"/>
      <point x="518" y="331" type="curve" smooth="yes"/>
      <point x="518" y="443" type="line" smooth="yes"/>
      <point x="518" y="452"/>
      <point x="512" y="458"/>
      <point x="503" y="458" type="curve" smooth="yes"/>
      <point x="371" y="458" type="line"/>
      <point x="371" y="560" type="line" smooth="yes"/>
      <point x="371" y="569"/>
      <point x="365" y="575"/>
      <point x="356" y="575" type="curve" smooth="yes"/>
      <point x="244" y="575" type="line" smooth="yes"/>
      <point x="235" y="575"/>
      <point x="229" y="569"/>
      <point x="229" y="560" type="curve" smooth="yes"/>
      <point x="229" y="458" type="line"/>
      <point x="97" y="458" type="line" smooth="yes"/>
      <point x="88" y="458"/>
      <point x="82" y="452"/>
      <point x="82" y="443" type="curve" smooth="yes"/>
      <point x="82" y="331" type="line" smooth="yes"/>
      <point x="82" y="322"/>
      <point x="88" y="316"/>
      <point x="97" y="316" type="curve" smooth="yes"/>
      <point x="229" y="316" type="line"/>
      <point x="229" y="214" type="line" smooth="yes"/>
      <point x="229" y="205"/>
      <point x="235" y="199"/>
    </contour>
    <contour>
      <point x="99" y="0" type="curve" smooth="yes"/>
      <point x="501" y="0" type="line" smooth="yes"/>
      <point x="510" y="0"/>
      <point x="516" y="6"/>
      <point x="516" y="15" type="curve" smooth="yes"/>
      <point x="516" y="127" type="line" smooth="yes"/>
      <point x="516" y="136"/>
      <point x="510" y="142"/>
      <point x="501" y="142" type="curve" smooth="yes"/>
      <point x="99" y="142" type="line" smooth="yes"/>
      <point x="90" y="142"/>
      <point x="84" y="136"/>
      <point x="84" y="127" type="curve" smooth="yes"/>
      <point x="84" y="15" type="line" smooth="yes"/>
      <point x="84" y="6"/>
      <point x="90" y="0"/>
    </contour>
  </outline>
</glyph>
<glyph name="paragraph" format="2">
  <advance width="627"/>
  <unicode hex="00B6"/>
  <outline>
    <contour>
      <point x="189" y="-185" type="curve" smooth="yes"/>
      <point x="317" y="-185" type="line" smooth="yes"/>
      <point x="326" y="-185"/>
      <point x="332" y="-179"/>
      <point x="332" y="-170" type="curve" smooth="yes"/>
      <point x="332" y="527" type="line"/>
      <point x="423" y="527" type="line"/>
      <point x="423" y="-170" type="line" smooth="yes"/>
      <point x="423" y="-179"/>
      <point x="429" y="-185"/>
      <point x="438" y="-185" type="curve" smooth="yes"/>
      <point x="566" y="-185" type="line" smooth="yes"/>
      <point x="575" y="-185"/>
      <point x="581" y="-179"/>
      <point x="581" y="-170" type="curve" smooth="yes"/>
      <point x="581" y="668" type="line" smooth="yes"/>
      <point x="581" y="677"/>
      <point x="575" y="683"/>
      <point x="566" y="683" type="curve" smooth="yes"/>
      <point x="163" y="683" type="line" smooth="yes"/>
      <point x="67" y="683"/>
      <point x="15" y="631"/>
      <point x="15" y="539" type="curve" smooth="yes"/>
      <point x="15" y="432" type="line" smooth="yes"/>
      <point x="15" y="338"/>
      <point x="69" y="288"/>
      <point x="163" y="288" type="curve" smooth="yes"/>
      <point x="174" y="288" type="line"/>
      <point x="174" y="-170" type="line" smooth="yes"/>
      <point x="174" y="-179"/>
      <point x="180" y="-185"/>
    </contour>
  </outline>
</glyph>
<glyph name="ordmasculine" format="2">
  <advance width="406"/>
  <unicode hex="00BA"/>
  <outline>
    <contour>
      <point x="202" y="294" type="curve" smooth="yes"/>
      <point x="303" y="294"/>
      <point x="364" y="356"/>
      <point x="364" y="457" type="curve" smooth="yes"/>
      <point x="364" y="504" type="line" smooth="yes"/>
      <point x="364" y="605"/>
      <point x="303" y="667"/>
      <point x="202" y="667" type="curve" smooth="yes"/>
      <point x="102" y="667"/>
      <point x="42" y="605"/>
      <point x="42" y="504" type="curve" smooth="yes"/>
      <point x="42" y="457" type="line" smooth="yes"/>
      <point x="42" y="356"/>
      <point x="102" y="294"/>
    </contour>
    <contour>
      <point x="67" y="137" type="curve" smooth="yes"/>
      <point x="339" y="137" type="line" smooth="yes"/>
      <point x="348" y="137"/>
      <point x="354" y="143"/>
      <point x="354" y="152" type="curve" smooth="yes"/>
      <point x="354" y="248" type="line" smooth="yes"/>
      <point x="354" y="257"/>
      <point x="348" y="263"/>
      <point x="339" y="263" type="curve" smooth="yes"/>
      <point x="67" y="263" type="line" smooth="yes"/>
      <point x="58" y="263"/>
      <point x="52" y="257"/>
      <point x="52" y="248" type="curve" smooth="yes"/>
      <point x="52" y="152" type="line" smooth="yes"/>
      <point x="52" y="143"/>
      <point x="58" y="137"/>
    </contour>
    <contour>
      <point x="202" y="416" type="curve" smooth="yes"/>
      <point x="179" y="416"/>
      <point x="165" y="431"/>
      <point x="165" y="460" type="curve" smooth="yes"/>
      <point x="165" y="501" type="line" smooth="yes"/>
      <point x="165" y="530"/>
      <point x="179" y="545"/>
      <point x="202" y="545" type="curve" smooth="yes"/>
      <point x="226" y="545"/>
      <point x="241" y="530"/>
      <point x="241" y="501" type="curve" smooth="yes"/>
      <point x="241" y="460" type="line" smooth="yes"/>
      <point x="241" y="432"/>
      <point x="226" y="416"/>
    </contour>
  </outline>
</glyph>
<glyph name="guillemetright" format="2">
  <advance width="543"/>
  <unicode hex="00BB"/>
  <outline>
    <contour>
      <point x="262" y="81" type="curve" smooth="yes"/>
      <point x="402" y="81" type="line" smooth="yes"/>
      <point x="410" y="81"/>
      <point x="416" y="84"/>
      <point x="420" y="91" type="curve" smooth="yes"/>
      <point x="516" y="255" type="line" smooth="yes"/>
      <point x="521" y="263"/>
      <point x="521" y="267"/>
      <point x="516" y="275" type="curve" smooth="yes"/>
      <point x="420" y="438" type="line" smooth="yes"/>
      <point x="416" y="445"/>
      <point x="410" y="448"/>
      <point x="402" y="448" type="curve" smooth="yes"/>
      <point x="262" y="448" type="line" smooth="yes"/>
      <point x="251" y="448"/>
      <point x="245" y="441"/>
      <point x="251" y="430" type="curve" smooth="yes"/>
      <point x="343" y="265" type="line"/>
      <point x="252" y="99" type="line" smooth="yes"/>
      <point x="246" y="88"/>
      <point x="251" y="81"/>
    </contour>
    <contour>
      <point x="40" y="81" type="curve" smooth="yes"/>
      <point x="180" y="81" type="line" smooth="yes"/>
      <point x="188" y="81"/>
      <point x="194" y="84"/>
      <point x="198" y="91" type="curve" smooth="yes"/>
      <point x="294" y="255" type="line" smooth="yes"/>
      <point x="299" y="263"/>
      <point x="299" y="267"/>
      <point x="294" y="275" type="curve" smooth="yes"/>
      <point x="198" y="438" type="line" smooth="yes"/>
      <point x="194" y="445"/>
      <point x="188" y="448"/>
      <point x="180" y="448" type="curve" smooth="yes"/>
      <point x="40" y="448" type="line" smooth="yes"/>
      <point x="29" y="448"/>
      <point x="23" y="441"/>
      <point x="29" y="430" type="curve" smooth="yes"/>
      <point x="121" y="265" type="line"/>
      <point x="30" y="99" type="line" smooth="yes"/>
      <point x="24" y="88"/>
      <point x="29" y="81"/>
    </contour>
  </outline>
</glyph>
